<svg xmlns="http://www.w3.org/2000/svg" viewBox="0 0 297.26 346.25">
  <defs>
    <style>
      .d{fill:#784725}
    </style>
  </defs>
  
  <g id="c">
    <path d="M170.75 192.71c.84-.83.88-2.17.09-2.98-.37-.38-.94-.61-1.56-.62-.67 0-1.3.23-1.73.65-.34.34-.54.9-.54 1.53 0 .64.21 1.23.57 1.58.32.31.65.52 1 .61.7.19 1.44-.07 2.17-.78ZM83.38 243.53c-.67 0-1.3.23-1.72.65-.34.34-.54.9-.54 1.53 0 .64.21 1.23.57 1.58.32.31.66.52 1 .61.7.19 1.44-.07 2.17-.78.84-.83.88-2.17.09-2.98-.37-.39-.94-.61-1.56-.61Z" class="d"/>

    <path d="M234.15.92c-.75-.59-1.54-.88-2.42-.91-1.95-.05-3.47.2-4.91.8-1.24.52-2.3 1.16-3.24 1.95-1.5 1.27-2.75 2.65-3.73 4.12-.21.32-.43.64-.64.96-.7 1.05-1.43 2.13-2.05 3.25-.59 1.08-1.08 2.24-1.54 3.36l-.35.85a53.556 53.556 0 0 0-2.97 9.29c-.48 2.21-1.01 4.84-1.28 7.56-.06.66-.17 1.32-.27 1.97-.13.84-.27 1.72-.32 2.59-.13 2.31-.18 4.66-.14 6.98.04 2.6.16 5.33.35 8.35.2 3.24.44 6.16 1.22 9.07.04.16.07.33.09.5l.02.14.15 1.1c.16 1.24.32 2.52.77 3.75.06.16.08.34.1.54.02.16.03.33.07.48.1.43-.05.7-.56 1l-.25.15c-.6.35-1.22.72-1.73 1.2-.94.88-2.06 1.55-3.14 2.19-.43.25-.85.51-1.27.77-.54.35-1.14.64-1.73.93-.63.31-1.27.62-1.87 1.01-.93.61-1.97 1.05-2.97 1.47-.56.24-1.12.47-1.67.74-.5.25-1.07.43-1.68.58-.61.27-1.3.45-2.1.47h-.1v.1l-.16.03c-.28.05-.53.09-.79.12-.45.05-.9.07-1.35.09-.43.02-.87.05-1.3.08-1.01.07-2.06.14-3.07.09-1.23-.05-2.5-.26-3.79-.61-1.53-.41-3-.93-4.38-1.55-1.26-.57-2.4-1.23-3.38-1.97-.72-.55-1.37-1.22-2.01-1.86-.31-.32-.62-.63-.94-.93-1.19-1.14-2.26-2.47-3.35-4.1 0-.02.02-.04.03-.07.13-.35.15-.75.25-1.12.26-.96.55-1.91.78-2.88.3-1.27.59-2.55.69-3.87.04-.62.4-1.22.55-1.84.1-.45.06-.94.12-1.41.11-.84.27-1.68.39-2.52.09-.63.13-1.27.2-1.91.12-.99.24-1.99.37-2.98.1-.8.21-1.6.34-2.4.18-1.15.39-2.29.58-3.44.31-1.85.61-3.7.93-5.54.17-1.01.56-1.86 1.16-2.63a.18.18 0 0 1 .07-.05c.1-.08.16-.19.2-.3 0 0 0-.01-.01-.02.02-.03.03-.06.06-.09.84-.86 1.5-1.96 2.3-2.88.72-.83 1.35-1.71 1.91-2.7.64-1.13 1.55-2.06 2.2-3.18.59-1.02 1.03-2.18 1.44-3.32.18-.5.15-1.07-.36-1.43-.55-.39-.94-.21-1.37.31-1.28 1.55-2.61 3.06-3.8 4.69-.72.99-1.27 2.18-1.84 3.32-.63 1.27-1.16 2.62-1.82 3.87-.22.43-.52.82-.84 1.17-.02.16-.06.28-.08.44-.08.07-.17.11-.24.18-.15.15-.29.3-.42.46-.26.29-.5.56-.78.77-1.56 1.14-2.65 2.7-3.71 4.2l-.14.19c-.89 1.27-1.52 2.73-2.11 4.16l-.11.25c-.84 1.97-1.6 3.92-1.77 6.09-.06.72-.14 1.44-.23 2.17-.11.91-.22 1.86-.28 2.79-.12 2.07.18 4.13.47 6.12l.12.86c.32 2.3 1.2 4.34 2.43 6.67-.36.87-.71 1.76-1.14 2.6-.52 1.02-1.07 2.03-1.65 3.01-.57.96-1.18 1.9-1.82 2.8-.75 1.06-1.51 2.11-2.33 3.09-.63.76-1.33 1.44-2.02 2.13-.87.87-1.74 1.76-2.66 2.55-1.44 1.22-3.02 2.14-4.65 2.94-.27.13-.58.16-.89.24.36-1.45.72-2.8 1.02-4.16.19-.86.31-1.74.46-2.61.26-1.45.56-2.89.77-4.34.18-1.25.3-2.51.4-3.77.11-1.4.2-2.8.23-4.2.02-.94-.14-1.86-.16-2.8a21.3 21.3 0 0 0-.4-3.75c-.1-.47-.08-.99-.21-1.45-.24-.93-.55-1.83-.83-2.75-.21-.7-.25-.96.02-1.3-.02-.05-.04-.09-.06-.14-.37-1.31-.9-2.5-1.61-3.58-.28.17-.48.11-.72-.16-.92-1.01-1.81-2.08-2.82-2.95-.58-.5-1.36-.8-2.09-.92-1.07-.17-2.18-.07-3.26-.15-1.03-.08-1.92.45-2.84.89-.98.47-1.88 1.04-2.63 1.96-.16.2-.38.33-.59.48-1.39.97-2.38 2.49-3.26 3.98-1.01 1.73-1.9 3.63-2.21 5.78-.11.81-.51 1.57-.71 2.37-.12.46-.11.95-.18 1.43-.12.87-.19 1.76-.39 2.61-.02.06-.05.12-.07.18.03.22.04.45.03.68-.04 1.11 0 2.16.09 3.19.15.91.31 1.82.43 2.73 1.23 4.94 3.18 9.15 6.76 12.06 3.74 3.04 7.88 4.34 12.65 3.38-.13.51-.21.99-.38 1.43-.75 1.86-1.49 3.73-2.31 5.55-.8 1.76-1.67 3.48-2.56 5.18-.8 1.54-.49.44-1.44 1.86-.45.66-3.52 5.43-3.91 6.06.01 1.01.18 1.56 1.07 1.63.06-.07.12-.14.17-.21 1.3-1.7 2.45-3.57 3.6-5.42.71-1.13 1.35-2.34 1.95-3.56.74-1.52 1.41-3.09 2.1-4.65.59-1.32 1.2-2.63 1.74-3.98.39-.97.7-2 .99-3.01.26-.93.79-1.5 1.55-1.66 1.36-.28 2.58-.99 3.77-1.79 1.12-.75 2.23-1.55 3.29-2.44.85-.72 1.64-1.55 2.39-2.41a72.53 72.53 0 0 0 3.12-3.84c.47-.61.78-1.37 1.22-2.01 1.56-2.29 2.77-4.82 3.88-7.41.7.96 1.47 1.86 2.28 2.7.29.3.57.6.85.9.12.13.25.22.38.31l.12.09c.27.2.54.4.81.61.62.47 1.26.96 1.99 1.42 1.06.67 2.15 1.35 3.33 1.81 1.55.6 3.31 1.03 5.56 1.36 2.28.34 4.67.34 7.3.02.8-.1 1.6-.24 2.38-.38h.06c.59-.24 1.24-.41 2-.43.24 0 .45.03.68.05.06-.16.18-.26.43-.35l.71-.27c1.45-.54 2.96-1.11 4.4-1.76.99-.45 1.96-.98 2.9-1.5.45-.25.9-.5 1.36-.74.23-.12.46-.23.7-.34.47-.22.95-.45 1.39-.76.79-.54 1.56-1.13 2.3-1.7.32-.25.64-.49.96-.74l.42-.31c.64-.48 1.27-.96 1.92-1.43.06-.04.15-.08.27-.12 0 .02.01.04.02.05.09.22.17.42.22.64.97 3.87 2.15 7.66 3.51 11.25.74 1.97 1.42 3.94 2.2 6.28.8 2.4 1.65 4.96 2.43 7.54.36 1.18.65 2.41.93 3.6l.45 1.86c.27 1.1.55 2.24.76 3.36l.03.16c.37 1.95.74 3.97.97 5.96.29 2.5.52 5.14.69 8.07.06 1.12 0 2.27-.08 3.38l-.14 2.3c-.13 2.13-.25 4.32-.49 6.47-.28 2.55-.7 4.56-1.34 6.32-.36 1-.69 2.02-1.02 3.03-.26.79-.51 1.58-.78 2.36-.14.41-.32.81-.54 1.27-.03.07-.07.15-.1.22-.07-.1-.13-.19-.19-.29l-.33-.58c-.71-1.25-1.42-2.5-2.1-3.77-.58-1.07-1.34-2.03-2.07-2.96-.5-.63-1.02-1.29-1.47-1.97-.72-1.09-1.65-1.99-2.54-2.86-.71-.69-1.44-1.4-2.05-2.19-.13-.17-.32-.27-.48-.36-.06-.03-.11-.06-.16-.09-.08-.05-.16-.09-.24-.14-.14-.08-.27-.15-.37-.24-1.6-1.44-3.46-2.52-5.27-3.57-.44-.25-.87-.51-1.31-.76-1.95-1.16-4.08-1.9-6.08-2.56l-.88-.29c-.84-.28-1.71-.57-2.58-.81-.79-.21-1.57-.37-2.41-.53-.29-.06-.57-.11-.87-.17.02-.15.03-.3.06-.44.17-.77.35-1.54.54-2.31.38-1.59.76-3.23 1.07-4.87.12-.61.22-1.23.33-1.84.25-1.44.51-2.94.91-4.37.17-.63.25-1.28.32-1.92.04-.34.07-.67.13-1.01.13-.83.27-1.66.41-2.49.08-.46.09-.47.17-.93-.09.03-.53.37-.62.4-.68 3.51-.54 2.94-1.56 6.43-.15.53-.97 4.22-1.23 4.63-.04.14-.07.28-.12.42-.06.81-.25 1.6-.62 2.31-.08.45-.19.9-.31 1.38-.18.71-.34 1.42-.5 2.13-.12.56-.25 1.13-.39 1.69-.04.18-.11.46-.16.5-.05.03-.31.01-.5 0-.35-.02-.68-.06-1.02-.1-.57-.07-1.15-.14-1.74-.12h-.09c-2.54.07-5.18.14-7.76.35-2.05.17-4.23.41-6.32 1.16-1.42.51-2.69.94-3.89 1.3-1.81.54-3.67 1.36-5.7 2.5-1.39.78-2.83 1.59-4.14 2.6-.35.27-.71.54-1.07.81-1.02.76-2.07 1.54-2.99 2.43-1.61 1.54-3.06 3.2-4.53 4.9-.57.66-1.03 1.4-1.48 2.13l-.35.57c-.2.31-.4.61-.6.92-.59.89-1.2 1.81-1.65 2.79-.77 1.69-1.38 3.47-1.98 5.19l-.18.51c-.34.98-.65 1.95-.72 2.93-.04.56-.13 1.12-.22 1.67-.15.92-.3 1.86-.22 2.85.06.75.07 1.52.08 2.27 0 .78.03 1.59.1 2.38-.15.04-.29.07-.44.1l-.37.08c-.81.17-1.65.35-2.4.88-.11.08-.28.12-.48.17.02-.07.04-.13.06-.19.03-.09.08-.18.13-.27.08-.15.18-.33.22-.53.07-.32.12-.65.16-.98.04-.27.08-.54.13-.8.12-.61.27-1.19.4-1.69.06-.23.14-.46.22-.69l.09-.27c.02-.05.04-.11.06-.16.06-.14.13-.3.14-.48.02-.3-.04-.57-.09-.83-.08-.37-.14-.69-.02-1.05.17-.49.15-1 .13-1.51-.01-.29-.02-.57 0-.84.04-.47.11-.94.18-1.41.15-.97.3-1.98.2-3.02-.05-.56-.05-1.14-.05-1.7 0-.42 0-.84-.02-1.26a3.3 3.3 0 0 0-.13-.71 4.59 4.59 0 0 1-.1-.51c-.08-.74-.14-1.48-.2-2.22l-.1-1.19c-.01-.19-.02-.39-.07-.59-.15-.56-.31-1.12-.47-1.67-.31-1.05-.62-2.14-.86-3.22-.16-.7-.52-1.29-.87-1.87-.39-.64-.76-1.25-.83-1.98l-.02-.15-.1-.08c-.67-.66-1.17-1.45-1.7-2.35-.36-.6-.82-1.14-1.26-1.66l-.15-.17c-.51-.6-1.14-1.34-1.81-1.99-.54-.53-1.14-1-1.72-1.45l-.22-.17a6.1 6.1 0 0 0-.82-.54l-.86-.52c-.42-.25-.85-.51-1.22-.74a.502.502 0 0 1-.03-.16c.02-.28.05-.56.07-.84.03-.32.07-.65.08-.97.05-.87.08-1.75.12-2.63l.07-1.66c.03-.62.05-1.24.08-1.86 0-.13.02-.26.03-.4.02-.24.05-.49.03-.75v-.2c-.06-.8-.1-1.62-.47-2.44-.22-.48-.32-1.02-.42-1.59-.06-.3-.11-.59-.18-.88-.06-.23-.19-.46-.35-.62l-.16-.16c-.4-.42-.9-.94-1.86-.64-.74.23-1.51.55-2.06 1.32-.31.44-.61.89-.9 1.35l-.38.59c-.2.31-.41.63-.57.97-.28.61-.49 1.24-.66 1.77-.27.85-.53 1.71-.8 2.57l-.58 1.89c-.2.66-.4 1.32-.63 1.98-.04.12-.12.21-.19.24-.02 0-.08.03-.18-.02-.56-.29-1.1-.27-1.64-.26h-.3c-.72 0-1.64 0-2.57-.1-.82-.09-1.62 0-2.4.09-.89.1-1.74.19-2.6.05-.48-.07-.98.04-1.45.16-.16.04-.32.08-.48.11-.23.04-.46.11-.69.17-.21.06-.41.11-.62.15-.31.06-.62.12-.93.17-.44.08-.88.15-1.31.25-.69.16-1.38.35-2.06.54l-.64.18c-.47.13-.93.26-1.4.4-.37.11-.75.22-1.12.32-.89.25-1.81.52-2.69.86-1.5.59-2.91 1.28-4.47 2.04-1.85.91-3.84 1.9-5.82 2.98-.85.46-1.65 1.03-2.43 1.57l-.48.34c-.29.2-.56.42-.83.64-.31.25-.6.49-.92.7-.26.17-.52.33-.78.49-.81.5-1.64 1.02-2.32 1.77-.24.26-.54.48-.85.71-.15.11-.3.22-.44.33l-.99.78c-.75.58-1.53 1.19-2.25 1.84-.99.9-1.94 1.86-2.86 2.79l-.61.61c-.94.95-2.05 2.08-3.14 3.26-.34.37-.66.77-.96 1.16-.16.21-.33.42-.5.62-.08.1-.18.2-.28.29l-.18.18c-.13.13-.26.27-.39.4-.3.3-.62.62-.89.97-.42.54-.83 1.09-1.24 1.64-.38.52-.76 1.03-1.15 1.54-.15.19-.32.36-.5.54-.21.21-.44.43-.62.68-.63.88-1.28 1.85-1.98 2.96-.54.86-1.06 1.73-1.58 2.6l-.55.92c-1.27 2.11-2.61 4.37-3.78 6.68-.09.18-.2.34-.31.51-.14.22-.29.44-.4.69-.33.73-.65 1.47-.97 2.21-.23.54-.46 1.08-.7 1.61-.21.47-.43.95-.65 1.42-.25.54-.5 1.07-.73 1.61-.62 1.41-1.27 2.93-1.9 4.46-.42 1.02-.8 2.07-1.17 3.08l-.07.19c-.06.16-.1.33-.13.51-.03.16-.07.32-.13.47-.09.22-.21.44-.33.65-.09.17-.19.34-.27.52-.06.12-.1.17-.1.18-.02 0-.07-.04-.15-.12-.37-.35-.97-.84-1.77-1.01-.31-.07-.62-.14-.92-.24-.27-.08-.53-.18-.79-.27-.5-.17-1.02-.35-1.55-.47-1.9-.42-3.81-.28-5.67-.15l-.58.04c-1.74.12-3.37.71-4.96 1.29-.44.16-.87.32-1.31.47-.96.33-1.9.75-2.81 1.15-.32.14-.65.29-.97.43-.19.08-.39.16-.58.23-.55.21-1.11.43-1.57.8-.5.41-1.05.76-1.59 1.11-.72.46-1.46.94-2.11 1.55-.57.54-1.21 1.06-1.82 1.55-.63.51-1.29 1.04-1.89 1.61-.73.7-1.39 1.49-2.02 2.25-.22.27-.44.53-.66.79-.42.49-.86 1.05-1.4 1.75-.53.7-.96 1.29-1.35 1.85-.11.16-.19.33-.28.51-.09.18-.18.36-.29.5l-.08.1c-.24.3-.49.61-.59 1.08-.05.22-.16.43-.28.66-.09.16-.17.33-.24.5-.08.2-.15.42-.21.63-.06.18-.11.37-.18.55l-.36.87c-.17.39-.33.77-.47 1.17-.32.87-.62 1.75-.92 2.64l-.28.81c-.06.18-.13.39-.16.6l-.06.41c-.17 1.12-.35 2.25-.5 3.38-.05.37-.06.74-.07 1.1v.39c-.03.3-.05.6-.07.91-.05.7-.1 1.43-.05 2.15.07 1.04.19 2.08.32 3.09.06.52.13 1.04.18 1.57.13 1.23.44 2.5.91 3.76l.07.2c.22.58.44 1.18.7 1.76l.29.67c.35.82.72 1.67 1.17 2.47.53.93 1.15 1.82 1.74 2.69l.61.89c.4.59.81 1.19 1.31 1.72.72.76 1.52 1.47 2.3 2.14l.2.17c.53.47 1.09.92 1.64 1.36l.58.47c.08.07.16.09.24.11l.88.5c.46.26.91.53 1.37.78l.43.25c.56.32 1.15.65 1.75.93.38.18.78.3 1.16.42.15.05.3.09.45.14l.95.32c.81.27 1.65.55 2.5.79.54.15 1.1.25 1.64.35.25.05.5.09.74.14l.41.09c.32.07.67.16.98.17.38.02.76.01 1.14 0 .28 0 .56-.01.84 0 .4.01.83.05 1.35.13.21.03.41.08.61.12.35.08.72.15 1.09.17.58.02 1.17-.05 1.73-.12l.37-.04c.16-.02.24 0 .26.03.02.02.04.08.02.28-.03.24-.06.49-.03.75.07.61.16 1.21.25 1.82l.17 1.17c.21 1.44.43 2.89.65 4.33.03.21.08.42.14.63.04.15.08.29.1.44.05.24.09.48.13.72.06.39.13.77.21 1.15.09.39.2.77.3 1.15.12.41.23.83.32 1.25.08.37.14.74.2 1.12.08.5.17 1.02.3 1.53.3 1.11.66 2.23 1.01 3.3l.17.53c.28.86.59 1.83.95 2.75.19.49.37.98.55 1.48.54 1.48 1.09 3.01 1.97 4.39.27.43.48.9.7 1.39.14.32.28.63.44.94.46.9.89 1.67 1.31 2.36.16.26.31.53.46.79.45.8.91 1.62 1.62 2.31.43.41.81.98 1.15 1.69.48 1.03 1.13 1.93 1.98 2.77.33.33.65.68.97 1.02.2.22.4.43.6.65l.59.62c.54.57 1.09 1.16 1.67 1.71.8.74 1.65 1.44 2.47 2.12l.16.13c.64.52 1.14.9 1.64 1.22.66.42 1.34.82 2.01 1.21l.85.5c.28.17.56.35.88.47.72.27 1.43.54 2.15.8 1.02.38 2.04.75 3.05 1.15 1.07.43 2.15.47 3.07.47.18 0 .31.05.38.14.07.1.05.23.02.33-.35 1.06-.75 2.12-1.12 3.14-.21.57-.43 1.15-.65 1.72-.39 1.03-.8 2.09-1.16 3.15-.66 1.91-1.28 3.86-1.88 5.75l-.39 1.23c-.45 1.41-.91 2.86-1.3 4.32-.48 1.81-.9 3.67-1.3 5.46l-.07.33c-.39 1.73-.78 3.58-1.19 5.64l-.09.44c-.17.85-.35 1.72-.41 2.6-.06.91-.05 1.84-.04 2.74v1.44c0 .4-.02.81-.03 1.21-.02.56-.04 1.11-.03 1.67 0 .41.05.81.1 1.2l.05.38.06.56c.05.49.1 1 .21 1.49.19.87.42 1.62.68 2.28l.07.16c.28.69.57 1.41 1.16 1.98l.51.49c.43.41.86.82 1.27 1.24.59.59 1.36.93 2.33 1 .81.06 1.62.01 2.23-.04.28-.02.53-.13.77-.23.08-.03.16-.07.24-.1.1-.04.19-.08.29-.13.07-.04.15-.07.23-.1l.54-.22c.46-.19.93-.38 1.39-.52 1.25-.39 2.18-1.21 3.01-2.03.47-.47.99-.9 1.55-1.28 1.34-.91 2.25-2.16 2.97-3.26.14-.22.32-.42.49-.63.39-.47.8-.95.95-1.63.05-.04.12-.1.17-.19.19-.33.43-.63.69-.94.42-.52.86-1.06 1.09-1.79.22-.68.54-1.32.87-1.99.27-.54.55-1.1.77-1.69.38-1 .87-1.98 1.34-2.93.2-.41.41-.81.6-1.22.04-.1.1-.19.15-.28.11-.2.23-.4.29-.63l.12-.45c.22-.8.43-1.57.77-2.31.37-.81.58-1.69.78-2.54l.1-.42c.1-.42.18-.86.26-1.29.12-.68.24-1.33.46-1.95.13-.38.22-.76.3-1.14.15-.68.29-1.32.68-1.87.11-.16.11-.34.1-.48v-.12l.03-.52c.02-.37.04-.74.09-1.1.17-1.17.37-2.34.57-3.5.06-.32.13-.63.2-.95.14-.63.29-1.28.31-1.96.02-.64.12-1.3.22-1.94.05-.32.1-.63.14-.95l.12-1.04.22-1.81c.09-.68.18-1.36.25-2.04.06-.58.1-1.15.14-1.73.03-.46.07-.92.11-1.38.02-.2.05-.39.09-.59.05-.28.1-.56.11-.85.03-1.11.04-2.25.02-3.42-.01-.68.03-.91.52-.99.17-.03.26-.16.33-.27l.17-.17c.14-.14.27-.28.43-.4.13-.11.28-.21.42-.3.17-.12.34-.23.5-.36.12-.1.23-.22.33-.33.12-.13.23-.26.35-.33.33-.19.59-.44.85-.68.34-.32.67-.63 1.1-.76.19-.06.29-.23.36-.35l.04-.07c.04-.05.07-.11.09-.17.02-.04.05-.1.06-.11.18-.16.37-.32.56-.47.33-.27.68-.55.98-.87.66-.68 1.3-1.38 1.94-2.08.39-.43.78-.85 1.17-1.27.22-.23.44-.46.67-.69.36-.36.72-.73 1.06-1.12.48-.56.91-1.16 1.32-1.75l.12-.18c.23-.33.46-.66.68-1 .23-.35.47-.7.71-1.04.22-.3.44-.6.67-.89.31-.41.63-.82.91-1.24.28-.41.51-.85.75-1.27l.3-.54c.09-.16.18-.32.26-.49.18-.34.35-.66.56-.95l.05-.07c.53-.71 1.09-1.44 1.44-2.3.03-.08.08-.14.12-.21l.06-.09c.08-.14.17-.27.26-.41.19-.3.39-.6.56-.93.12-.23.21-.48.31-.72.12-.31.23-.59.39-.85.09-.14.17-.27.26-.41.41-.63.84-1.29.84-2.16 0-.03.06-.1.09-.15l.07-.12c.05-.09.11-.19.17-.28.12-.19.24-.38.33-.58.17-.38.33-.76.49-1.15.1-.23.19-.47.29-.7.13-.3.26-.6.4-.9.25-.57.51-1.15.74-1.73.08-.2.13-.42.18-.64.09-.4.17-.74.45-.99.14-.12.14-.29.15-.47l.03-.21c.02-.13.03-.25.07-.32.16-.29.33-.58.49-.87.14-.24.28-.48.42-.73.1-.18.12-.38.14-.57.02-.22.03-.43.04-.65.02-.4.04-.79.09-1.17.08-.57.25-1.14.38-1.56.1-.34.23-.67.35-1.01.1-.26.2-.53.29-.8.23-.71.5-1.51.72-2.32.06-.22.02-.43-.02-.61-.02-.08-.03-.15-.04-.22 0-.14-.02-.28 0-.39.15-.79.31-1.58.47-2.37l.38-1.92c.15-.74.3-1.47.44-2.21.03-.19.07-.37.11-.56.12-.57.25-1.16.22-1.75-.04-1.08.11-2.16.26-3.21.04-.32.09-.65.13-.97l.07-.54-.15.07c.02-.19.03-.37.05-.55.07-.8.15-1.61.19-2.41.05-.99.07-1.99.09-2.97v-.55c.02-.48.02-.95.02-1.43 0-.51 0-1.03.01-1.54.02-.95.05-1.67.09-2.35.02-.25.05-.49.09-.73.06-.39.11-.79.1-1.2-.03-.77-.08-1.54-.14-2.31-.05-.64-.1-1.28-.12-1.92-.02-.33 0-.66.02-.99.02-.47.05-.96-.02-1.45-.08-.61-.09-1.24-.1-1.84-.01-.82-.02-1.67-.21-2.52-.18-.82-.22-1.7-.25-2.55-.02-.44-.04-.87-.07-1.31-.03-.36-.06-.73-.08-1.1-.07-.97-.13-1.98-.31-2.95-.18-1-.22-2.04-.26-3.05-.05-1.28-.1-2.61-.44-3.9-.07-.26-.06-.55-.06-.86 0-.26 0-.53-.04-.8-.12-.78-.26-1.56-.4-2.34-.09-.49-.17-.98-.26-1.48-.02-.12-.02-.24-.02-.37 0-.14 0-.29-.02-.43-.14-.97-.28-1.93-.44-2.89-.06-.36-.14-.73-.21-1.09-.07-.32-.13-.64-.19-.96-.07-.36-.11-.73-.16-1.09l-.18-1.29c-.1-.67-.19-1.33-.26-2-.06-.53-.1-1.07-.14-1.6-.05-.62-.09-1.24-.16-1.86-.04-.34-.11-.67-.19-1-.08-.36-.16-.7-.19-1.04-.11-1.27-.21-2.47.39-3.59.08-.15.1-.31.11-.44v-.11c.04-.16.06-.32.07-.47.04-.31.08-.63.15-.93.09-.39.19-.78.29-1.17.14-.53.28-1.08.39-1.64.11-.54.18-1.09.25-1.63.06-.43.11-.87.19-1.3.05-.29.13-.57.22-.87.06-.22.13-.43.18-.65.45-1.93.89-3.86 1.32-5.78.05-.25.12-.5.19-.74.2-.73.41-1.48.3-2.31 0-.02 0-.07.03-.16l.17-.97c.16-.88.32-1.76.48-2.63.05-.25.1-.49.16-.74.14-.62.28-1.26.29-1.95.02-.91.14-1.85.27-2.75l.15-1.14.05-.45c.05-.44.1-.89.18-1.32.11-.55.24-1.1.37-1.64.09-.37.18-.73.26-1.1.08-.37.13-.73.16-1.04.07-.69.14-1.39.19-2.08l.03-.6c.01-.29.02-.59.06-.88 0-.06.06-.14.11-.22.06.04.13.07.18.12.31.25.61.49.89.75l.17.16c.3.29.61.58.84.9.23.33.43.68.63 1.03.16.28.32.56.5.83.11.17.25.33.39.49.14.16.28.31.37.47.43.75.83 1.53 1.22 2.28l.12.24c.39.75.77 1.52 1.14 2.28 0 .02.02.08.02.11.02.13.06.31.21.43.39.3.52.73.66 1.22.05.16.09.31.14.46.14.4.27.8.4 1.2.21.67.44 1.36.72 2.03.43 1.03.61 2.1.79 3.23.04.28.09.56.14.83.12.65.2 1.31.28 1.97l.15 1.14c.05.36.11.72.16 1.08.19 1.21.38 2.45.4 3.71 0 .62-.02 1.26-.05 1.87-.06 1.39-.13 2.82.19 4.23 0 .02-.01.06-.02.09l-.02.1c-.06.33-.12.65-.19.97-.15.76-.3 1.54-.36 2.33-.04.63-.42.97-.85 1.36l-.1.09c-.3.27-.61.52-.93.77-.38.3-.78.62-1.14.97-.64.62-1.23 1.3-1.79 1.96l-.47.55c-.46.52-.93 1.07-1.31 1.66-.57.89-1.11 1.82-1.62 2.73l-.47.82c-.23.41-.48.83-.65 1.28-.12.31-.2.63-.28.93-.05.21-.1.41-.17.61-.04.14-.1.27-.16.4-.11.25-.23.51-.26.79-.1.88-.23 1.67-.39 2.4-.15.7-.17 1.42-.18 2.12 0 .24 0 .47-.02.7-.02.57 1.01 1.66 1.54 1.74.2.04.37-.03.46-.07 1.56-.69 2.87-1.87 3.89-3.52.6-.98 1.14-2.02 1.65-3.03l.31-.6c.16-.32.28-.65.4-.97l.18-.48c.2-.5.41-1 .61-1.51.46-1.13.95-2.31 1.38-3.48.21-.55.35-1.13.49-1.69.08-.32.16-.64.25-.95.07-.24.16-.48.25-.72.18-.48.36-.98.41-1.5.08-.86.59-1.19 1.47-1.48.7-.23 1.48-.3 2.21-.33.35-.02.71 0 1.09.04.1 0 .2 0 .3.01.24.99.54 1.92.92 2.78.18.42.35.85.52 1.27.31.78.62 1.59 1.04 2.35 1.27 2.29 2.97 4.46 5.35 6.81.3.3.63.57.95.83.23.19.47.38.69.59 1.74 1.59 3.73 2.85 5.91 3.75.22.09.44.19.66.28.38.17.76.33 1.16.48l.61.23c.13.05.27.1.41.15.04.13.09.26.14.39.16.47.28.96.4 1.44.07.26.13.52.2.77.07.26.15.52.22.78.15.5.29.99.41 1.5.04.18.05.37.06.58 0 .17.02.35.04.52.04.29.1.58.16.86.11.52.21 1.01.22 1.5.05 1.9.06 3.84.06 5.72v2c0 .06 0 .13-.01.19l-.12 1.14c-.08.82-.16 1.63-.25 2.45-.02.18-.08.36-.13.51-.02.06-.04.12-.06.17l-.02.05v.06c.01.1.02.2.04.29.02.14.04.25.02.33-.06.27-.14.53-.22.79-.08.28-.16.56-.23.84-.04.21-.06.42-.08.63-.02.24-.04.46-.1.67-.4 1.32-.84 2.67-1.34 4.11-.23.65-.51 1.31-.79 1.94l-.25.57c-.23.53-.46 1.08-.75 1.56-.42.71-.9 1.4-1.36 2.08-.19.28-.38.55-.56.83-.04.06-.08.12-.11.18-.07.12-.14.23-.21.3-.15.13-.3.26-.45.38-.49.41-1.01.83-1.37 1.47-.24.43-.67.85-1.22 1.18-.44.27-.86.56-1.29.85-.63.44-1.29.89-1.98 1.24-1.15.59-2.48.8-3.94.65-1.67-.18-3.24-.99-4.92-2.55-.73-.68-1.4-1.56-1.93-2.54l-.28-.51c-.6-1.08-1.21-2.19-1.3-3.45-.01-.16-.06-.32-.15-.48-.48-.84-.64-1.78-.78-2.83-.08-.61-.06-1.27-.04-1.97v-.19c.04-.88.07-1.8.18-2.68.16-1.22.4-2.48.62-3.59.14-.7.26-1.28.48-1.83.5-1.23 1.06-2.5 1.74-3.91.35-.73.71-1.48 1.19-2.09.78-.99 1.67-1.91 2.52-2.77.95-.96 1.79-1.38 2.75-1.36.2 0 .4.06.62.13.19.06.38.11.57.13.98.14 1.56.83 2.18 1.56.11.12.21.25.32.37.36.4.6.95.83 1.49.07.15.13.31.2.45.1.22.21.43.32.64.34.64.65 1.25.66 1.96v.22c0 .29 0 .6.08.89.25 1.02.25 1.79 0 2.5-.06.17-.14.5 0 .73.14.22.09.42-.01.75-.05.16-.1.33-.12.5-.01.1-.04.19-.07.29l-.04.16c-.11.42-.21.84-.32 1.26-.25.99-.5 2.02-.81 3-.16.52-.41 1-.67 1.52-.15.29-.29.58-.43.88-.16.37-.22.65-.15.96.03.19.08.51.36.63.18.07.37.04.58-.1.32-.22.62-.57.83-.98.29-.55.54-1.12.78-1.67l.29-.65.19-.56h-.06c.12-.31.24-.64.34-.97.06-.18.09-.37.13-.56.03-.15.05-.3.1-.44.05-.18.14-.36.22-.54.2-.45.43-.95.3-1.58.02-.05.03-.1.04-.15.06-.3.13-.59.2-.89.16-.69.33-1.41.38-2.13.08-1.02.04-2.14-.11-3.33-.03-.23-.05-.46-.07-.69-.07-.83-.15-1.68-.58-2.47v-.1c0-.07 0-.16-.03-.25-.03-.1-.05-.2-.07-.3-.07-.3-.14-.6-.32-.87-.42-.63-.91-1.25-1.5-1.91-.42-.47-.88-.96-1.42-1.31-.92-.61-2.01-.76-3.43-.47-1.77.37-3.59.92-4.85 2.53-.12.15-.24.3-.37.45-.15.19-.31.37-.46.56-.32.41-.64.83-.93 1.26-.29.42-.62.92-.94 1.45-.31.52-.62 1.09-1.01 1.85-.2.38-.38.77-.55 1.16l-.1.23c-.06.13-.12.26-.18.38-.17.34-.34.69-.45 1.06-.4 1.33-.8 2.77-1.24 4.42l-.09.33c-.15.56-.31 1.13-.31 1.72 0 .64-.05 1.3-.1 1.94-.1 1.24-.2 2.51.1 3.8.07.32.12.65.17.97.03.16.05.32.08.48 0 .04.02.08.03.12 0 .03.02.07.02.08 0 .13 0 .27.01.4 0 .3 0 .61.08.92.15.68.38 1.34.59 1.99l.2.62c.18.59.38 1.19.66 1.75.3.58.68 1.13 1.05 1.65.12.16.23.33.35.49 1 1.45 1.98 2.39 3.1 2.94 1.53.77 3.19 1.5 5.09 1.29 1.88-.21 3.36-.67 4.69-1.44.29-.17.58-.31.88-.43.07-.03.14-.05.2-.07.29-.09.67-.2.84-.66.49-.03.77-.34 1-.6.05-.05.09-.11.14-.16l.61-.63.86-.89c1.56-1.56 2.63-2.87 3.5-4.25.17-.28.36-.55.54-.82.31-.47.64-.95.92-1.46.41-.75.78-1.54 1.14-2.3l.52-1.11c.22-.46.46-.94.63-1.44.11-.3.17-.61.23-.91.04-.22.09-.44.15-.66.14-.47.29-.94.44-1.41.21-.66.42-1.32.6-1.98.11-.42.17-.86.23-1.28.03-.2.05-.4.08-.6.02-.13.05-.27.09-.38.04-.1.09-.21.14-.31.11-.22.21-.44.25-.7.04-.27.05-.54.05-.8s.01-.51.05-.75c.05-.27.13-.54.22-.83.08-.27.17-.54.22-.82.1-.51.14-1.03.19-1.54l.02-.18c.03-.33.05-.66.07-.99.03-.5.06-.99.12-1.49.03-.26.09-.51.16-.77.07-.28.14-.57.17-.87.08-.74.11-1.49.14-2.21l.02-.38c0-.16 0-.32-.02-.49 0-.11-.02-.22-.02-.33v-.75c0-.43.01-.86 0-1.28-.05-.91-.14-1.84-.23-2.78-.02-.21-.05-.42-.07-.63.43.11.86.23 1.28.33l.13.03c.3.08.64.17.93.04.38-.17.78-.13 1.19-.09.17.02.34.03.51.04.53.01 1.05.03 1.58.05 1.12.04 2.27.08 3.41.07.85-.01 1.71-.09 2.55-.18.4-.04.79-.08 1.19-.11.18-.01.6-.05.69.04.1.09.13.51.14.73.09 1.4.2 2.93.36 4.8.06.7.15 1.39.23 2.09l.09.74c.02.21.06.41.1.61l.18.77c.18.8.37 1.6.57 2.39.18.69.35 1.39.52 2.08.45 1.85.92 3.75 1.49 5.6.12.39.24.79.35 1.19.56 1.91 1.14 3.89 2.23 5.66.1.16.16.34.23.54l.04.12c.37.99.83 1.91 1.2 2.59.85 1.6 1.95 3 3 4.29 2.4 2.96 4.66 5 7.11 6.4.77.44 1.62.87 2.61 1.32.52.23 1.07.39 1.58.46.38.05.77.06 1.15.07.33 0 .67.01 1 .05.1.01.23.08.36.14.17.09.36.18.56.2h.16c.63-.1 1.24-.11 1.9-.12.9-.02 1.83-.04 2.76-.28l.5-.13c.96-.25 1.95-.51 2.86-1.03.17-.1.34-.22.5-.35.25-.19.48-.37.7-.4.59-.09.95-.42 1.27-.71.08-.08.16-.15.25-.22.15-.13.28-.27.42-.42.14-.15.26-.29.41-.4 1.34-1.01 2.4-1.98 3.34-3.06 1.12-1.29 2.07-2.59 2.89-3.98.17-.29.31-.6.45-.9.12-.26.24-.53.38-.78.16-.29.35-.56.54-.84.47-.69.96-1.41 1.1-2.33.02-.1.1-.23.19-.36.07-.1.14-.21.2-.32l.07-.14c.15-.3.32-.62.43-.96.16-.46.3-.92.45-1.39.15-.5.31-.99.48-1.48.12-.35.26-.69.4-1.03.24-.59.49-1.2.64-1.84.17-.74.35-1.48.53-2.22.57-2.32 1.15-4.73 1.36-7.18.08-.93.21-1.87.33-2.79.15-1.09.3-2.21.38-3.33.13-1.98.17-4.12.13-6.46.33-.16.67-.3 1-.47.37-.19.73-.47 1.1-.67.33-.18.7-.24 1-.45.59-.41 1.26-.56 1.79-1.12.15-.15.39-.2.58-.31.29-.16.58-.35.87-.51.26-.14.53-.26.8-.39.09-.04.18-.06.26-.12.54-.38 1.07-.77 1.61-1.15.58-.41 1.16-.8 1.78-1.15.73-.42 1.4-1.08 2.1-1.63.24-.19.49-.37.75-.5.71-.36 1.26-.95 1.86-1.5.57-.52 1.22-.92 1.83-1.39.43-.33.84-.7 1.27-1.05.26-.22.53-.41.78-.64.5-.47.99-.95 1.5-1.41.2-.18.45-.28.65-.46.26-.23.5-.51.75-.76 1.71-1.67 3.42-3.33 5.1-5.04 1.01-1.02 1.84-2.22 2.95-3.13.12-.1.21-.25.32-.37.37-.4.77-.78 1.11-1.2.59-.72 1.16-1.47 1.72-2.21.38-.5.76-.99 1.11-1.51.52-.78 1.18-1.43 1.77-2.14.56-.68.99-1.46 1.51-2.17.38-.53.81-1.02 1.22-1.53.1-.13.24-.27.28-.4.2-.7.79-1.23 1.13-1.87.19-.36.39-.71.61-1.06.16-.25.36-.47.52-.71.51-.78.99-1.57 1.52-2.34.2-.29.32-.53.39-.85.06-.26.4-.52.58-.8.2-.32.35-.66.53-1 .48-.94.97-1.88 1.45-2.82.05-.09.11-.17.15-.26.27-.71.53-1.43.79-2.14.07-.18.13-.38.16-.56.09-.65.36-1.23.8-1.81.16-.22.22-.51.32-.77.13-.34.33-.7.34-1.01.02-.39.32-.69.41-1.02.17-.58.15-1.16.35-1.73.27-.75.26-1.42.28-2.11.01-.34.16-.72.17-1.06.03-1.05 0-2.09.02-3.14 0-.33.12-.7.07-1-.14-.79-.32-1.55-.53-2.3-.1-.38 0-.73.28-1.1.18-.24.39-.46.58-.68.07-.08.17-.16.19-.24.23-.79.96-1.19 1.43-1.8.17-.22.39-.41.56-.63 1.14-1.44 2.21-2.93 3.42-4.3 1.27-1.43 2.33-2.96 3.35-4.54.62-.95 1.23-1.91 1.84-2.87.06-.09.11-.18.14-.27.4-1.09 1.09-2.07 1.72-3.08.27-.44.5-.9.7-1.35.45-1.01.85-2.03 1.29-3.04.3-.69.69-1.37.93-2.06.26-.76.4-1.52.6-2.28.18-.68.44-1.36.38-2.01 0-.09.03-.21.07-.32.37-.87.49-1.71.47-2.53-.01-.72.04-1.48-.03-2.17-.12-1.12-.23-2.25-.51-3.27-.2-.74-.68-1.32-1.03-1.98-.15-.28-.18-.3-.38-.59-.05-.07-.2-.28-.26-.34-.08-.07-.24-.22-.37-.34-.54-.61-1.98-1.84-2.77-2.05-1.04-.28-2.16.16-2.95.89-.76.7-1.28 1.66-1.43 2.68-.01.08 0 .15-.01.22-.11.98.03 1.91-.41 2.82-.23.48-.64.89-.88 1.36-.17.33-.39 1.48-.63 1.66 1.38-1.05 2.49-2.45 3.23-4.02.02-.05.06-.09.08-.14.03-.07.06-.13.08-.2.03-.07.06-.13.08-.2.26-.63.5-1.27.85-1.85.42-.71 1.05-1.35 1.85-1.55.73-.18 1.55.36 2.15.95.51.45.75 1.05.94 1.47.38.85.64 1.79.98 2.67.29.76.42 1.6.39 2.48-.05 1.33-.01 2.64-.46 4.05-.15.48-.14.96-.3 1.43-.59 1.68-1.23 3.36-1.84 5.04-.6 1.63-1.4 3.23-2.23 4.8-.69 1.3-1.53 2.55-2.3 3.82-.34.56-.67 1.14-1.05 1.69-.89 1.29-1.81 2.57-2.32 3.29-1.61 2.04-2.77 3.56-3.99 5.03-.8.96-1.68 1.85-2.55 2.75-.45.47-.8.46-1.12-.05-.79-1.27-2.06-1.9-3.35-2.53-1.12-.55-2.41-.68-3.73-.72-1.02-.03-2.1.14-3.19.5-.48.16-.96.18-1.44.34-.63.2-1.26.47-1.89.72-.8.32-1.6.63-2.39 1-.98.46-1.97.91-2.91 1.49-1.12.68-2.19 1.5-3.28 2.25-.31.21-.64.37-.95.58-.27.18-.54.38-.8.6-.41.35-.82.71-1.23 1.07-.79.7-1.63 1.35-2.38 2.1a94.901 94.901 0 0 0-3.89 4.13c-1.15 1.3-2.29 2.63-3.3 4.04-.95 1.33-2.02 2.61-2.72 4.09-.34.71-.85 1.37-1.23 2.08-.66 1.23-1.39 2.44-1.78 3.74-.1.35-.42.7-.62 1.05-.13.22-.28.46-.33.69-.28 1.14-.5 2.27-.81 3.41-.21.78-.7 1.39-1.47 1.84-.48.28-.9.79-1.34 1.19-.7.63-1.4 1.26-2.1 1.9-.84.78-1.81 1.37-2.57 2.29-.37.45-.88.79-1.31 1.19-.29.27-.57.56-.84.86-.3.33-.6.68-.9 1.02-.2-.59-.36-1.04-.4-1-.16-.52-.31-1.04-.49-1.55-.49-1.33-1.07-2.65-1.62-3.93l-.19-.43c-.25-.58-.25-1.03 0-1.51.27-.5.49-.99.66-1.47.22-.61.44-1.22.67-1.83.91-2.48 1.86-5.04 2.4-7.7.22-1.07.49-2.15.75-3.2.34-1.35.69-2.75.93-4.16.23-1.36.3-2.77.38-4.13.03-.64.07-1.28.12-1.92.02-.3.06-.6.09-.9.03-.28.07-.56.09-.85l.05-.5c.05-.58.11-1.17.1-1.77 0-.65-.04-1.3-.07-1.96-.05-1.06-.1-2.15-.05-3.21.09-1.69-.08-3.36-.25-4.98-.07-.63-.13-1.26-.18-1.89-.08-.95-.29-1.9-.49-2.81-.09-.41-.18-.82-.26-1.24-.12-.64-.24-1.29-.35-1.94-.26-1.45-.52-2.95-.89-4.4-.53-2.04-1.18-4.08-1.82-6.05l-.44-1.37c-.24-.74-.5-1.47-.77-2.2-.19-.53-.39-1.06-.57-1.6-.36-1.06-.71-2.12-1.06-3.18-.45-1.36-.91-2.72-1.37-4.07-1.02-2.97-2.07-5.92-3.12-8.88-.11-.31-.07-.5.16-.74l.18-.18c1.17-1.17 2.39-2.38 3.39-3.77.31-.43.67-.84 1.02-1.24.44-.5.88-1.01 1.26-1.58.38-.59.82-1.16 1.23-1.71.74-.98 1.5-1.99 2.06-3.15.36-.76.83-1.49 1.28-2.19.37-.58.76-1.19 1.09-1.81l.12-.23c.97-1.83 1.98-3.72 2.78-5.66 1.02-2.46 2.17-5.37 3.04-8.31.83-2.81 1.55-5.71 2.24-8.51.28-1.12.55-2.24.84-3.35.06-.22.06-.44.07-.65v-.19c.03-.33.04-.66.04-.99.01-.72.03-1.41.18-2.06.3-1.26.35-2.55.4-3.79.01-.31.02-.62.04-.93.11-2.06.14-4.48-.49-6.92l-.03-.12c-.08-.29-.15-.6-.19-.89-.34-2.84-1.6-5.13-3.73-6.82Zm-56.44 29.13c.4-.73.76-1.49 1.21-2.18.76-1.15 1.55-2.28 2.37-3.37.14-.18.47-.16.72-.23-.03.28 0 .61-.11.82-.23.41-.55.75-.84 1.11-1.09 1.4-2.19 2.79-3.28 4.19l-.11-.1c.01-.08 0-.18.04-.25Zm-10.87 32.36c-.8-2.45-1.15-5.08-1.05-7.82.04-1.02.08-2.17.29-3.26.45-2.29.86-4.18 1.82-5.98.25-.47.47-.94.69-1.42.32-.69.65-1.39 1.04-2.03.56-.91 1.21-1.78 1.85-2.63.25-.33.49-.66.74-.99l.15-.21c.19-.27.37-.53.6-.72.18-.15.37-.3.56-.45-.05.22-.07.48-.13.7.07 0 .13 0 .21.02-.06.29-.12.55-.18.83 0 .75-.16 1.4-.43 1.94-.15.65-.29 1.29-.41 1.94-.12.67-.16 1.35-.26 2.03-.1.76-.25 1.51-.34 2.27-.12 1.04-.18 2.09-.3 3.13-.16 1.39-.36 2.78-.55 4.17-.12.85-.24 1.7-.38 2.54-.13.75-.29 1.49-.43 2.24-.15.81-.24 1.64-.43 2.44-.23.99-.52 1.96-.79 2.94-.18.65-.42 1.28-.62 1.92-.67-1.19-1.25-2.4-1.64-3.61Zm-18.91 27.27c-1.28.12-2.57.1-3.85.24-1.33.15-2.47-.46-3.69-.81-2.05-.58-3.75-1.95-5.52-3.16-.32-.22-.62-.5-.85-.83-.94-1.35-1.94-2.65-2.65-4.22-.38-.84-.83-1.63-1.16-2.49-.32-.84-.55-1.74-.78-2.63-.02-.08-.03-.18-.03-.28l-.17-.41c-.21-.46-.31-.95-.31-1.46-.07-.49-.03-.98.1-1.45.07-.31.18-.59.32-.84-.01-.79-.02-1.58-.02-2.38-.03 0-.05.01-.08.02.12-.93.18-1.77.36-2.58.18-.85.53-1.65.72-2.5.33-1.5.82-2.9 1.63-4.15.64-.99 1.2-2.08 1.95-2.93.91-1.03 1.96-1.9 3-2.76a7.754 7.754 0 0 1 4.1-1.77c.75-.09 1.52-.42 2.24-.33 1.44.18 2.75.72 3.79 1.76.22.1.43.22.61.39 1.38 1.29 1.99 2.55 2.5 4.61.02.06.02.12.03.19h.02c.3 1.37.62 2.63.83 3.92.24 1.42.42 2.86.53 4.3.09 1.16.09 2.34.07 3.51-.02 1.02-.13 2.05-.21 3.08-.09 1.15-.16 2.3-.28 3.45-.08.78-.24 1.56-.36 2.33-.2 1.28-.39 2.56-.62 3.83-.14.75-.43 1.48-.51 2.23-.13 1.29-.61 2.43-1.07 3.58-.1.26-.44.53-.67.55Zm-121.2 149.3c-.49-.04-.98-.23-1.5-.42-.28-.1-.56-.21-.84-.29-.21-.06-.42-.11-.63-.15-.3-.06-.58-.12-.83-.23-.38-.15-.75-.34-1.11-.52-.29-.15-.59-.29-.89-.43-.17-.08-.36-.12-.55-.17-.18-.05-.36-.09-.51-.16-.68-.36-1.35-.75-2.02-1.13l-.92-.53c-.43-.24-.88-.5-1.29-.77-.17-.11-.32-.28-.48-.45-.07-.07-.14-.15-.21-.22-.06-.05-.1-.11-.15-.17l-.36-.39c-.26-.29-.52-.57-.79-.86-.12-.12-.26-.28-.45-.35-.91-.37-1.48-1.12-2.13-1.97-.21-.28-.46-.54-.69-.79-.19-.21-.39-.41-.56-.63l-.45-.54c-.53-.62-1.02-1.2-1.34-1.94-.25-.56-.58-1.08-.9-1.59-.22-.35-.44-.69-.63-1.05-.24-.45-.44-.93-.63-1.4l-.24-.57-.03-.07c-.12-.28-.24-.57-.35-.86-.1-.3-.2-.61-.3-.91-.07-.23-.15-.46-.22-.68-.03-.1-.06-.21-.08-.32-.08-.33-.16-.71-.52-1.03-.05-.04-.08-.27-.1-.39-.01-.09-.03-.18-.04-.26-.33-1.49-.57-3.1-.73-5.08-.12-1.45-.11-2.85.04-4.28.04-.43.04-.86.04-1.28 0-.3 0-.61.02-.91.02-.43.09-.88.19-1.33.3-1.34.57-2.44.85-3.48.03-.11.06-.23.09-.35.1-.43.21-.88.44-1.16.4-.47.57-1.01.73-1.53.14-.44.27-.86.53-1.21.28-.38.51-.78.73-1.18.17-.31.35-.64.56-.93.58-.86 1.21-1.76 1.92-2.58 1.39-1.62 2.66-3.07 4.03-4.45 1.02-1.03 2.17-1.92 3.39-2.66.33-.2.64-.42.95-.65.47-.34.92-.66 1.43-.9 1.14-.53 2.28-1.04 3.42-1.56l.75-.34c.23-.1.45-.21.68-.32.55-.27 1.07-.52 1.62-.67.37-.1.74-.21 1.11-.33.9-.28 1.84-.56 2.8-.65.43-.04.86-.13 1.28-.21.64-.13 1.24-.24 1.85-.23.63.02 1.25.06 1.88.1l1.52.09c.07 0 .13 0 .2.01 1.02.08 1.96.44 2.95.82.25.1.5.19.76.28.18.06.35.2.54.34.1.07.19.15.29.22h.01c.41.26.4.49.17 1.11-.3.82-.57 1.64-.85 2.47-.18.54-.36 1.08-.55 1.62-.09.27-.2.53-.31.79-.14.33-.28.66-.39 1-.35 1.09-.65 2.2-.92 3.19-.13.49-.27.98-.41 1.46-.37 1.34-.76 2.72-1.08 4.09-.43 1.88-.82 3.8-1.19 5.66l-.4 1.98c-.19.94-.39 1.91-.55 2.89-.08.52-.15 1.04-.21 1.55l-.12.97-.18 1.28c-.11.7-.21 1.4-.3 2.1-.09.75-.16 1.49-.24 2.24-.04.46-.09.91-.14 1.37-.03.27-.06.49-.13.7-.25.79-.25 1.59-.26 2.36 0 .21 0 .42-.01.63-.02.74-.08 1.5-.14 2.22-.05.6-.1 1.19-.13 1.79-.02.42 0 .84 0 1.26 0 .35.02.7 0 1.04-.01.43-.04.87-.07 1.3-.04.62-.09 1.26-.08 1.89.02 1.99.08 4.12.18 6.71.02.49.08.98.13 1.46.05.38.09.76.12 1.14.02.28-.01.45-.08.53-.07.07-.24.11-.51.1l-.7-.02c-1.56-.03-3.17-.06-4.75-.21Zm38.86 53.01c-.52-.12-1.04-.3-1.54-.47l-.56-.19a5.8 5.8 0 0 1-.73-.28c-.36-.18-.71-.36-1.07-.54-.59-.31-1.2-.62-1.82-.9-.97-.44-1.78-1.07-2.64-1.75-.57-.45-1.16-.91-1.79-1.3-.89-.55-1.73-1.22-2.51-1.98-.74-.73-1.44-1.53-2.11-2.3-.28-.33-.57-.65-.86-.97l-.13-.15c-.56-.62-1.11-1.24-1.66-1.87-.13-.15-.26-.33-.4-.54-.73-1.14-1.45-2.27-2.17-3.42-.03-.05-.06-.12-.09-.2-.03-.09-.06-.17-.11-.25l-.74-1.38c-.52-.97-1.04-1.94-1.54-2.91l-.05-.09c-.24-.46-.47-.9-.59-1.41-.11-.43-.33-.82-.55-1.19a5.8 5.8 0 0 1-.39-.73l-.26-.62c-.5-1.18-1.01-2.39-1.4-3.62-.89-2.81-1.72-5.69-2.53-8.48l-.22-.76c-.71-2.46-1.13-4.93-1.45-7.03-.11-.72-.25-1.44-.39-2.16-.11-.57-.22-1.15-.32-1.73-.1-.63-.16-1.26-.17-1.88 0-.12 0-.25.47-.3l.2-.02c.61-.05 1.24-.11 1.85-.26.94-.23 1.88-.52 2.79-.8l1.05-.32c.81-.24 1.65-.49 2.46-.8.41-.15.81-.35 1.19-.55.25-.13.51-.26.77-.38.34-.15.69-.29 1.04-.43.45-.18.91-.37 1.35-.57.67-.31 1.32-.65 1.98-.99l.33-.17c.03.22.17.4.26.51.04.05.08.11.11.16.05.08.06.12.06.12-.05 1.24.28 2.4.61 3.56.03.12.09.31.06.4-.17.67 0 1.27.17 1.84.04.15.09.29.12.44l.06.24c.12.5.25 1.01.42 1.51.32.97.66 1.93 1.01 2.86.29.77.65 1.69 1.06 2.58.29.63.62 1.25.94 1.85l.33.62c.07.13.16.24.28.39l.34.42c.29.36.58.72.89 1.06.28.3.57.58.87.86l.36.34c.16.16.32.31.49.46.35.33.72.67 1.04 1.03.45.5 1 .76 1.54 1.01l.2.09c.18.09.37.19.55.28.36.2.74.4 1.15.53.7.21 1.47.34 2.2.38.93.05 1.81.01 2.62-.1 1.33-.19 2.44-.59 3.4-1.23.21-.14.43-.25.66-.37.2-.1.4-.2.58-.32.31-.18.62-.41.95-.69.28-.23.54-.47.81-.71l1.23-1.1c.77-.68 1.54-1.36 2.29-2.06.21-.19.37-.41.52-.63l.16-.22c.21-.28.42-.55.64-.82.52-.66 1.05-1.34 1.52-2.05.33-.5.6-1.05.85-1.57.16-.32.31-.64.48-.95.72-1.3 1.28-2.68 1.84-4.02.17-.4.33-.8.5-1.21.05-.13.07-.26.08-.37 0-.08.02-.15.04-.2.05-.15.11-.29.17-.43l.06 1.33c.03.75.07 1.49.11 2.24.04.57.09 1.14.14 1.71.05.49.09.99.13 1.48.05.64.07 1.29.09 1.93l.08 2.15.09 2.33c.01.26.07.51.13.73.25.92.16 1.59-.28 2.25-.35.52-.61 1.11-.85 1.67-.11.25-.22.5-.34.75l-.39.79c-.27.55-.54 1.1-.79 1.66-.12.26-.21.54-.31.81-.08.25-.17.49-.27.73-.3.69-.62 1.36-.93 2.05-.21.45-.42.9-.62 1.35-.23.51-.45 1.02-.68 1.53l-.36.82c-.16.37-.32.74-.47 1.11-.35.84-.7 1.71-1.17 2.48-.3.49-.48 1.01-.66 1.51-.13.37-.26.73-.43 1.07-.09.19-.19.37-.29.56-.17.32-.34.64-.48.97-.23.52-.44 1.05-.66 1.57-.21.51-.41 1.02-.63 1.52-.18.41-.37.82-.56 1.23-.22.46-.43.92-.63 1.38-.28.65-.52 1.31-.77 1.97l-.3.79c-.03.07-.05.15-.07.23-.03.08-.05.17-.09.25-.14.3-.29.61-.43.91-.24.49-.48.99-.7 1.49-.12.26-.21.54-.31.81-.06.18-.12.37-.19.55-.14.36-.28.71-.43 1.06-.19.45-.37.91-.54 1.37-.18.47-.33.95-.46 1.45-.07.26-.17.38-.54.28-.54-.13-1.09-.24-1.64-.34-.57-.11-1.15-.23-1.71-.36Zm21.74-1.15c.03.09.06.17.07.24.08.84.1 1.71.12 2.56v.43c.02.36 0 .75-.03 1.27-.02.26-.05.52-.07.78-.04.38-.08.76-.1 1.14-.01.24.01.48.04.72.02.2.04.39.03.59-.02.92-.05 1.69-.11 2.41-.12 1.46-.29 3.39-.5 5.36-.06.54-.14 1.07-.22 1.61-.08.49-.15.98-.21 1.47-.05.42-.08.85-.11 1.27-.03.47-.06.94-.12 1.41-.06.49-.17.99-.28 1.47l-.12.53c-.05.25-.11.51-.17.76-.09.4-.18.8-.25 1.2-.08.4-.14.8-.21 1.2-.11.64-.22 1.3-.36 1.93-.17.74-.4 1.5-.62 2.22l-.19.63c-.2.69-.42 1.37-.63 2.05l-.33 1.06c-.26.83-.52 1.67-.8 2.49-.11.33-.25.65-.39.98-.07.17-.15.35-.22.52-.05.13-.1.27-.15.4-.08.21-.16.42-.25.63l-.2.46c-.37.86-.72 1.67-1.26 2.41-.33.46-.61.95-.89 1.42-.19.33-.39.67-.6.99-.4.62-.86 1.23-1.25 1.75-.47.63-.96 1.24-1.44 1.86s-.1-.09-.1-.09l-.21.22-.54.57c-.41.43-.82.88-1.26 1.28-.58.53-1.17.99-1.75 1.37-.91.59-1.9 1.15-3.05 1.28-.18.02-.36.02-.54.02h-.19c-.24 0-.48.01-.72.02-.55.02-1.12.05-1.66-.01-.62-.06-1.07-.54-1.51-1.07a8.17 8.17 0 0 1-1.07-1.61c-.18-.37-.29-.78-.41-1.21-.04-.16-.09-.33-.13-.49l-.14-.44c-.14-.44-.27-.85-.34-1.27l-.04-.22c-.18-.98-.36-2-.43-3-.09-1.38-.09-2.76-.08-4.4 0-.45.07-.9.14-1.37l.09-.65c0-.08.02-.15.03-.23.03-.19.07-.39.05-.61-.1-1.08.1-2.18.28-3.24l.12-.71c.12-.72.29-1.46.46-2.16.12-.5.24-1.01.34-1.51.06-.31.1-.63.13-.95.04-.38.08-.74.16-1.08.6-2.46 1.1-4.34 1.6-6.11.25-.86.53-1.73.81-2.57.19-.57.38-1.15.56-1.73.14-.45.26-.9.39-1.36.13-.49.27-.97.42-1.46.37-1.17.81-2.53 1.3-3.84.52-1.39 1.08-2.78 1.62-4.14l.31-.78c.13-.32.27-.63.42-.95l.1-.2c.98.2 2.02.18 3.26-.07.25-.05.51-.07.77-.09.13-.01.26-.02.39-.04l.95-.1c.78-.08 1.56-.16 2.33-.28.31-.05.59-.15.86-.25.15-.06.29-.11.44-.15.37-.11.74-.21 1.11-.32.7-.2 1.39-.4 2.07-.63.32-.11.63-.27.92-.42.22-.12.44-.23.67-.32.24-.1.49-.17.74-.24.3-.09.61-.18.91-.31.23-.1.4-.26.57-.41.08-.08.17-.16.26-.22.09-.07.2-.13.31-.19 0 .2.06.37.11.51Zm.08-9.89c.01.52.03 1.04.06 1.56.03.76.07 1.53.07 2.29 0 1.06-.09 2.14-.18 3.14 0 .09-.09.22-.19.37-.04.07-.09.14-.14.22l-2.48 1.18c-.2.09-.41.19-.61.28l-.21.12c-.06.04-.12.07-.18.1l-.3.14c-.57.26-1.13.51-1.7.75-.15.06-.32.1-.5.13-.1.02-.2.04-.29.07l-1.17.3c-.92.24-1.87.49-2.82.68-.3.06-.62.06-.96.06-.26 0-.51 0-.76.02-.57.06-1.14.13-1.71.2-.51.06-1.02.13-1.53.18-.2.02-.32 0-.38 0 0-.07.02-.19.07-.35l.09-.31c.24-.81.49-1.65.78-2.46.12-.33.28-.64.44-.96.15-.29.3-.58.42-.89.17-.42.32-.85.47-1.28.18-.52.37-1.06.59-1.56.38-.87.78-1.73 1.18-2.59.34-.73.68-1.46 1.01-2.2.22-.5.42-1 .61-1.51.18-.47.36-.94.57-1.4.26-.6.54-1.18.82-1.77.21-.44.42-.88.63-1.33.19-.42.37-.85.55-1.28.1-.24.2-.48.3-.71l.26-.61c.41-.96.82-1.92 1.24-2.88.61-1.39 1.16-2.64 1.74-3.87.09-.2.22-.39.35-.59.14-.22.3-.44.41-.69.24-.52.45-1.05.67-1.58.17-.42.35-.84.53-1.26.11-.26.25-.52.38-.77.14-.28.29-.56.41-.85.09-.21.14-.42.2-.62l.06 1.27c.05 1 .09 2.03.18 3.05.06.7.17 1.41.28 2.09.07.45.14.9.2 1.35.03.23.03.47.03.72v.54c.03.58.06 1.16.1 1.75.04.62.07 1.23.11 1.85l.05.87c.07 1.27.14 2.55.18 3.82.03.98.04 1.97.06 2.95 0 .76.02 1.53.04 2.29Zm27.81-102.37c-.03.71.04 1.42.12 2.1l.05.49.06.76c.06.78.13 1.59.32 2.37.29 1.15.37 2.34.45 3.5l.4 5.69c.07.98.14 1.96.23 2.94.08.77.17 1.54.27 2.31.07.54.14 1.07.2 1.61.13 1.18.27 2.4.37 3.61.09 1.09.15 2.19.21 3.29l.05.88s0 .12-.02.19c-.02.16-.06.35.03.54.2.43.16.89.11 1.38-.03.3-.06.6-.03.91l.09 1.06c.05.49.09.99.12 1.48 0 .15-.05.34-.14.52-.24.45-.22.88.08 1.31.08.12.14.28.14.41.03 1.01.05 2.03.06 3.05v1.29c.02 1.36.04 2.76 0 4.14-.05 2.22-.13 4.54-.26 7.1-.03.55-.1 1.12-.18 1.67-.05.35-.1.71-.13 1.06-.06.53-.1 1.07-.15 1.6-.05.62-.11 1.24-.18 1.86-.05.42-.11.84-.17 1.27-.12.79-.24 1.6-.25 2.41 0 1-.23 1.93-.47 2.91-.08.34-.16.68-.24 1.03-.11.51-.19 1.02-.27 1.53-.07.42-.14.84-.22 1.26-.03.17-.1.34-.16.51-.06.17-.13.33-.17.5-.07.29-.13.57-.19.86-.09.42-.18.86-.31 1.27a54.7 54.7 0 0 1-1.12 3.24c-.16.43-.33.85-.51 1.27-.19.45-.37.9-.54 1.35-.12.34-.2.68-.28 1.02l-.12.5c0 .03-.03.07-.08.17-.16.32-.31.65-.47.97-.35.75-.72 1.53-1.17 2.23-.3.47-.48.97-.65 1.45-.07.2-.14.4-.22.6-.05.14-.15.27-.25.41l-.1.14c-.23.35-.48.69-.72 1.03-.56.78-1.13 1.59-1.58 2.45-.51.98-1.11 1.84-1.69 2.63-.14.19-.24.39-.33.58-.09.18-.17.34-.27.49l-.65.9c-.96 1.32-1.94 2.69-2.97 3.99-.74.94-1.6 1.79-2.34 2.5-1.25 1.19-2.58 2.45-3.96 3.58-.29.24-.6.46-.91.68-.63.45-1.29.92-1.81 1.56 0-.07 0-.14.01-.22.03-.53.06-1.07.06-1.6 0-.21-.04-.41-.08-.6-.04-.17-.07-.33-.06-.47.01-.47.04-.93.07-1.39.03-.49.06-.98.08-1.47 0-.33-.05-.65-.1-.96-.02-.11-.04-.21-.05-.32-.11-.72-.18-1.42.09-2.09.09-.23.06-.48.02-.7l-.02-.15-.12-1.12c-.08-.72-.17-1.45-.21-2.18-.03-.61-.04-1.23-.04-1.84 0-.64 0-1.3-.04-1.95-.09-1.48-.2-2.96-.32-4.44l-.23-3.21c-.07-1.01-.13-2.01-.22-3.02-.03-.31-.07-.62-.11-.94-.07-.49-.13-.95-.13-1.41.02-1.48-.15-2.87-.38-4.54-.12-.91.02-1.81.43-2.69.29-.64.56-1.28.83-1.93l.22-.53c.17-.4.33-.81.5-1.21.25-.62.51-1.25.77-1.86l.3-.72c.32-.76.65-1.56 1.06-2.27.34-.59.51-1.21.68-1.82.12-.44.24-.85.41-1.25.14-.32.31-.62.49-.94.16-.28.32-.57.46-.86.12-.25.2-.52.28-.78.06-.2.12-.4.2-.59.14-.33.28-.65.43-.97.2-.44.41-.89.58-1.34.17-.44.29-.89.42-1.33.07-.25.14-.5.22-.75.05-.17.13-.34.2-.51l.06-.13c.09-.21.18-.41.28-.61.18-.4.37-.81.52-1.23.37-.99.72-1.99 1.07-2.99l.72-2.04c0-.02.02-.04.04-.07l.19.24c.29.37.57.72.85 1.07.88 1.06 1.45 2.28 1.96 3.44.23.52.28 1.02.16 1.51-.19.8.48 1.04.77 1.14.23.08.39.03.49-.03.23-.13.29-.4.33-.59 0-.05.02-.09.03-.13.06-.19.1-.39.14-.58.03-.16.06-.32.11-.48.02-.07.07-.15.11-.24.05-.09.11-.19.14-.29.06-.16.1-.34.12-.56.01-.14.03-.29.05-.43.05-.39.11-.78.04-1.18-.05-.29-.06-.59-.08-.9-.02-.57-.05-1.17-.32-1.78-.41-.91-.93-1.8-1.67-2.87-.4-.57-.86-1.01-1.32-1.43l-.23-.21c-.21-.19-.24-.27-.12-.58.44-1.14.84-2.33 1.23-3.47l.75-2.17c.27-.76.55-1.54.79-2.33.09-.3.13-.61.17-.91.04-.28.07-.55.15-.8.27-.9.57-1.79.87-2.67l.47-1.4c.09-.27.18-.55.26-.83.25-.87.49-1.75.73-2.62l.56-2.02.33-1.14.54-1.85c.3-1.02.59-2.04.88-3.06.17-.61.33-1.22.49-1.84.12-.47.25-.94.38-1.41l.04-.14c.09-.33.17-.64.31-.93.7-1.51 1.07-3.11 1.42-4.75.24-1.16.57-2.27.89-3.28.09-.3.13-.61.15-.9l.03-.28c.22.34.31.74.29 1.29Zm-1.6-23.5c.02.36.05.72.08 1.08.04.51.08 1.02.1 1.54.09 2.56.17 5.12.26 7.69l.06 1.83c.02.46.04.93 0 1.38-.03.49.07.94.16 1.38.06.26.11.52.14.79.09.96 0 2-.31 3.16-.1.39-.19.78-.29 1.18-.14.59-.28 1.18-.45 1.77-.16.56-.34 1.11-.52 1.66-.18.54-.35 1.08-.51 1.63-.1.36-.18.72-.25 1.09-.07.36-.15.72-.25 1.07-.26.87-.53 1.74-.81 2.61-.18.55-.35 1.11-.52 1.66-.08.25-.14.51-.2.77-.11.47-.22.91-.41 1.3-.33.67-.48 1.37-.48 2.18v.11c-.62.76-.85 1.65-1.07 2.51-.09.33-.17.67-.28.99-.18.54-.3 1.11-.42 1.66-.09.45-.19.92-.32 1.36-.2.65-.42 1.29-.64 1.94-.24.67-.48 1.36-.68 2.06-.19.65-.34 1.31-.48 1.96-.1.47-.21.93-.33 1.39-.05.19-.14.39-.23.59-.1.21-.19.42-.25.64-.1.36-.19.72-.27 1.08-.08.35-.16.69-.26 1.03-.18.62-.37 1.23-.57 1.84l-.63 1.99c-.3.96-.61 1.92-.9 2.88-.13.41-.23.46-.25.46 0 0-.11.02-.36-.18-.79-.62-1.45-1.2-1.53-2.09-.03-.39-.12-.76-.2-1.12-.14-.63-.28-1.22-.14-1.83.06-.24.02-.49-.02-.71-.01-.09-.03-.17-.03-.26l-.03-.29h-.29c-.86.01-1.12.29-1.13 1.19 0 .29-.01.58-.02.87-.02.63-.05 1.27.02 1.91l.03.28c.17 1.64.34 3.34 1.27 4.85.12.2.24.41.35.62.15.27.3.54.47.8.19.29.18.57-.02 1.04-.14.33-.3.65-.45.98-.22.47-.45.95-.65 1.45-.3.78-.59 1.56-.87 2.35-.21.59-.42 1.17-.64 1.76-.63 1.66-1.26 3.33-1.92 4.98-.42 1.06-.87 2.11-1.32 3.16l-.06.14c-.07.17-.17.33-.27.5l-.41.82.18-.03-.12.33c-.22.62-.44 1.25-.69 1.86-.34.83-.7 1.64-1.07 2.46l-.35.78c-.15.34-.31.68-.47 1.03-.25.54-.5 1.08-.73 1.63-.13.29-.25.51-.46.67.03-.3.05-.62.02-.93-.04-.37-.1-.74-.17-1.1-.06-.31-.12-.62-.15-.94-.05-.45-.08-.91-.11-1.37-.02-.33-.04-.66-.08-.99-.03-.34-.07-.68-.11-1.02-.05-.43-.1-.87-.14-1.3-.04-.55-.07-1.11-.1-1.66-.03-.57-.07-1.15-.11-1.72-.05-.57-.1-1.15-.16-1.72-.06-.58-.12-1.17-.16-1.75-.02-.26 0-.52 0-.8 0-.14.02-.28.02-.42v-.63c0-.44 0-.86.05-1.28l.06-.56c.16-1.46.34-2.97.84-4.39.25-.72.32-1.49.39-2.23.02-.19.03-.38.06-.56.15-1.4.3-2.77.37-4.16.05-.91-.03-1.8-.11-2.56-.08-.8-.24-1.6-.39-2.38l-.02-.1c-.08-.4-.23-.9-.83-1.33-.79-.56-.99-.61-1.77.08-.46.41-.92.83-1.36 1.26-.17.17-.24.43-.28.61-.04.19-.07.39-.1.58-.03.2-.06.39-.1.59-.14.64-.28 1.27-.43 1.91-.27 1.2-.55 2.4-.79 3.61-.12.62-.14 1.25-.15 1.87v.1c-.02.54-.02 1.07-.02 1.61 0 .56 0 1.11-.02 1.66-.01.51-.04 1.01-.07 1.52-.04.65-.07 1.3-.08 1.95 0 .44.05.88.1 1.31.03.23.05.46.07.69v.77c.04.45.08.91.13 1.36.09.96.19 1.95.21 2.93.02.66-.1 1.35-.21 2.02-.03.2-.07.39-.09.59-.08.54-.2 1.05-.34 1.51-.11.35-.25.69-.39 1.04-.09.22-.18.44-.26.66-.12.32-.23.64-.35.96-.17.48-.34.97-.53 1.44-.07.18-.17.35-.28.53-.09.14-.17.28-.24.43-.11.23-.21.45-.31.69-.16.35-.3.69-.48 1.01-.69 1.24-1.51 2.7-2.4 4.16-.22.35-.5.67-.81 1l-.78.87c-.52.59-1.05 1.21-1.62 1.75-1.12 1.08-2.06 1.9-2.96 2.58-.31.23-.71.36-1.14.49-.18.06-.36.11-.54.18-1.38.51-2.7.51-3.82-.01l-.26-.12c-1.14-.52-2.32-1.06-2.93-2.29-.18-.36-.45-.64-.71-.92-.22-.24-.44-.46-.58-.71-.15-.28-.36-.51-.55-.74-.34-.38-.62-.72-.67-1.2-.02-.24-.17-.4-.31-.55-.07-.08-.14-.16-.17-.22l-.28-.63c-.49-1.11-.99-2.26-1.42-3.41-.18-.48-.29-.98-.41-1.51-.07-.32-.14-.63-.23-.95-.06-.23-.15-.45-.23-.68-.08-.22-.17-.45-.23-.68l-.07-.28c-.36-1.38-.74-2.8-1.05-4.22-.12-.53-.19-1.1-.25-1.64-.02-.21-.05-.42-.07-.63-.09-.71-.18-1.42-.25-2.12v-.14c.35-.35.7-.67 1.06-.96.58-.48 1.18-.93 1.78-1.39.23-.18.47-.35.7-.52.4-.3.81-.6 1.2-.92.52-.43 1.02-.87 1.52-1.32.3-.27.61-.54.92-.81.22-.19.44-.37.66-.55.29-.24.58-.48.86-.72.23-.2.46-.39.69-.59.62-.51 1.26-1.05 1.75-1.7.24-.32.56-.59.89-.87.55-.46 1.12-.94 1.37-1.71.01-.02.05-.06.08-.08.05-.05.1-.09.14-.14l3.85-4.61c.23-.28.47-.56.69-.85l.38-.49c.41-.52.84-1.07 1.22-1.63.62-.92 1.23-1.86 1.84-2.8l.9-1.38c.13-.2.26-.39.4-.59.21-.3.41-.6.61-.92.63-1.03 1.28-2.09 1.9-3.18.18-.31.34-.63.5-.95.31-.62.6-1.21 1.01-1.75.33-.43.52-.93.7-1.42.1-.26.19-.52.31-.76.13-.28.28-.55.43-.82.17-.32.35-.63.5-.96.18-.41.35-.82.52-1.24.15-.39.31-.78.48-1.16.17-.37.35-.73.53-1.09.21-.42.42-.84.61-1.27.15-.35.27-.71.39-1.07.1-.31.21-.61.33-.91.25-.61.52-1.21.78-1.81.21-.48.43-.96.63-1.45.07-.17.12-.36.17-.54.02-.1.05-.21.08-.31.24-.77.48-1.53.74-2.29.03-.09.08-.17.12-.26.06-.12.14-.25.18-.4.25-.85.43-1.54.59-2.18.29-1.22.57-2.44.84-3.67.08-.38.15-.75.22-1.13.1-.54.2-1.1.34-1.64.1-.37.23-.75.36-1.12.2-.56.4-1.13.49-1.73.06-.41.17-.82.26-1.22.19-.78.39-1.59.34-2.46-.04-.73-.03-1.48-.02-2.2v-1.6c0-.46.02-.93-.01-1.4 0-.13-.01-.27-.02-.41-.02-.58-.04-1.19-.31-1.7-.14-.26-.19-.53-.24-.8-.03-.16-.06-.32-.1-.49-.2-.72-.46-1.43-.71-2.11l-.19-.52c-.08-.21-.21-.41-.37-.55l-.75-.67c-.8-.72-1.63-1.47-2.5-2.15-.51-.4-1.23-.55-1.72-.64l-.13-.02c-.86-.15-1.75-.3-2.63-.22-.85.08-1.69.3-2.51.5l-.85.21c-.98.23-1.79.78-2.57 1.31-.19.13-.38.26-.58.39-1.08.7-2.06 1.58-2.97 2.41-.9.82-1.73 1.72-2.57 2.64-.69.75-1.48 1.64-2.17 2.56-.4.53-.75 1.1-1.1 1.66-.23.37-.47.75-.71 1.11l-.2.29c-.36.53-.72 1.08-1.16 1.52-.65.66-1.03 1.43-1.39 2.23-.67 1.5-1.39 2.79-2.18 3.94-.27.39-.46.84-.64 1.26-.08.18-.15.36-.24.53l-.48.99c-.41.84-.83 1.72-1.21 2.59-.22.51-.42 1.04-.61 1.56-.16.43-.32.86-.49 1.28-.15.35-.31.69-.48 1.03-.2.41-.4.83-.57 1.26-.44 1.13-.96 2.48-1.39 3.84-.35 1.09-.66 2.2-.97 3.28-.15.52-.29 1.05-.45 1.57l-.33 1.11c-.16.52-.31 1.04-.46 1.56-.11.41-.22.82-.32 1.23-.19.79-.4 1.61-.69 2.37-.36.93-.52 1.9-.68 2.83-.12.72-.25 1.46-.46 2.16-.39 1.29-.65 2.59-.92 4.04-.27 1.4-.49 2.84-.71 4.22l-.12.74c-.24 1.5-.46 3.1-.46 4.75 0 .65-.1 1.33-.2 1.98-.05.32-.1.63-.14.97-.02.19-.05.39-.05.58v2.4c-.01 1.6-.02 3.2-.04 4.79 0 .52-.04 1.04-.08 1.56-.03.51-.07 1.02-.08 1.52 0 .34.04.68.09 1 .03.18.05.37.07.55.04.48-.1.73-.56.94-.72.33-1.42.74-2.1 1.13-.25.14-.5.29-.75.43s-.49.28-.74.42c-.42.24-.83.48-1.26.71-.15.08-.33.12-.52.17-.12.03-.23.06-.35.1l-1.08.36c-1.85.62-3.76 1.26-5.71 1.62-.54.1-1.07.22-1.6.34-.3.07-.6.13-.91.2l-.31-1.32c.28-.61.14-1.18.02-1.69-.07-.28-.13-.55-.12-.81.01-.51-.02-1.02-.05-1.51-.02-.31-.04-.61-.05-.92 0-.17 0-.34.02-.51.01-.17.03-.35.02-.52 0-.45-.01-.89-.02-1.34-.02-.73-.03-1.45-.02-2.18.01-.83.07-1.68.12-2.49l.05-.72c.03-.54.07-1.08.11-1.62.04-.64.09-1.27.12-1.91.03-.52.05-1.04.07-1.56.03-.65.06-1.31.1-1.96.1-1.56.23-3.13.35-4.69l.02-.25c.05-.63.11-1.26.19-1.89.03-.26.07-.53.19-.72.27-.45.27-.92.28-1.34 0-.15 0-.31.02-.46.14-1.27.28-2.31.47-3.29.17-.89.35-1.77.54-2.66.16-.77.33-1.53.48-2.3.12-.61.22-1.23.32-1.84.1-.6.19-1.2.31-1.79.03-.16.11-.32.19-.49.08-.17.16-.34.21-.52.39-1.37.77-2.75 1.15-4.13l.4-1.44c.11-.4.21-.81.31-1.21.22-.88.45-1.79.77-2.63.22-.58.38-1.18.54-1.76.3-1.08.58-2.1 1.18-3.01l.4.34c.43.36.87.73 1.25 1.14.27.29.5.63.75.98.14.21.28.41.43.61.01.02.28.35.59.32l-.28.09.37.58c.13.21.25.41.41.59.08.09.2.13.32.14.17.01.34-.03.35-.04l.22-.07.03-.2c.04-.28.08-.58.03-.88-.07-.37-.66-.4-.73-.4-.15 0-.28.04-.42.09-.04.02-.1.03-.15.05.22-.1.39-.36.41-.63.03-.27.08-.81-.51-1v-.02c-.03-.05-.06-.09-.09-.13l-.41-.5c-.32-.4-.65-.82-1.02-1.2-.2-.2-.43-.36-.66-.5a3.34 3.34 0 0 1-.51-.37c-.43-.4-.49-.77-.2-1.32.36-.7.61-1.45.85-2.18.13-.38.25-.76.39-1.13.06-.17.16-.33.25-.49.1-.18.2-.36.27-.54.15-.38.29-.77.43-1.16.18-.48.35-.96.55-1.43.31-.74.63-1.46.96-2.19.2-.44.4-.89.59-1.33.06-.15.12-.31.17-.46.06-.17.12-.33.19-.49.15-.32.31-.63.47-.94.17-.33.34-.65.5-.99.08-.16.13-.33.19-.51.05-.16.11-.32.18-.47.14-.28.32-.55.51-.83.33-.5.68-1.02.84-1.67.21-.82.66-1.5 1.15-2.23.12-.19.25-.37.37-.56.17-.27.28-.57.39-.85.08-.22.16-.43.26-.62.19-.36.42-.7.67-1.06.11-.16.22-.32.35-.52.08-.12.16-.24.23-.37.23-.41.46-.83.69-1.24.5-.92 1.02-1.87 1.59-2.75.51-.78 1.09-1.53 1.66-2.25.32-.42.65-.83.96-1.26.43-.58.85-1.17 1.27-1.77l.74-1.04c.19-.26.39-.52.59-.77.23-.28.45-.56.67-.85.52-.66 1.05-1.34 1.61-1.96.8-.88 1.65-1.75 2.47-2.59.36-.36.72-.73 1.08-1.1.27-.28.54-.56.8-.84.59-.63 1.2-1.28 1.84-1.87.57-.53 1.19-1.03 1.8-1.52.34-.27.68-.55 1.02-.83.2-.17.4-.35.6-.54.22-.21.45-.41.68-.6.46-.37.93-.74 1.4-1.1.3-.24.61-.47.91-.71.17-.14.34-.29.51-.44.31-.28.61-.55.94-.72.61-.33 1.14-.76 1.66-1.17.59-.48 1.16-.93 1.83-1.24.53-.24 1.02-.57 1.5-.9.33-.22.67-.45 1.02-.65 1.47-.82 3.2-1.77 4.92-2.62 1.4-.69 3.24-1.58 5.18-2.36.89-.36 1.84-.63 2.76-.9.36-.1.72-.21 1.14-.33.72-.22 1.46-.44 2.2-.61.72-.17 1.47-.28 2.21-.4.31-.05.63-.11.94-.17.79-.15 1.61-.3 2.4-.29.41 0 .82-.02 1.23-.05.88-.05 1.71-.1 2.55.11.37.09.74.05 1.1 0 .24-.03.46-.05.67-.04.63.04 1.28.12 1.95.26.83.17 1.66.38 2.43.62.05.04.12.21.11.27-.04.61-.09 1.24-.26 1.82-.52 1.8-.67 3.65-.82 5.45-.04.45-.07.9-.11 1.35-.04.41-.11.81-.18 1.22-.06.32-.11.64-.15.96l-.12.9c-.16 1.17-.33 2.39-.28 3.63.04.89-.06 1.82-.15 2.71-.04.41-.08.83-.11 1.24v.2l-.05 1.32c-.04.99-.08 1.99-.1 2.98 0 .21.02.43.04.64.02.15.03.29.04.44.02.68.04 1.35.03 2.03 0 .33-.02.66-.04 1-.02.41-.04.82-.04 1.24 0 .51.02 1.02.04 1.53.02.41.03.82.04 1.24 0 .27 0 .54-.02.81-.01.3-.02.6-.02.89.02.82.06 1.64.11 2.47Zm-23.66 3.23c.36.38.46.88.57 1.41.05.26.11.53.19.78.27.84.44 1.74.6 2.61l.13.67c.02.11 0 .24-.02.38-.02.13-.03.26-.03.39 0 .39.02.78.04 1.16.04.93.09 1.89-.03 2.84-.11.89-.18 1.79-.24 2.66-.06.83-.13 1.69-.23 2.53-.07.55-.22 1.08-.39 1.64-.08.27-.16.54-.23.82l-.33 1.31c-.2.8-.39 1.6-.6 2.39l-.16.59c-.28 1.08-.58 2.19-.93 3.26-.44 1.3-.94 2.62-1.42 3.88l-.77 2.04c-.32.88-.66 1.8-1.05 2.66-.46 1.03-.98 2.06-1.48 3.06-.22.44-.44.88-.66 1.31l-.06.11c-.04.08-.08.15-.11.23-.15.34-.3.68-.44 1.02-.32.74-.64 1.51-1.01 2.24-.18.36-.41.7-.66 1.06-.19.27-.38.55-.54.84-.16.28-.29.58-.42.86-.09.21-.19.42-.29.63-.07.12-.16.25-.27.37-.07.08-.14.17-.2.25-.19.27-.35.55-.52.83-.25.43-.48.84-.82 1.19-.31.32-.51.74-.69 1.13-.1.22-.21.45-.34.65-.21.34-.45.66-.68.99-.15.2-.29.4-.43.61-.1.14-.19.29-.28.44-.1.17-.21.34-.33.5-.34.46-.66.95-.97 1.42-.57.87-1.15 1.76-1.91 2.51-.68.67-1.23 1.45-1.77 2.21-.29.41-.58.81-.88 1.2-.14.18-.32.34-.51.51-.15.13-.29.26-.43.4l-.69.75c-.33.37-.65.73-1 1.07-.54.53-1.09 1.03-1.65 1.54l-.72.66c-.18.16-.36.33-.53.5-.39.37-.78.74-1.19 1.09-.82.69-1.65 1.37-2.49 2.04l-.77.63c-.7.57-1.41 1.14-2.13 1.69-.41.31-.86.62-1.34.92v-.03l-.06-1.07c-.05-1.08-.1-2.19-.28-3.28-.08-.47-.04-.93 0-1.41.03-.34.06-.7.04-1.06-.01-.32-.05-.63-.08-.95-.04-.38-.08-.73-.09-1.08 0-.63.04-1.28.08-1.91.02-.26.03-.53.05-.79l.16-2.8c.03-.73.07-1.45.13-2.18.09-1.08.21-2.14.32-3.04.02-.19.09-.39.15-.59.03-.09.06-.19.09-.29 0-.03.02-.06.03-.08.03-.07.06-.16.07-.26.02-.24.05-.48.07-.73.04-.42.07-.84.13-1.27.07-.53.17-1.07.27-1.6l.37-2.03c.26-1.41.52-2.87.81-4.3.31-1.5.65-3 .98-4.49.21-.93.42-1.87.62-2.8.05-.25.08-.51.11-.77.05-.45.1-.88.28-1.21.31-.57.41-1.16.5-1.73.07-.43.14-.84.29-1.23.28-.71.48-1.45.68-2.17.13-.48.26-.96.42-1.44.56-1.73 1.18-3.57 1.85-5.38.59-1.59 1.24-3.13 1.91-4.71.12-.29.29-.57.46-.86.15-.26.3-.52.43-.79.25-.54.54-1.08.82-1.61.27-.5.54-1.01.79-1.52.4-.84.97-1.64 1.53-2.41.25-.34.49-.69.73-1.04l.28-.42c.33-.49.65-.97.99-1.45.12-.16.26-.31.39-.46l.05.04.19-.24.66-.87c.48-.63.97-1.28 1.51-1.86.94-1.01 1.83-1.83 2.73-2.52 1.17-.9 2.75-2.02 4.54-2.72.51-.2 1.15-.21 1.71-.19.89.02 1.58.11 2.17.28.5.14.98.49 1.41.8.83.61 1.76 1.37 2.32 2.49.09.18.24.33.36.46l.09.09Zm33.62-35.66c-.04.61-.13 1.24-.22 1.84-.05.33-.1.67-.14 1.01-.05.43-.07.79-.06 1.12.04.91-.03 1.68-.23 2.41-.14.55-.19 1.12-.23 1.68-.02.32-.05.64-.09.95-.08.57-.17 1.13-.27 1.7-.08.5-.17 1.01-.24 1.51-.08.56-.16 1.13-.23 1.69-.1.74-.19 1.49-.31 2.23-.1.66-.23 1.32-.36 1.98-.08.43-.17.87-.24 1.3-.05.27-.08.54-.12.81l-.09.67-.08.49c-.11.7-.23 1.42-.38 2.11-.08.36-.19.72-.29 1.08-.1.32-.19.64-.27.97-.09.37-.15.74-.21 1.12-.04.25-.09.51-.14.76-.19.94-.39 1.88-.59 2.82-.31 1.45-.63 2.91-.95 4.36-.06-.51-.11-1.02-.15-1.53-.03-.31-.04-.61-.06-.91-.01-.21-.02-.41-.04-.62l-.05-.71c-.04-.69-.09-1.39-.15-2.08-.05-.55-.11-1.11-.17-1.66-.1-.97-.21-1.98-.26-2.97-.05-.95-.04-1.92-.04-2.86v-1.67c0-.24-.05-.48-.1-.71l-.05-.25c-.01-.06-.03-.12-.05-.18a.304.304 0 0 1-.03-.11l-.05-.99c-.04-.86-.08-1.74-.08-2.61 0-.85.04-1.71.08-2.56.02-.55.05-1.1.06-1.65 0-.18-.02-.35-.04-.53-.02-.15-.04-.3-.03-.45.02-.49.05-.98.08-1.46.04-.54.07-1.09.09-1.63.01-.33 0-.67-.02-1.01 0-.22-.02-.44-.02-.66 0-.29.02-.6.06-.98.03-.32.08-.64.12-.96.09-.66.19-1.33.18-2.01 0-.98.19-1.89.4-2.87.06-.27.11-.53.17-.8.02-.09.08-.17.19-.22.11-.05.27-.09.45-.07.15.01.31.05.47.13l.26.13c.89.45 1.78.89 2.67 1.35l.3.15c.43.22.88.44 1.26.73.15.12.3.43.29.62Zm-5.26-6.69c.06-.29.12-.56.19-.82.11-.43.23-.85.35-1.28.19-.67.37-1.34.54-2.01.46-1.84 1.11-3.6 1.93-5.23.21-.42.58-.81.96-1.02.22-.12.43-.15.63-.08.24.09.45.34.57.7.15.43.27.88.38 1.33.08.34.17.69.27 1.03.17.54.15 1.11.13 1.7-.02.48-.03.98.06 1.48.24 1.31.09 2.57-.07 3.91-.05.42-.1.84-.14 1.26-.02.23-.01.48.03.8.02.14-.01.2-.02.21 0 0-.04.01-.12 0-.37-.09-.74-.22-1.12-.37l-.39-.14c-.17-.06-.34-.13-.51-.19-.24-.09-.49-.19-.74-.27-.37-.12-.76-.2-1.12-.27-.61-.12-1.19-.23-1.7-.54a.379.379 0 0 0-.13-.06l.03-.13Zm16.21 50.03c-.15.55-.36 1.27-.63 1.98l-.34.9c-.54 1.47-1.11 3-1.73 4.46-.28.67-.66 1.33-1.01 1.96-.2.34-.39.69-.57 1.04-.15.29-.29.58-.43.87-.24.5-.5 1.01-.78 1.48-.25.42-.64.78-.99 1.09-.06.05-.23.21-.63-.24-.5-.56-.5-1.22-.34-2.04l.09-.48c.28-1.44.56-2.92 1.27-4.23l.23-.42c.57-1.07 1.17-2.18 1.8-3.23.27-.45.61-.85.96-1.28.11-.14.23-.27.34-.41.16-.2.33-.39.5-.58.23-.26.45-.52.66-.79.49-.65 1.18-1.03 1.92-1.43h.02c-.11.44-.22.89-.34 1.34Zm20 4.32c.05.05.1.1.14.15.26.3.42.66.59 1.05.2.44.4.9.77 1.3.27.28.45.68.63 1.07l.1.22c.08.17.14.36.2.55.11.33.22.68.44.97.68.88 1.07 1.9 1.47 3.03.03.1.07.2.11.3l-.3-.12c-1.51-.64-3-1.55-4.82-2.96-.18-.14-.38-.27-.58-.4-.13-.09-.27-.18-.4-.27-1.34-.96-2.58-2.19-4.03-3.99l-.55-.67c-.65-.79-1.32-1.61-1.88-2.47-1.1-1.7-1.91-3.55-2.49-5.54.5.12.99.3 1.51.51.56.23 1.11.48 1.66.73l.71.33c.16.07.31.14.43.22.25.18.49.36.73.55.15.12.3.24.46.35l1.15.86c.54.4 1.09.8 1.63 1.21.05.04.11.12.21.25l.74 1.01c.35.48.71.97 1.07 1.45.08.12.18.22.28.32Zm19.31 11.59c-.3 0-.59 0-.89.02-.7.02-1.42.03-2.11-.03l-.53-.05c-1.55-.14-3.14-.28-4.66-.62-.2-.04-.4-.1-.61-.14-.03-.31-.06-.63-.1-.94-.07-.57-.15-1.18-.3-1.78l-.03-.13c-.2-.79-.4-1.61-.73-2.38-.21-.48-.33-.87-.32-1.3 0-.3-.09-.58-.18-.83-.11-.29-.23-.57-.35-.85-.18-.43-.36-.85-.5-1.29l-.12-.36c-.37-1.12-.74-2.28-1.85-3.08-.42-.3-.68-.6-.73-.83-.19-.9-.78-1.43-1.35-1.93-.28-.25-.55-.49-.76-.76-.44-.57-1-1.05-1.55-1.5-.24-.2-.48-.4-.71-.61-.05-.05-.1-.1-.15-.14-.11-.11-.22-.22-.36-.32-.31-.21-.63-.4-.95-.59l-.43-.26c-.18-.11-.35-.22-.54-.31-1.11-.54-2.3-.89-3.42-1.2-.2-.05-.4-.13-.59-.21-.34-.14-.69-.27-1.07-.31-1.33-.12-2.89-.24-4.49-.22-.1 0-.2.02-.3.03-.06-.43-.15-.84-.19-1.29-.18-1.97-.06-3.98.05-5.91l.03-.57c.03-.48.13-.95.25-1.45.05-.21.09-.42.14-.63l.08-.42c.08-.42.16-.86.28-1.27.57-2.08 1.4-4.2 2.47-6.31.2-.41.46-.8.71-1.19.1-.15.2-.3.29-.46l.14-.23c.98-1.57 1.99-3.2 3.24-4.58l.3-.33c1.13-1.25 2.31-2.55 3.75-3.49.13-.08.25-.19.36-.31 1.23-1.39 2.79-2.38 4.42-3.37 2.25-1.36 5.25-3.05 8.55-4.08 2.48-.78 5.44-1.57 8.62-1.59.56 0 1.13-.06 1.68-.11.51-.05 1.03-.1 1.54-.11 1.23-.02 2.35.01 3.41.09 1 .08 1.95.21 2.86.38.47.09.94.16 1.41.23l.27.04-.77 3.48c-.19.83-.37 1.67-.56 2.5-.13.62-.27 1.24-.4 1.86-.21.98-.41 1.95-.63 2.93-.09.38-.2.76-.3 1.14-.12.41-.23.82-.32 1.23-.29 1.33-.57 2.66-.86 3.99-.21 1-.42 1.99-.64 2.99-.06.3-.15.59-.23.88-.08.31-.17.61-.23.92-.39 1.79-.77 3.58-1.15 5.38l-.42 2-.02.11c-.01.06-.02.11-.04.17-.4 1.68-.63 3.08-.73 4.39-.08 1.07-.24 2.15-.39 3.19-.11.78-.23 1.56-.31 2.34-.25 2.27-.44 4.32-.57 6.25-.09 1.27-.13 2.56-.18 3.81-.02.66-.05 1.31-.07 1.97l-.11 2.4c-.06 1.25-.12 2.51-.16 3.77-.02.44 0 .89.01 1.35 0 .13 0 .26.01.39-1.7.39-3.33.4-4.95.41Zm54.03 4.97-.06.85c-.1 1.41-.24 2.84-.38 4.23l-.12 1.22c-.38 3.91-1.26 7.82-2.62 11.64-.87 2.44-2.01 4.94-3.58 7.88-1.25 2.34-3.04 4.58-5.47 6.85-1.11 1.04-2.47 2.22-4.05 3.07-1.48.8-3.17 1.34-5.17 1.63-1.31.2-2.64.02-3.93-.16l-.46-.06c-.79-.1-1.55-.44-2.36-.8-.34-.15-.69-.31-1.03-.44l-.12-.05c-.28-.11-.56-.22-.78-.37l-.47-.34c-.68-.48-1.38-.97-1.97-1.53l-.32-.31c-1.22-1.15-2.49-2.34-3.54-3.65-1.02-1.28-1.9-2.72-2.75-4.11l-.41-.66a24.56 24.56 0 0 1-1.56-3c-.61-1.37-1.13-2.71-1.74-4.33-.14-.37-.26-.75-.37-1.13-.13-.43-.27-.87-.44-1.3-.89-2.21-1.48-4.25-1.82-6.23-.13-.76-.31-1.53-.48-2.26-.22-.95-.44-1.93-.57-2.9-.26-1.97-.41-3.99-.55-5.95l-.07-.96c0-.13-.03-.48 0-.54.03-.04.25-.1.44-.15l.18-.05c.58-.16 1.15-.35 1.72-.54.82-.28 1.67-.56 2.52-.74.85-.17 1.6-.54 2.33-.89.52-.25 1.02-.49 1.55-.67.95-.32 1.86-.8 2.73-1.26.36-.19.71-.38 1.07-.55 1.62-.8 5.6-3.43 6.87-4.53.45-.39.97-.75 1.47-1.08.38-.26.76-.52 1.13-.8 1.02-.79 1.94-1.52 2.8-2.33 1.37-1.3 2.96-2.82 4.44-4.41.93-1.01 1.79-2.1 2.62-3.15l.63-.8c.92-1.15 1.81-2.33 2.67-3.5.31-.42.59-.87.86-1.3.14-.23.28-.45.43-.67.23-.36.47-.71.7-1.06l.43-.63c.07-.09.15-.21.19-.35.23-.94.73-1.73 1.25-2.57.36-.58.73-1.17 1.01-1.82.05.11.11.22.16.33.21.44.43.89.6 1.35.26.7.53 1.4.8 2.09.18.48.37.98.55 1.47.1.12.2.22.28.38.1.22.16.45.25.67-.56.57-1.15 1.11-1.68 1.62.01.03.02.05.03.08-.35.45-.7.91-1.05 1.35-1.32 1.68-2.59 3.42-3.73 5.21a40.39 40.39 0 0 0-2.68 4.97c-.6 1.32-.83 2.64-1.36 3.94-.12.3-.31.61-.39.91-.15.6-.29 1.21-.34 1.79-.11 1.23-.07 2.43.17 3.54.38 1.79 1 3.42 2.53 4.26.59.32 1.28.5 1.95.68.46.12.95.23 1.46.19.92-.06 1.85-.21 2.79-.35.48-.07.97-.16 1.45-.28.58-.14 1.16-.32 1.74-.48.33-.09.67-.19 1-.3.31-.1.63-.23.94-.33.23-.08.46-.15.7-.23v.24c.03-.01.06-.03.08-.04.03-.01.04-.03.06-.04.02 0 .04-.02.06-.02.34-.17.68-.35 1.01-.54 0 1.7-.13 3.43-.25 5.1Zm.06-8.63c.06.19.14.37.11.61 0 .03 0 .07-.01.1 0 .04-.03.08-.03.12.03.1.04.21.08.32.11.36.08.67 0 .94v.06c-.41.22-.83.4-1.28.46v.05c-.85.25-1.71.69-2.57.97-.66.21-1.31.28-1.97.44-.79.19-1.59.46-2.36.45-.71 0-1.44.03-2.14-.02-.83-.07-1.57-.32-2.31-.61-.98-.38-1.53-1.15-1.91-2.09-.45-1.1-.56-2.34-.23-3.74.2-.84.4-1.69.7-2.53.44-1.21 1.14-2.35 1.88-3.48.45-.69.84-1.42 1.3-2.1.24-.36.57-.66.7-1.08.02-.06.13-.11.19-.17.12-.1.25-.2.34-.32.3-.4.57-.82.89-1.21 1.15-1.4 2.28-2.81 3.47-4.19.07-.08.15-.16.22-.24 0 .02.01.04.02.06.41-.65.9-1.26 1.42-1.85 0 .01 0 .02.01.03.12.4.24.8.37 1.21.5 1.61 1.02 3.28 1.22 4.99.12 1.02.34 2.04.55 3.03.15.71.31 1.44.42 2.16.32 1.95.56 3.75.73 5.5.07.73.13 1.41.19 2.09h-.01Zm9.14-35.7c.05-.27.17-.55.26-.83.08-.26.16-.52.26-.78.05-.14.12-.27.2-.44.03.07.05.11.1.21.04-.16.04-.22.06-.27.15-.5.21-1.04.48-1.49.35-.57.83-1.09 1.03-1.73.02-.05.06-.1.1-.15.49-.5.85-1.07 1.14-1.69.17-.37.46-.7.71-1.05.21-.3.46-.59.65-.9.47-.78.89-1.56 1.5-2.27.85-.99 1.65-2.03 2.49-3.04.78-.93 1.58-1.84 2.38-2.75.82-.93 1.61-1.87 2.59-2.64.43-.33.81-.77 1.18-1.19.5-.58 1.06-1.01 1.68-1.39.28-.17.53-.45.76-.71.19-.22.29-.45.62-.5.2-.03.45-.28.65-.47.48-.45.95-.93 1.42-1.4.05-.05.12-.08.18-.12.31-.2.62-.38.93-.59.23-.16.44-.39.67-.54.46-.29.93-.53 1.38-.82 1.76-1.16 3.55-2.17 5.39-3.01.89-.4 1.77-.79 2.66-.99.87-.2 1.74-.29 2.61-.48 1.24-.27 2.29-.03 3.24.43.69.33 1.34.73 1.99 1.12.64.38 1.12.94 1.41 1.68-.23.21-.45.38-.65.57-1.55 1.46-3.15 2.86-4.83 4.12-1.32.99-2.64 1.97-3.96 2.95-.53.39-1.05.78-1.57 1.18-.47.36-.93.74-1.41 1.1-.5.37-1.01.73-1.52 1.08-.26.18-.53.33-.79.5-.22.15-.44.3-.66.46-.14.1-.27.23-.41.32-.49.32-.99.61-1.48.94-.33.23-.64.51-.97.74-.79.53-1.58 1.04-2.38 1.56-.9.59-1.8 1.17-2.7 1.75-1.2.77-2.42 1.53-3.61 2.32-.76.5-1.49 1.08-2.26 1.58-.74.49-1.51.93-2.26 1.38-.23.14-.49.21-.71.37-.97.72-1.93 1.48-2.91 2.17-.77.54-1.64.88-2.3 1.67-.04.05-.12.07-.18.12-.94.67-1.88 1.34-2.82 2.02-.25.18-.4.16-.35-.12Zm-6.52 11.04c.11-.1.17-.27.27-.39.1-.13.22-.27.35-.35.32-.2.72-.31.98-.57.82-.83 1.6-1.7 2.54-2.38.24-.17.51-.3.76-.45.24.57.47 1.15.72 1.71.6 1.32 1.56 2.28 2.79 2.94.13.07.26.13.4.16.7.13 1.37.31 2.1.35.65.03 1.35-.03 2.03-.21.9-.24 1.8-.67 2.7-.96.97-.31 1.82-.94 2.68-1.59.45-.34.86-.77 1.33-1.02.71-.38 1.27-.97 1.87-1.51.78-.71 1.52-1.47 2.28-2.21.97-.94 1.98-1.84 2.73-2.99.24-.36.53-.7.78-1.05.14-.2.25-.43.4-.63.4-.59.82-1.16 1.21-1.76.32-.49.6-.99.89-1.5.15-.27.27-.56.42-.84.24-.46.5-.91.75-1.37.1-.19.18-.4.3-.58.51-.76.44-1.43.36-2.11 0-.02-.05-.03-.14-.07-.39.59-.8 1.16-1.17 1.75-.65 1.05-1.28 2.11-1.92 3.17-.55.89-1.05 1.81-1.68 2.65-.89 1.19-1.85 2.34-2.83 3.46-.86.98-1.77 1.94-2.71 2.84-1.41 1.35-2.94 2.48-4.51 3.56-.95.65-1.91.87-2.85 1.28-.74.31-1.52.39-2.26.44-.65.04-1.32.02-1.86-.19-.77-.31-1.48-.75-2.13-1.24-.94-.71-1.5-1.73-1.42-3.18.01-.27.1-.46.33-.65.72-.62 1.43-1.26 2.16-1.87.42-.35.88-.63 1.32-.96.54-.41 1.07-.84 1.6-1.27.41-.33.8-.69 1.2-1.02.54-.43 1.09-.85 1.63-1.27.18-.14.35-.33.54-.44.36-.21.75-.33 1.09-.56.6-.41 1.18-.89 1.77-1.34.18-.14.4-.22.56-.38.73-.69 1.45-1.39 2.37-1.69.08-.03.17-.15.25-.23.1-.09.19-.18.29-.26.45-.31.9-.6 1.34-.93.53-.4.94-.93 1.59-1.24.86-.4 1.67-1.09 2.5-1.67.28-.19.53-.44.8-.65.15-.12.32-.22.48-.32.19-.12.38-.22.56-.34.22-.15.43-.33.65-.5.08-.06.15-.13.23-.19.22-.18.44-.36.66-.53.09-.07.19-.12.28-.19.39-.29.78-.59 1.16-.89.58-.44 1.15-.87 1.73-1.32.57-.45 1.14-.91 1.71-1.36.36-.28.77-.52 1.09-.85.64-.66 1.4-1.13 2.01-1.86.33-.4.8-.67 1.21-1 .29-.23.61-.44.85-.71.31-.35.6-.66.94-.65.22-.26.37-.48.56-.66.3-.27.65-.48.93-.76.55-.55 1.11-1.07 1.72-1.55.61-.48 1.13-1.13 1.67-1.72.5-.54 1.15-.97 1.42-1.71 0-.02.04-.03.13-.08.08.09.22.17.24.31.17.84.47 1.66.45 2.56-.04 1.72-.26 3.5-.42 5.26-.05.59-.08 1.19-.26 1.78-.34 1.14-.74 2.28-1.18 3.4-.48 1.22-1 2.44-1.55 3.65-.42.92-.88 1.83-1.37 2.73-.61 1.11-1.28 2.21-1.92 3.31-.15.25-.24.53-.39.77-.54.88-1.1 1.76-1.65 2.64-.41.65-.79 1.31-1.23 1.94-.57.81-1.19 1.6-1.79 2.39-1.23 1.65-2.34 3.36-3.63 4.97-.89 1.12-1.75 2.27-2.69 3.34-1.54 1.76-3.13 3.47-4.7 5.2-.23.25-.43.53-.67.78-.77.78-1.55 1.55-2.32 2.33-.35.36-.68.76-1.05 1.08-.94.82-1.92 1.6-2.86 2.42-.56.49-1.08 1.04-1.65 1.53-.73.63-1.49 1.21-2.23 1.82-.71.58-1.41 1.19-2.13 1.75-.88.68-1.78 1.33-2.68 1.98-.71.52-1.43 1.03-2.14 1.54-.44.32-.88.67-1.33.97-1.6 1.03-3.2 2.09-4.87 2.92-.53.26-1.04.58-1.57.8-.21.09-.42.2-.63.3-.01-.29-.02-.58-.04-.87.04-.02.08-.04.11-.05-.07-.4-.13-.8-.12-1.19-.02 0-.03.01-.05.02-.07-1.25-.16-2.5-.25-3.72l-.02-.23c-.09-1.18-.25-2.38-.42-3.53l-.04-.27c-.15-1.06-.31-2.11-.47-3.16l-.24-1.58v-.08c0-.06 0-.14-.01-.23-.09-.44-.17-.89-.26-1.34-.19-1.04-.39-2.11-.67-3.15-.26-.97-.57-1.93-.87-2.88.06-.04.1-.1.16-.14 1.3-1.22 2.6-2.43 3.9-3.66Zm-16.38-14.74.21.26c.69.85 1.31 1.63 1.85 2.47.51.78.99 1.58 1.47 2.38.49.82.99 1.63 1.5 2.43.4.62.44 1.13.14 1.71l-.36.71c-.42.82-.85 1.66-1.31 2.47l-.17.3c-.79 1.4-1.6 2.85-2.46 4.23-.69 1.09-1.49 2.22-2.46 3.47-1 1.28-2.07 2.58-3.29 3.98-.5.58-1.06 1.13-1.59 1.66-.26.26-.52.52-.78.79l-.82.85c-.55.57-1.1 1.15-1.66 1.7l-.18.18c-.6.59-1.22 1.19-1.89 1.67-.37.26-.72.54-1.08.81-.88.69-1.72 1.33-2.72 1.76-.39.16-.71.43-1.03.69-.15.12-.3.24-.45.35-.66.46-1.33.93-1.99 1.38-.08.05-.17.1-.26.14-.15.07-.31.15-.45.27-1.28 1.13-2.8 1.75-4.41 2.4-.34.14-.67.28-1.01.42-.24.1-.46.24-.67.37-.21.13-.4.25-.6.33a44.68 44.68 0 0 1-6.84 2.16c-.08.02-.15.04-.24.07 0-.03 0-.06-.01-.09-.03-.19-.05-.31-.04-.43.09-2.81.19-5.62.28-8.42l.04-1.4c.04-1.18.07-2.39.15-3.59.13-1.96.3-3.99.52-6.23.2-1.99.44-4.02.68-5.97l.05-.44c.07-.59.18-1.21.33-1.89.32-1.44.64-2.87.97-4.3l.68-3.04c.24-1.05.47-2.11.7-3.16l.93-4.21c.21-.94.43-1.87.65-2.81l.66-2.82c.3-1.33.58-2.66.86-4l.14-.69c.32-1.52.63-3.04.96-4.62l.18-.88c.17.05.34.1.51.14.62.17 1.26.36 1.89.58 1.84.66 3.65 1.32 5.39 2.04 1.5.63 2.92 1.46 4.22 2.47.59.46 1.28.88 2.06 1.25.96.45 1.79 1.03 2.54 1.78l.14.13c.57.57 1.16 1.15 1.96 1.49.08.03.17.12.29.24.25.24.5.47.75.71.59.55 1.2 1.12 1.74 1.72 1.15 1.3 2.26 2.67 3.34 4.01ZM234.43 4.89c.75 1.2 1.24 2.47 1.52 3.88l.03.15c.34 1.69.68 3.45.63 5.21-.02.7 0 1.41.03 2.09.03.94.07 1.92-.02 2.86-.03.41-.07.81-.1 1.22-.15 1.89-.3 3.84-.85 5.69-.21.7-.34 1.43-.46 2.14-.06.32-.11.64-.17.95 0 .05-.02.09-.02.14 0 .04 0 .08-.02.13-.19.73-.38 1.46-.56 2.2-.41 1.64-.83 3.34-1.36 4.97-.79 2.41-1.73 4.89-2.88 7.56-.88 2.05-1.96 4.03-2.9 5.72-1.07 1.93-2.24 3.98-3.54 5.93-2.41 3.6-4.45 6.22-6.6 8.49-.15.16-.32.3-.51.46h-.01a3.27 3.27 0 0 1-.17-.41c-.31-1.09-.61-2.19-.89-3.29-.08-.31-.13-.63-.19-.95l-.12-.66c-.12-.56-.24-1.12-.37-1.68-.26-1.16-.53-2.35-.72-3.54-.23-1.4-.39-2.85-.54-4.24l-.14-1.28c-.05-.46-.11-.92-.17-1.39-.16-1.25-.32-2.55-.37-3.82-.1-2.61-.13-5.46-.1-8.7.02-1.91.13-3.62.33-5.23l.06-.46c.29-2.32.6-4.72 1.32-6.98.77-2.38 1.63-4.78 2.44-7.02.18-.48.42-.94.68-1.42.12-.22.23-.43.34-.65.13-.26.25-.52.38-.78.27-.57.55-1.17.89-1.7.63-1.01 1.35-2 2.03-2.96l.39-.55c.22-.31.46-.61.7-.9.17-.21.34-.42.5-.63.66-.86 1.56-1.61 2.75-2.28 1.56-.88 3.01-1.26 4.38-1.15.8.06 1.58.3 2.34.7.91.48 1.52 1.34 2.05 2.19Z" class="d"/>

    <path d="M287.05 79.3c.06-.67.13-1.51.32-2.16.17-.58.42-.95.73-1.45.31-.49.56-1.02.82-1.55-.06-.88-.19-1.75-.43-2.57-.59-2.03-1.72-4.19-3.59-5.2-1.65-.89-3.51-1.32-5.25-2.02-.89-.36-2.83-1.67-2.16-2.84.41-.72.42-1.71-.14-2.32-.56-.61-1.7-.64-2.16.06-.03.04-.05.08-.07.12-.21.42-.17.95.03 1.38.33.74.9 1.23 1.19 2.01.28.79.44 1.58.42 2.42-.06 1.8-.51 6.43-.36 8.89.33 5.13.45 9.19.45 9.19.04 1.01-.38 2.12-1.28 2.51-1.04-.95-1.35-2.26-1.56-3.43-.26-1.47-.5-2.93-.75-4.4-.22-1.32-.44-2.65-.67-3.97-.29-1.65-.99-2.9-2.15-3.81-.84-.66-1.58-.94-2.26-.86-.65.08-1.24.48-1.82 1.23-.65.84-1.12 1.8-1.31 2.7-.35 1.61-.6 3.25-.85 4.82-.06.37-.12.75-.17 1.12-.24-.33-.5-.69-.82-1.01-.96-.96-2.04-1.35-3.04-1.1-.99.25-1.74 1.09-2.12 2.36-.72 2.36-1.52 5.03-1.27 7.8-.04-.09-.08-.17-.12-.26-.33-.73-.65-1.41-1.05-2.05-.39-.61-.84-.97-1.37-1.06-.58-.09-1.2.11-1.9.63-1.23.93-1.87 2.35-1.89 4.2-.05 4.05.03 8.16.11 12.14v.62c.03.92.1 1.86.17 2.77.17 2.21.33 4.48-.27 6.64-.1.09-.21.18-.33.26-1.38-.95-1.58-1.42-2.23-3.77-.7-2.57-1.43-5.13-2.16-7.7-.37-1.31-.75-2.62-1.14-4.02-.2-.72-.45-1.62-1.89-1.66h-.19l-1.36 2.52c-.15.04-.3.07-.45.1-.45.1-.91.19-1.24.49-1.79 1.57-2.88 3.57-3.16 5.75-.44 3.41-.34 7.05.33 11.45.33 2.22.91 4.5 2.82 6.17.72.63 1.48.97 2.26 1.04 1 .08 2.01-.32 2.95-1.19 1.4-1.3 2.1-2.97 2.2-5.24.02-.45.04-.91.07-1.37v-.19c2.1.43 3.28.25 4.24-.27 1.71-.92 1.63-3.71 1.63-3.71s-.18-.9-.21-1.26c-.18-2.09-.23-4.23-.27-6.3-.03-1.52-.07-3.09-.15-4.64-.17-3.01-.36-6.42.36-9.72.06-.29.2-.58.38-.99.03-.07.06-.14.13-.15.13.23.2.36.23.47.49 2.28.97 4.55 1.46 6.83.35 1.66.7 3.32 1.06 4.98l.16.74c.36 1.7.73 3.45 1.15 5.17.1.4.32.76.53 1.1.09.15.18.3.27.46l.15.29.28-.18c1.79-1.11 1.83-2.52 1.61-3.87-.63-3.77-1.04-6.86-1.3-9.73-.39-4.26-.18-7.94.65-11.24.14-.57.35-1.11.63-1.8.08-.22.18-.45.27-.69.08.1.16.19.23.27.27.31.44.51.51.71l.33 1.05c.51 1.61 1.04 3.27 1.36 4.94.45 2.29.83 4.64 1.19 6.92.22 1.37.44 2.73.68 4.1.06.32.23.59.39.85.07.11.14.22.2.34l.18.33.29-.24c2.14-1.73 2.21-1.88 1.85-4.02l-.04-.25c-.77-4.59-1.57-9.33-1.37-14.17l.03-.83c.07-2.12.14-4.31 1.18-6.25.15-.28.37-.53.67-.89.08-.09.16-.19.25-.3.13.29.26.56.39.82.37.75.68 1.4.83 2.07.22 1.02.37 2.09.52 3.11.16 1.08.31 2.2.56 3.28.52 2.35 1.08 4.18 1.76 5.78.34.8 1.01 1.4 1.85 1.67.82.26 1.68.16 2.37-.27.71-.44 1.44-1.15 1.81-1.91.33-.69.14-1.2.13-1.93-.03-2.09.3-4.22.34-6.32.04-2.26 0-4.52-.14-6.78-.12-1.97.48-3.85-.2-5.71 1.99 1.43 3.5 2.34 5.12 4.19 1.65 1.88 2.96 4.14 3.33 6.61.15.99.33 2.62-.95 1.87-.7-.41-1.95-1.22-2.84-.76-.08.04-.15.1-.22.13-.1.04-.23.03-.35.05-.1.11-.19.22-.28.33-.28.44-.53.9-.76 1.37-.35.69.66 1.85 1.06 2.29.62.67 1.18.61 2.02.2 1.34-.66 2.59-1.57 3.45-2.79.17-.24.24-.51.37-.76-.31.48-.67 1.04-1.17 1.25Zm-42.3 36.68c-.16.84-.36 1.72-.78 2.38-.16.24-.41.54-.77.55-.31 0-.62-.2-.88-.57-.42-.59-.9-1.29-1.17-2.04-1.85-4.97-2.54-9.93-2.04-14.75.16-1.5.24-1.63 1.5-2.75.99.63 1.66 1.57 2.1 2.93 1.47 4.55 2.98 9.25 2.06 14.25ZM73.43 72.56c.02 2.85-1.58 4.09-3.7 4.25-1.92.16-4.11.07-6.1.04-.68.02-1.56-.02-2.37.07.7-.75 1.22-1.02 1.6-1.4 0-1.04.02-2.03-.02-2.94-.04-1.58-.14-3.18-.16-4.77-.02-1.08.02-2.67.02-3.75 0-.13-.13-.54-.79-.95-.16-.09-.5-.41-.63-.52h.57c2.3 0 4.95-.11 7.25.04 1.92.11 3.5 1.51 3.55 3.68.04 1.87-.27 2.67-1.38 3.23 1.24.43 2.15 1.18 2.17 3Zm-2.21.14c.02-2.1-1.58-2.26-2.6-2.51-.44-.12-3.36.06-3.99-.03-1.24-.18-.22-.85-.68-1.38 1.31.7 4.09.15 5.1-.01 1.6-.25 1.33-2.26 1.29-2.62-.14-1.65-.79-2.12-2.42-2.37-.47-.07-.9-.09-1.4-.09-.45 0-1.35.04-1.85.09-.04.18 0 .34 0 .47l.23 11.38c.65.02 1.97.07 2.35.07.5 0 .97.02 1.47-.04 1.6-.25 2.51-1.29 2.51-2.96ZM91.28 62.69c-.23.16-1.27.77-1.47.86-.45.56-.86 1.06-1.4 1.87-.74 1.04-2.24 3.41-2.33 3.5-.29.43-.54.84-.81 1.22 0 .05.02.11.02.16v5.13c0 .13.29.52.88 1.04.16.11.54.34.54.36h-4.72s.16-.09.29-.2l.5-.43c.3-.25.48-.54.48-.59 0-1.56-.07-3.52-.14-5.08 0-.16-.02-.32-.02-.47l-1.06-1.67c-.65-1.02-1.38-1.99-2.1-2.96-.54-.72-1.38-1.74-1.38-1.74-.81-.47-1.51-.99-1.54-1.04h5.04l-1.4 1.06s.84 1.08 1.4 1.92c.93 1.31 1.56 2.21 2.35 3.46.9-1.36 1.81-2.62 2.73-3.98.34-.5.97-1.54.95-1.6 0-.02-.5-.57-.79-.81h3.98Z" class="d"/>
  </g>
</svg>
