<svg xmlns="http://www.w3.org/2000/svg" xml:space="preserve" style="enable-background:new 0 0 310.05 361.8" viewBox="0 0 310.05 361.8">
  <style>
    .st5{fill:#784725}
  </style>
  <g id="calligraphy">
    <path d="M177.15 200.49c.84-.83.88-2.17.09-2.98-.37-.38-.94-.61-1.56-.62-.67-.01-1.3.23-1.73.65-.34.34-.54.9-.54 1.53 0 .64.21 1.23.57 1.58.32.31.65.52 1 .61.7.19 1.44-.07 2.17-.77z" class="st5"/>
    <path d="M303.62 87.61c-.12-1.11-.24-2.25-.52-3.27-.2-.74-.68-1.33-1.03-1.98-.15-.28-.18-.3-.38-.59-.05-.06-.2-.28-.26-.33-.08-.07-.25-.22-.38-.34v-.01c-.54-.61-1.98-1.83-2.76-2.05-1.04-.27-2.17.17-2.96.89-.09.08-.17.17-.25.25-.05-.28-.12-.56-.2-.84-.59-2.03-1.72-4.19-3.58-5.2-1.66-.89-3.51-1.32-5.25-2.02-.89-.36-2.84-1.67-2.16-2.84.41-.72.41-1.71-.14-2.33-.56-.61-1.71-.63-2.16.06-.03.04-.05.08-.08.12-.21.42-.16.95.03 1.38.33.75.9 1.23 1.19 2.01.28.79.44 1.58.41 2.42-.05 1.79-.51 6.43-.35 8.89.32 5.13.45 9.19.45 9.19.04 1.01-.38 2.13-1.28 2.52-1.04-.95-1.35-2.27-1.56-3.43-.26-1.47-.5-2.94-.74-4.41-.23-1.32-.45-2.64-.68-3.97-.29-1.65-.99-2.89-2.15-3.81-.84-.66-1.58-.94-2.26-.85-.65.08-1.24.48-1.82 1.23-.65.84-1.12 1.79-1.32 2.69-.34 1.61-.6 3.25-.84 4.83l-.18 1.11c-.23-.33-.5-.69-.81-1.01-.97-.96-2.05-1.35-3.05-1.09-.98.25-1.74 1.08-2.12 2.35-.72 2.36-1.52 5.03-1.27 7.8-.04-.09-.08-.17-.12-.26-.33-.73-.64-1.41-1.05-2.05-.38-.61-.84-.96-1.37-1.06-.58-.09-1.19.1-1.9.63-1.23.94-1.87 2.35-1.89 4.21-.04 4.04.04 8.16.11 12.14l.02.62c.01.92.08 1.85.15 2.76.17 2.21.33 4.49-.27 6.65-.1.09-.21.17-.33.25-1.38-.94-1.58-1.42-2.23-3.77-.7-2.57-1.43-5.14-2.16-7.7-.37-1.31-.74-2.62-1.13-4.01-.2-.73-.45-1.62-1.89-1.67h-.19l-1.36 2.53c-.15.04-.3.07-.45.1-.45.1-.91.19-1.24.49-1.79 1.57-2.88 3.56-3.17 5.75-.44 3.41-.33 7.05.34 11.45.33 2.22.9 4.5 2.81 6.17.72.63 1.49.97 2.26 1.04 1 .07 2.01-.32 2.95-1.19 1.4-1.3 2.09-2.97 2.19-5.24.02-.45.05-.91.07-1.37l.01-.19c2.09.43 3.27.25 4.23-.27 1.71-.92 1.63-3.71 1.63-3.71s-.19-.9-.22-1.26c-.18-2.1-.23-4.24-.27-6.31-.04-1.52-.07-3.09-.16-4.63-.17-3.01-.36-6.42.36-9.73.07-.29.2-.58.38-.98.03-.07.06-.14.13-.16.13.23.2.37.23.48.49 2.27.97 4.55 1.45 6.83.36 1.66.71 3.32 1.06 4.98l.16.73c.36 1.7.73 3.45 1.15 5.17.1.4.32.76.53 1.1.09.15.18.31.26.46l.16.3.28-.18c1.79-1.11 1.83-2.51 1.61-3.87-.63-3.77-1.04-6.86-1.3-9.73-.39-4.26-.18-7.94.65-11.24.14-.57.35-1.11.62-1.8.09-.22.18-.45.27-.7.08.1.16.19.23.27.27.31.45.51.51.71l.33 1.05c.51 1.61 1.04 3.27 1.36 4.94.45 2.29.83 4.64 1.19 6.91.22 1.37.45 2.74.68 4.1.06.32.23.59.39.85.07.12.14.23.2.34l.18.34.29-.24c2.14-1.73 2.21-1.88 1.85-4.03l-.04-.24c-.77-4.59-1.57-9.33-1.38-14.17l.03-.84c.07-2.11.14-4.3 1.18-6.24.15-.28.36-.54.66-.89.08-.09.17-.19.25-.3.14.29.27.56.39.82.37.75.68 1.4.83 2.07.22 1.02.37 2.08.52 3.11.15 1.08.31 2.19.56 3.28.52 2.34 1.08 4.18 1.76 5.77.33.8 1.01 1.41 1.85 1.67.81.26 1.68.16 2.37-.27.71-.44 1.44-1.16 1.8-1.91.34-.69.14-1.21.13-1.93-.03-2.09.3-4.22.34-6.32.05-2.26 0-4.52-.13-6.78-.12-1.97.47-3.85-.2-5.71 2 1.44 3.5 2.34 5.13 4.19 1.65 1.88 2.95 4.14 3.33 6.61.15.99.33 2.62-.96 1.87-.69-.41-1.95-1.22-2.83-.76-.08.04-.15.1-.22.13-.11.03-.24.03-.35.04-.1.12-.2.22-.28.34-.28.44-.53.9-.76 1.37-.35.69.66 1.85 1.06 2.28.62.68 1.18.62 2.01.21 1.2-.59 2.31-1.39 3.15-2.42.01 0 .01-.01.02-.01 0 0 0-.01.01-.01v-.01a.7.7 0 0 0 .08-.1h.01v-.01c.06-.08.13-.15.19-.23.16-.24.3-.68.42-.93v-.01c.19-.32.37-.65.53-.99.02-.04.06-.08.08-.13l.09-.21c.03-.06.05-.13.08-.2.26-.63.5-1.27.85-1.85.42-.71 1.05-1.35 1.85-1.55.73-.18 1.55.37 2.15.95.51.46.75 1.05.94 1.48.38.85.64 1.79.98 2.67.29.76.42 1.6.39 2.48-.06 1.32-.01 2.64-.46 4.05-.15.48-.14.96-.3 1.44-.59 1.68-1.23 3.35-1.84 5.03-.6 1.64-1.4 3.23-2.24 4.8-.69 1.3-1.53 2.55-2.3 3.83-.34.56-.67 1.14-1.05 1.68-.89 1.3-1.81 2.58-2.32 3.3-1.61 2.04-2.77 3.56-3.99 5.02-.8.96-1.68 1.86-2.55 2.76-.45.47-.8.46-1.12-.06-.79-1.26-2.06-1.89-3.36-2.52-1.12-.55-2.4-.69-3.72-.72-1.02-.03-2.1.14-3.19.5-.48.16-.97.18-1.45.34-.63.2-1.26.47-1.89.72-.79.32-1.6.63-2.38 1-.98.46-1.97.91-2.91 1.49-1.12.69-2.19 1.51-3.29 2.26-.31.21-.64.37-.95.57-.28.19-.55.39-.8.61-.42.34-.82.71-1.23 1.07-.79.69-1.63 1.35-2.37 2.1a94.901 94.901 0 0 0-3.89 4.13c-1.15 1.3-2.3 2.63-3.3 4.04-.95 1.33-2.02 2.61-2.72 4.08-.34.71-.85 1.38-1.23 2.08-.66 1.23-1.39 2.44-1.78 3.75-.1.35-.41.69-.62 1.04-.13.23-.27.46-.33.69-.28 1.14-.5 2.27-.81 3.41-.21.77-.7 1.39-1.47 1.84-.48.28-.9.78-1.34 1.19-.7.63-1.4 1.26-2.1 1.9-.84.78-1.81 1.37-2.57 2.29-.37.45-.88.78-1.31 1.19-.29.27-.57.56-.84.86-.3.33-.6.67-.9 1.02-.19-.59-.36-1.04-.4-1-.16-.52-.3-1.04-.49-1.55-.49-1.33-1.06-2.65-1.62-3.93l-.19-.43c-.25-.58-.25-1.03.01-1.51.27-.5.49-.99.66-1.47.22-.61.44-1.22.67-1.83.91-2.48 1.86-5.04 2.4-7.7.21-1.07.48-2.15.75-3.19.34-1.36.69-2.76.93-4.16.23-1.36.3-2.77.37-4.13.04-.64.07-1.28.12-1.92.02-.3.06-.6.09-.9.04-.28.07-.56.09-.84l.05-.5c.05-.58.11-1.17.1-1.77 0-.65-.04-1.3-.07-1.96-.05-1.05-.1-2.15-.04-3.21.09-1.68-.08-3.36-.25-4.98-.07-.63-.14-1.26-.19-1.89-.07-.95-.28-1.9-.48-2.81-.09-.41-.18-.82-.26-1.24-.13-.64-.24-1.29-.36-1.94-.25-1.45-.52-2.94-.89-4.39-.53-2.05-1.19-4.09-1.82-6.06l-.44-1.37c-.24-.74-.5-1.46-.77-2.19-.19-.53-.39-1.07-.57-1.6-.36-1.06-.71-2.12-1.07-3.18-.45-1.35-.9-2.71-1.37-4.07-1.02-2.96-2.07-5.92-3.12-8.88-.11-.31-.07-.5.16-.73l.18-.18c1.18-1.17 2.39-2.38 3.39-3.77.31-.43.67-.84 1.02-1.24.44-.5.89-1.02 1.26-1.58.38-.59.81-1.16 1.23-1.72.74-.98 1.5-1.99 2.06-3.15.37-.75.83-1.48 1.28-2.19.37-.59.76-1.19 1.09-1.82l.13-.23c.97-1.82 1.98-3.71 2.78-5.66 1.02-2.46 2.18-5.37 3.04-8.3.84-2.82 1.55-5.71 2.25-8.51.27-1.12.55-2.24.84-3.35.05-.22.06-.44.07-.65l.01-.19c.02-.32.03-.66.03-.99.02-.72.03-1.41.19-2.06.29-1.27.35-2.55.4-3.8.01-.31.02-.61.04-.92.11-2.06.14-4.49-.49-6.93l-.03-.12c-.07-.29-.15-.59-.18-.89-.35-2.83-1.6-5.13-3.73-6.81-.75-.59-1.54-.88-2.43-.91-1.95-.05-3.46.19-4.9.8-1.24.52-2.3 1.16-3.24 1.95-1.5 1.27-2.75 2.66-3.73 4.12-.21.33-.43.65-.64.97-.71 1.04-1.44 2.12-2.06 3.25-.59 1.08-1.07 2.24-1.53 3.36l-.36.85a53.83 53.83 0 0 0-2.97 9.29c-.48 2.21-1.01 4.84-1.28 7.55-.06.66-.16 1.33-.27 1.97-.13.85-.26 1.72-.31 2.59-.14 2.31-.18 4.66-.15 6.98.05 2.6.16 5.33.35 8.35.21 3.24.44 6.16 1.22 9.07.04.17.07.34.09.51l.02.14.15 1.1c.16 1.24.32 2.52.77 3.75.05.16.07.35.09.54.02.17.04.33.07.48.1.44-.05.7-.56 1l-.25.16c-.6.35-1.22.71-1.73 1.2-.94.87-2.06 1.54-3.14 2.19-.43.25-.85.51-1.27.77-.54.35-1.14.65-1.73.93-.62.3-1.27.62-1.86 1.01-.93.61-1.97 1.05-2.98 1.47-.56.24-1.12.48-1.67.74-.5.25-1.07.43-1.68.59-.61.27-1.31.45-2.11.47h-.1v.1l-.16.03c-.28.05-.53.09-.79.12-.45.05-.9.07-1.35.09-.43.02-.87.05-1.3.08-1.01.07-2.06.14-3.07.1-1.23-.06-2.51-.26-3.79-.61-1.53-.42-3-.94-4.38-1.55-1.26-.57-2.4-1.23-3.37-1.98-.72-.54-1.38-1.21-2.01-1.86-.31-.31-.62-.63-.94-.93-1.19-1.14-2.26-2.48-3.35-4.11l.03-.06c.13-.35.15-.75.25-1.12.25-.96.55-1.91.78-2.88.3-1.28.59-2.55.69-3.88.04-.62.4-1.21.54-1.84.11-.46.06-.94.12-1.41.11-.85.27-1.68.39-2.53.08-.63.12-1.27.2-1.9.12-1 .24-1.99.37-2.98.1-.8.21-1.6.34-2.4.18-1.15.38-2.29.58-3.44.31-1.85.61-3.7.93-5.55.17-1 .56-1.86 1.16-2.63.02-.01.04-.03.06-.05.1-.08.16-.19.21-.3l-.02-.02c.03-.03.04-.06.06-.09.84-.86 1.5-1.95 2.3-2.88.72-.83 1.35-1.7 1.91-2.7.64-1.13 1.55-2.05 2.2-3.18.59-1.03 1.03-2.18 1.44-3.32.18-.5.15-1.07-.36-1.43-.54-.38-.94-.21-1.37.31-1.28 1.55-2.61 3.06-3.8 4.69-.73 1-1.28 2.18-1.84 3.32-.64 1.27-1.16 2.62-1.82 3.87-.22.43-.52.82-.84 1.17-.02.16-.06.29-.08.44-.08.07-.17.11-.25.18-.14.15-.28.31-.42.46-.26.29-.5.56-.78.77-1.56 1.14-2.66 2.69-3.72 4.2l-.13.19c-.9 1.27-1.52 2.74-2.12 4.16l-.1.25c-.84 1.97-1.6 3.92-1.78 6.09-.05.72-.14 1.44-.23 2.16-.1.91-.22 1.86-.27 2.8-.12 2.06.18 4.12.47 6.11l.12.87c.32 2.3 1.2 4.34 2.43 6.67-.37.87-.71 1.76-1.14 2.6a50.98 50.98 0 0 1-1.65 3c-.58.96-1.18 1.9-1.82 2.81-.75 1.06-1.51 2.1-2.33 3.09-.62.76-1.33 1.44-2.02 2.13-.87.87-1.74 1.76-2.66 2.55-1.44 1.22-3.02 2.14-4.64 2.93-.28.14-.58.17-.89.25.36-1.45.72-2.8 1.02-4.16.2-.87.31-1.75.47-2.62.26-1.44.55-2.88.77-4.34.18-1.24.3-2.51.39-3.76.11-1.4.21-2.8.23-4.2.02-.94-.14-1.86-.16-2.8-.03-1.27-.15-2.52-.4-3.74-.09-.48-.08-.99-.2-1.45-.25-.93-.55-1.84-.83-2.75-.21-.7-.25-.96.02-1.3-.02-.05-.04-.09-.06-.14a13.2 13.2 0 0 0-1.61-3.58c-.28.18-.48.11-.72-.15-.92-1.02-1.81-2.09-2.82-2.95-.58-.5-1.36-.8-2.09-.92-1.07-.18-2.18-.07-3.26-.16-1.03-.08-1.92.46-2.85.9-.98.47-1.88 1.04-2.63 1.96-.16.2-.38.33-.59.48-1.39.97-2.38 2.49-3.26 3.98-1.01 1.72-1.9 3.62-2.21 5.77-.11.81-.5 1.58-.71 2.38-.12.45-.11.95-.17 1.42-.12.88-.19 1.76-.4 2.61a.67.67 0 0 1-.07.18c.02.22.04.45.03.69-.04 1.11 0 2.15.09 3.19.15.91.31 1.82.44 2.73 1.23 4.94 3.18 9.15 6.76 12.06 3.74 3.04 7.88 4.33 12.65 3.38-.14.5-.21.99-.39 1.42-.75 1.86-1.48 3.73-2.31 5.55-.79 1.76-1.67 3.48-2.56 5.18-.8 1.54-.48.44-1.43 1.86-.45.66-3.52 5.43-3.91 6.06.01 1.01.18 1.56 1.07 1.63.05-.07.11-.14.17-.21 1.3-1.7 2.45-3.57 3.6-5.42.71-1.13 1.35-2.34 1.95-3.56.74-1.52 1.41-3.09 2.1-4.65.59-1.32 1.2-2.62 1.74-3.97.38-.98.69-2 .98-3.01.27-.93.79-1.5 1.55-1.66 1.36-.28 2.59-1 3.78-1.79 1.12-.76 2.23-1.56 3.29-2.45.84-.71 1.64-1.55 2.39-2.41 1.07-1.24 2.11-2.52 3.12-3.84.47-.61.79-1.37 1.22-2.01 1.57-2.29 2.77-4.82 3.88-7.41.7.96 1.48 1.86 2.28 2.7.29.3.58.6.86.9.12.13.25.22.38.32l.12.08c.27.2.54.41.81.61.62.47 1.26.96 1.99 1.42 1.06.67 2.15 1.36 3.33 1.81 1.55.6 3.32 1.03 5.56 1.36 2.28.35 4.67.35 7.31.02.8-.1 1.6-.24 2.38-.38.02 0 .04 0 .06-.01.58-.24 1.24-.41 1.99-.43.24-.01.45.03.68.04.06-.16.18-.26.43-.35l.71-.27c1.45-.54 2.96-1.1 4.4-1.76.99-.45 1.96-.98 2.9-1.49.45-.25.9-.5 1.36-.74.23-.12.46-.23.7-.34.46-.23.95-.46 1.39-.76.78-.54 1.55-1.13 2.3-1.7.32-.24.64-.49.96-.73l.42-.32c.64-.48 1.27-.96 1.92-1.43.06-.04.15-.07.27-.11.01.01.01.03.02.05.09.22.17.42.22.64.98 3.87 2.16 7.66 3.51 11.25.74 1.97 1.42 3.93 2.2 6.27.8 2.4 1.65 4.96 2.43 7.55.36 1.18.65 2.41.93 3.6l.45 1.86c.27 1.1.55 2.23.76 3.36l.03.16c.36 1.95.74 3.97.97 5.96.29 2.51.52 5.14.69 8.07.06 1.12-.01 2.27-.08 3.38l-.14 2.3c-.13 2.12-.26 4.32-.49 6.47-.28 2.55-.7 4.56-1.34 6.32-.36 1-.69 2.02-1.02 3.03-.25.79-.51 1.58-.78 2.36-.14.41-.33.81-.54 1.27-.03.07-.06.15-.1.22-.07-.1-.13-.19-.19-.29l-.33-.58c-.71-1.25-1.42-2.5-2.1-3.76-.58-1.08-1.34-2.04-2.07-2.96-.5-.64-1.02-1.29-1.47-1.97-.72-1.09-1.64-1.99-2.54-2.86-.71-.68-1.44-1.39-2.05-2.18-.13-.17-.32-.27-.48-.36-.06-.03-.11-.06-.16-.09-.08-.05-.16-.1-.24-.14-.15-.08-.28-.15-.38-.24-1.6-1.44-3.46-2.52-5.26-3.57-.44-.25-.88-.5-1.31-.76-1.95-1.16-4.07-1.9-6.08-2.56l-.88-.29c-.84-.28-1.71-.57-2.59-.81-.79-.21-1.57-.36-2.41-.53-.28-.06-.57-.11-.86-.17.01-.16.03-.3.06-.44.17-.77.35-1.54.53-2.31.38-1.59.76-3.23 1.07-4.87.12-.61.23-1.22.33-1.84.25-1.44.51-2.94.91-4.37.18-.63.25-1.28.32-1.92.04-.33.07-.67.13-1 .13-.83.27-1.66.4-2.5.08-.46.1-.46.17-.92-.09.03-.53.37-.62.4-.67 3.51-.53 2.94-1.56 6.42-.15.53-.97 4.23-1.23 4.63-.03.14-.07.28-.11.42-.06.81-.25 1.6-.62 2.31-.08.45-.19.9-.31 1.38-.19.7-.34 1.42-.5 2.13-.12.56-.25 1.12-.39 1.68-.04.18-.11.46-.15.5-.06.03-.31.02-.5 0-.35-.02-.68-.06-1.02-.1-.57-.07-1.15-.14-1.74-.12h-.09c-2.54.07-5.18.14-7.76.35-2.05.18-4.22.41-6.32 1.17-1.42.51-2.69.93-3.89 1.29-1.8.55-3.67 1.36-5.7 2.5-1.39.79-2.83 1.6-4.14 2.6-.35.27-.71.54-1.07.81-1.02.76-2.07 1.54-3 2.43-1.61 1.54-3.06 3.2-4.52 4.9-.57.66-1.03 1.4-1.48 2.13l-.36.56c-.19.31-.4.61-.6.92-.59.89-1.2 1.81-1.65 2.79-.76 1.69-1.38 3.47-1.98 5.2l-.17.5c-.34.99-.66 1.95-.72 2.93-.04.56-.13 1.12-.22 1.67-.15.91-.3 1.86-.22 2.85.06.74.07 1.52.08 2.26.01.79.03 1.59.11 2.39-.15.03-.3.07-.44.1l-.37.08c-.81.18-1.65.36-2.4.88-.11.08-.28.13-.48.17.02-.06.04-.13.07-.19.03-.09.08-.18.13-.26.08-.16.17-.33.22-.53.07-.32.12-.65.16-.97.04-.27.08-.54.13-.8.12-.61.27-1.2.4-1.7.06-.23.14-.46.22-.68l.1-.28c.02-.05.04-.1.06-.16.06-.14.13-.3.14-.48.02-.29-.04-.56-.09-.83-.08-.37-.14-.69-.02-1.05.17-.49.15-1.01.13-1.51-.01-.29-.02-.57 0-.84.05-.47.12-.93.19-1.4.14-.98.29-1.98.19-3.02-.05-.56-.05-1.14-.05-1.7 0-.42 0-.84-.02-1.26-.01-.25-.07-.48-.12-.71a3.1 3.1 0 0 1-.11-.51c-.07-.74-.13-1.48-.2-2.22l-.09-1.19c-.01-.19-.03-.39-.08-.59-.15-.56-.31-1.11-.47-1.67-.31-1.05-.62-2.14-.86-3.23-.16-.7-.52-1.29-.87-1.86-.39-.64-.76-1.25-.83-1.98l-.03-.15-.1-.08c-.67-.66-1.17-1.45-1.7-2.35-.36-.6-.82-1.14-1.26-1.66l-.15-.17c-.5-.6-1.13-1.34-1.81-1.99-.54-.53-1.14-1-1.72-1.46l-.21-.17c-.26-.21-.55-.38-.82-.54l-.86-.52c-.43-.26-.85-.51-1.22-.74-.02-.02-.03-.1-.03-.16.02-.28.05-.56.07-.84.04-.32.07-.64.09-.97.04-.87.08-1.75.11-2.62l.07-1.67c.03-.61.05-1.23.09-1.85 0-.14.02-.27.03-.4.02-.25.05-.5.03-.75l-.01-.21c-.04-.79-.09-1.62-.46-2.44-.21-.48-.31-1.02-.42-1.59-.05-.29-.11-.59-.18-.88-.06-.22-.19-.46-.35-.62l-.16-.16c-.4-.42-.9-.94-1.86-.64-.75.23-1.51.55-2.06 1.32-.31.43-.6.89-.9 1.34l-.38.6c-.2.3-.41.62-.57.97-.28.61-.5 1.24-.67 1.77-.27.86-.53 1.71-.79 2.57l-.58 1.89c-.2.66-.4 1.32-.63 1.97-.04.12-.12.22-.2.25-.02 0-.07.03-.18-.03-.56-.29-1.1-.27-1.64-.26h-.3c-.71 0-1.64 0-2.57-.1-.82-.09-1.62.01-2.4.09-.9.1-1.74.19-2.6.05-.49-.07-.98.04-1.46.16-.16.05-.32.09-.48.12-.23.04-.46.11-.68.17-.21.05-.42.11-.62.15-.31.06-.62.12-.93.17-.44.08-.88.15-1.31.25-.69.16-1.38.35-2.07.54l-.63.18c-.47.12-.94.25-1.4.39-.37.12-.75.22-1.12.33-.89.25-1.81.51-2.69.86-1.5.59-2.91 1.28-4.47 2.04-1.86.91-3.84 1.9-5.82 2.98-.85.47-1.65 1.03-2.43 1.57l-.48.34c-.29.2-.56.43-.83.65-.32.25-.61.49-.92.7-.26.17-.52.33-.78.49-.81.51-1.64 1.03-2.33 1.77-.24.27-.53.48-.85.72-.14.11-.29.22-.43.33-.33.26-.66.52-.99.77-.75.59-1.53 1.19-2.25 1.85-.99.89-1.94 1.86-2.86 2.79l-.6.61c-.94.95-2.05 2.08-3.15 3.26-.34.37-.65.77-.95 1.16-.17.21-.33.42-.5.62-.09.11-.18.2-.28.3l-.18.18c-.13.13-.26.27-.39.4-.31.3-.62.62-.9.97-.42.54-.83 1.09-1.23 1.64-.38.52-.76 1.03-1.15 1.54-.15.19-.32.36-.51.54-.21.21-.44.42-.62.68-.63.88-1.28 1.85-1.98 2.97-.54.85-1.06 1.73-1.58 2.6l-.56.92c-1.26 2.11-2.6 4.38-3.77 6.68-.09.18-.2.34-.31.51-.15.22-.29.44-.4.69-.34.74-.65 1.47-.97 2.21-.23.54-.46 1.08-.7 1.62-.21.47-.43.94-.65 1.41-.25.54-.49 1.07-.73 1.62-.62 1.41-1.27 2.92-1.9 4.45-.42 1.02-.8 2.07-1.17 3.09l-.07.19c-.06.16-.1.33-.13.5-.04.16-.07.32-.13.47-.09.22-.21.44-.33.65-.1.17-.19.34-.28.52-.05.12-.09.17-.1.18a.795.795 0 0 1-.15-.11c-.38-.36-.97-.84-1.77-1.02-.32-.07-.62-.14-.93-.24-.26-.08-.53-.17-.79-.27-.5-.17-1.02-.35-1.55-.47-1.89-.42-3.81-.28-5.67-.15l-.58.04c-1.74.12-3.38.71-4.96 1.29-.43.16-.87.32-1.31.47-.96.33-1.89.75-2.8 1.15-.33.15-.65.29-.97.43-.19.09-.39.16-.58.24-.55.21-1.12.43-1.58.8-.5.41-1.05.77-1.59 1.11-.72.46-1.46.94-2.11 1.56-.58.54-1.21 1.05-1.82 1.55-.64.51-1.29 1.03-1.89 1.61-.73.69-1.39 1.48-2.02 2.25-.22.26-.44.53-.66.79-.42.49-.87 1.05-1.4 1.75-.53.7-.96 1.29-1.35 1.86-.11.15-.19.33-.28.5-.09.19-.17.36-.28.5l-.08.1c-.24.3-.49.61-.6 1.08-.04.21-.16.43-.28.66-.09.17-.17.33-.24.5-.08.2-.14.41-.21.63-.05.18-.11.36-.18.54-.11.3-.24.59-.36.88-.17.38-.33.77-.48 1.16-.32.88-.62 1.76-.92 2.64l-.27.81c-.07.18-.13.39-.16.6l-.07.41c-.17 1.12-.34 2.25-.49 3.38-.05.36-.06.73-.07 1.09l-.02.39c-.01.3-.03.6-.05.91-.05.7-.1 1.43-.05 2.14.07 1.04.19 2.08.32 3.09l.18 1.57c.13 1.24.44 2.5.91 3.76l.08.2c.21.57.44 1.17.69 1.75l.3.68c.35.82.72 1.67 1.17 2.46.53.93 1.15 1.83 1.75 2.69l.61.89c.4.59.81 1.2 1.31 1.72.72.77 1.52 1.47 2.3 2.15l.19.17c.54.47 1.09.92 1.64 1.36l.58.47c.08.06.16.09.23.1l.88.51 1.38.78.43.25c.56.32 1.15.65 1.75.93.37.18.77.3 1.16.42.15.04.3.09.45.14l.96.32c.81.27 1.65.55 2.49.79.54.15 1.1.25 1.64.35.25.05.5.09.75.14.13.03.27.06.41.1.31.07.67.15.98.17.38.02.76.01 1.14 0 .28 0 .56-.01.84 0 .4.01.83.05 1.36.13.2.03.4.07.61.12.35.08.72.15 1.09.17.58.01 1.17-.06 1.73-.12l.37-.04c.16-.02.24 0 .25.02.02.02.04.09.02.28-.03.24-.06.49-.03.75.07.61.16 1.21.25 1.82l.17 1.17c.22 1.44.43 2.89.65 4.33.04.21.09.41.14.62.04.15.08.3.1.45.05.24.09.48.13.71.06.39.13.78.21 1.16.09.38.2.76.3 1.14.12.42.24.83.33 1.25.08.37.14.74.2 1.12.09.5.17 1.02.31 1.53.29 1.11.66 2.22 1.01 3.3l.17.52c.27.86.59 1.84.95 2.76.19.49.37.98.55 1.47.53 1.48 1.09 3.01 1.96 4.4.28.42.48.89.7 1.38.14.32.28.64.44.95.47.89.89 1.66 1.31 2.35.16.26.31.53.46.79.45.8.91 1.63 1.62 2.31.43.41.81.98 1.15 1.69.48 1.03 1.13 1.93 1.98 2.77.33.33.65.68.97 1.02.2.22.4.44.6.65l.58.62c.54.57 1.09 1.16 1.68 1.7.79.75 1.65 1.44 2.47 2.12l.16.13c.64.52 1.15.9 1.65 1.22.65.42 1.33.82 2.01 1.21l.84.5c.28.17.57.35.88.47.72.28 1.44.54 2.16.81 1.02.37 2.04.75 3.05 1.15 1.07.43 2.15.48 3.07.47.18 0 .31.05.38.14.07.1.05.23.01.33-.35 1.06-.74 2.12-1.12 3.14-.21.58-.43 1.15-.65 1.72-.39 1.03-.8 2.09-1.16 3.15-.66 1.91-1.28 3.86-1.88 5.75l-.39 1.24c-.45 1.41-.92 2.86-1.31 4.31-.48 1.81-.89 3.67-1.29 5.47l-.08.33c-.39 1.73-.78 3.58-1.19 5.65l-.09.44c-.18.85-.36 1.72-.41 2.6-.06.91-.05 1.84-.05 2.74.01.48.01.96.01 1.44l-.03 1.21c-.02.56-.04 1.11-.04 1.67.01.41.06.81.11 1.21l.04.38.06.55c.05.49.1 1 .2 1.5.2.87.42 1.61.69 2.27l.06.17c.28.69.57 1.4 1.16 1.97l.51.49c.43.41.86.82 1.27 1.24.59.59 1.36.93 2.33 1 .81.06 1.62.01 2.24-.03.28-.03.52-.13.77-.24.07-.03.15-.07.23-.1.1-.03.19-.08.29-.12.07-.04.15-.08.23-.11l.54-.21c.45-.19.92-.38 1.39-.53 1.26-.39 2.19-1.2 3.01-2.02.46-.47.98-.9 1.55-1.28 1.33-.92 2.25-2.16 2.97-3.26.15-.22.32-.43.49-.63.4-.47.81-.95.96-1.63.05-.04.12-.1.17-.19.19-.33.43-.62.69-.94.42-.52.86-1.05 1.09-1.79.21-.68.53-1.32.87-1.99.27-.54.55-1.1.78-1.69.37-1 .87-1.98 1.34-2.93.2-.41.41-.81.61-1.22.04-.1.09-.19.15-.29.11-.19.22-.4.29-.63l.12-.45c.23-.8.44-1.56.78-2.31.36-.81.57-1.69.78-2.54l.1-.43c.1-.42.18-.85.26-1.29.13-.68.25-1.33.46-1.95.13-.38.22-.76.3-1.14.15-.68.29-1.32.68-1.87.12-.16.11-.34.1-.49v-.11c.02-.18.03-.35.04-.52.02-.37.04-.74.09-1.1.17-1.18.37-2.34.57-3.51.06-.32.13-.63.2-.95.14-.63.29-1.28.31-1.96.02-.64.13-1.3.23-1.94.05-.32.1-.63.14-.95l.12-1.04.22-1.81c.09-.68.17-1.36.24-2.04.06-.58.1-1.15.15-1.73.03-.46.07-.92.11-1.38.01-.19.05-.39.08-.58.05-.28.1-.56.11-.86.03-1.11.04-2.25.02-3.41-.01-.69.02-.91.51-1 .18-.03.26-.16.34-.27l.17-.17c.13-.14.27-.28.42-.41l.42-.3c.17-.11.34-.23.5-.36.12-.1.22-.22.33-.33.12-.14.23-.27.35-.34.33-.19.59-.44.85-.68.34-.32.67-.63 1.1-.76.19-.06.29-.22.36-.35l.04-.07c.03-.05.06-.11.09-.17.02-.03.05-.09.06-.11.19-.16.38-.31.57-.46.33-.27.68-.55.98-.87.66-.68 1.3-1.38 1.94-2.08.39-.42.78-.85 1.18-1.27.22-.23.44-.46.67-.69.35-.36.72-.73 1.06-1.12.48-.56.91-1.16 1.32-1.75l.12-.17c.24-.33.46-.67.69-1 .23-.35.47-.7.71-1.04.22-.3.44-.6.67-.89.31-.41.62-.82.91-1.25.28-.41.52-.85.75-1.27.09-.18.19-.36.29-.54.09-.15.18-.32.26-.48.18-.34.35-.67.56-.95l.05-.07c.54-.7 1.09-1.43 1.45-2.3.03-.07.08-.14.12-.21l.06-.09c.09-.14.17-.27.26-.41.19-.29.39-.6.56-.93.12-.23.21-.48.31-.72.12-.31.23-.6.39-.85.08-.14.17-.28.26-.41.41-.63.84-1.29.83-2.16.01-.03.06-.11.09-.15l.07-.12c.06-.09.12-.19.18-.28.11-.19.23-.38.32-.58.18-.38.34-.76.5-1.15.09-.23.19-.47.29-.7.13-.3.26-.59.4-.89.25-.57.5-1.15.74-1.73.08-.2.13-.42.17-.64.09-.39.17-.73.45-.98.14-.13.14-.29.15-.47l.03-.21c.02-.13.04-.25.08-.32.15-.3.32-.58.49-.87.14-.24.28-.48.42-.73.1-.18.12-.38.14-.57l.03-.65c.02-.4.04-.79.1-1.17.08-.57.24-1.13.37-1.56.11-.34.23-.67.36-1.01.1-.26.19-.53.28-.8.24-.71.51-1.51.72-2.32.06-.21.02-.42-.02-.61-.01-.07-.03-.15-.04-.22 0-.14-.01-.28.01-.39.15-.79.31-1.58.47-2.37l.38-1.92c.15-.73.3-1.47.44-2.21.03-.19.07-.38.11-.56.13-.57.25-1.16.23-1.75-.04-1.09.11-2.17.25-3.21.05-.33.09-.65.13-.97l.07-.54-.15.06c.01-.18.03-.37.05-.55.07-.81.14-1.61.19-2.41.05-.99.07-2 .09-2.97l.01-.55c0-.48.01-.96.01-1.43 0-.52 0-1.03.01-1.54.02-.95.05-1.67.1-2.35.01-.25.05-.49.09-.73.05-.39.11-.79.1-1.2-.03-.77-.09-1.54-.14-2.31-.05-.64-.1-1.28-.13-1.92-.01-.33 0-.66.02-.99.03-.47.05-.96-.02-1.44-.08-.61-.09-1.24-.1-1.85-.01-.82-.02-1.67-.21-2.52-.18-.82-.21-1.7-.25-2.55-.02-.44-.04-.87-.07-1.31-.03-.36-.06-.73-.08-1.09-.07-.97-.13-1.98-.31-2.96-.18-.99-.22-2.03-.26-3.04-.05-1.28-.1-2.61-.44-3.9-.07-.26-.07-.55-.06-.86 0-.26 0-.53-.04-.79-.12-.79-.26-1.56-.4-2.34-.08-.49-.17-.99-.25-1.48-.02-.12-.02-.25-.02-.37-.01-.14-.01-.29-.03-.43-.14-.96-.27-1.93-.44-2.89-.06-.36-.14-.73-.21-1.09-.07-.31-.13-.63-.19-.95-.06-.37-.11-.73-.16-1.1l-.18-1.29c-.1-.66-.2-1.33-.27-1.99-.05-.54-.09-1.07-.13-1.61-.05-.62-.1-1.24-.17-1.86-.04-.34-.11-.67-.19-1-.08-.35-.15-.69-.18-1.03-.11-1.27-.21-2.47.38-3.6.08-.15.1-.3.11-.44l.01-.11c.03-.16.05-.32.07-.47.04-.32.07-.63.14-.94.09-.39.19-.78.29-1.17.14-.53.28-1.08.39-1.63.11-.55.18-1.09.25-1.64.06-.43.11-.87.19-1.3.05-.28.13-.57.21-.86.07-.22.13-.44.18-.66.45-1.92.89-3.85 1.32-5.78.05-.25.12-.5.19-.74.2-.73.41-1.49.3-2.31-.01-.02 0-.07.02-.16l.18-.97c.15-.88.31-1.75.48-2.63.04-.25.1-.5.15-.74.14-.63.29-1.27.3-1.96.01-.91.14-1.84.26-2.75.06-.38.11-.76.15-1.13l.05-.46c.05-.43.1-.89.18-1.31.12-.55.25-1.1.38-1.65.09-.36.18-.73.26-1.09.08-.37.12-.74.16-1.04.07-.7.13-1.39.19-2.08.01-.2.02-.4.02-.6.02-.29.02-.59.06-.88.01-.05.06-.14.12-.22.06.04.13.08.18.12.31.25.61.49.89.75l.17.16c.29.29.6.59.83.91.23.33.44.68.63 1.03.17.28.33.56.5.83.12.17.26.33.39.49.15.16.28.31.37.47.43.74.84 1.53 1.23 2.28l.12.24c.39.75.77 1.52 1.14 2.28.01.02.02.08.03.11.02.13.05.31.21.43.39.29.51.72.66 1.22.04.16.09.31.14.47.14.39.27.79.4 1.19.21.67.43 1.37.71 2.03.44 1.03.61 2.1.79 3.23.05.28.09.56.14.84.12.65.2 1.31.28 1.97l.15 1.14c.06.36.11.72.17 1.08.19 1.2.38 2.45.39 3.71.01.62-.02 1.25-.05 1.87-.06 1.39-.13 2.82.19 4.23 0 .01-.01.06-.02.09l-.02.1c-.06.33-.12.65-.19.98-.15.76-.3 1.54-.35 2.33-.04.63-.42.97-.85 1.36l-.1.09c-.29.27-.61.52-.93.77-.38.3-.78.62-1.14.97-.63.62-1.22 1.3-1.79 1.96l-.47.54c-.46.53-.93 1.07-1.31 1.67-.58.89-1.11 1.82-1.63 2.72l-.47.83c-.23.4-.47.82-.65 1.27-.12.31-.2.63-.27.94-.06.2-.11.41-.17.61-.04.14-.11.27-.17.4-.11.25-.23.51-.26.8-.1.88-.23 1.67-.39 2.4-.15.7-.17 1.42-.18 2.12-.01.24-.01.47-.02.71-.02.57 1.01 1.66 1.54 1.74.2.03.37-.03.46-.07 1.56-.69 2.87-1.88 3.89-3.53.6-.98 1.13-2.02 1.65-3.03l.31-.6c.16-.32.28-.65.4-.97.05-.16.11-.32.18-.48.2-.5.4-1 .61-1.5.46-1.14.94-2.31 1.38-3.48.2-.55.35-1.13.49-1.68.08-.32.16-.64.25-.95.07-.24.16-.48.25-.72.18-.48.36-.98.41-1.5.08-.86.6-1.19 1.47-1.48.7-.23 1.47-.3 2.21-.33.35-.02.71 0 1.09.04.09.01.2 0 .3.01.24.99.54 1.92.91 2.78.19.42.35.84.52 1.27.3.78.62 1.6 1.04 2.35 1.27 2.29 2.97 4.46 5.35 6.81.3.3.63.57.95.83.23.19.46.38.68.59 1.75 1.59 3.73 2.85 5.92 3.75.22.09.44.19.66.28.38.17.76.34 1.15.48l.61.23c.14.05.28.1.41.15.05.13.1.26.14.39.16.46.28.95.4 1.43.07.26.14.52.21.77.07.26.15.52.22.78.15.5.29 1 .41 1.5.04.18.05.37.06.58.01.17.02.34.05.51.04.29.1.58.16.87.11.52.21 1.01.22 1.5.05 1.91.06 3.85.06 5.72l.01 2.01c0 .06-.01.12-.02.18l-.12 1.15c-.08.81-.15 1.63-.25 2.44-.02.18-.08.36-.13.51-.02.06-.04.12-.06.17l-.01.05v.06l.03.29c.02.13.04.25.02.33-.06.26-.14.53-.21.79-.09.28-.17.56-.23.84-.05.21-.07.42-.09.63-.02.24-.04.46-.1.67-.4 1.32-.84 2.66-1.34 4.1-.23.66-.51 1.31-.79 1.94l-.25.57c-.22.53-.46 1.08-.75 1.57-.42.7-.9 1.4-1.36 2.07-.19.28-.38.56-.56.84-.04.05-.08.12-.12.18-.07.12-.13.23-.21.3-.15.13-.3.25-.45.38-.5.4-1.01.83-1.37 1.47-.24.43-.67.85-1.22 1.18-.44.27-.86.56-1.29.85-.63.44-1.29.89-1.98 1.24-1.15.59-2.47.8-3.94.65-1.67-.18-3.23-.99-4.92-2.55-.73-.68-1.4-1.56-1.93-2.55l-.28-.5c-.59-1.08-1.21-2.19-1.29-3.45a1.22 1.22 0 0 0-.15-.48c-.48-.84-.64-1.78-.78-2.83-.09-.61-.06-1.27-.04-1.97l.01-.19c.03-.88.06-1.8.17-2.68.16-1.22.41-2.48.62-3.59.14-.7.26-1.28.49-1.83.5-1.23 1.06-2.5 1.73-3.91.35-.73.71-1.48 1.19-2.09.78-.99 1.67-1.92 2.52-2.78.94-.96 1.79-1.38 2.75-1.36.2 0 .4.07.62.13.19.05.38.11.57.13.98.14 1.56.83 2.18 1.56.11.12.21.25.32.37.35.4.6.95.83 1.48.07.16.13.31.2.46.1.21.21.43.32.64.34.64.66 1.25.67 1.96v.22c0 .29 0 .59.08.89.25 1.01.25 1.78 0 2.49-.06.18-.14.5.01.73.14.22.09.42-.02.75-.05.17-.1.33-.11.5-.01.1-.04.19-.07.29l-.05.16c-.11.42-.21.84-.32 1.26-.24 1-.5 2.02-.81 3.01-.17.51-.41 1-.67 1.51-.15.29-.3.58-.43.88-.16.36-.22.65-.15.96.03.19.09.51.36.63.18.07.37.04.58-.11.33-.22.62-.57.84-.98.28-.55.53-1.11.78-1.66l.28-.65.2-.56-.06.02c.12-.32.24-.65.34-.99.06-.18.09-.36.13-.55.02-.15.05-.3.09-.45.06-.18.14-.36.22-.54.2-.44.43-.95.3-1.58.02-.05.03-.1.04-.15.06-.29.13-.59.2-.88.16-.69.33-1.41.38-2.13.08-1.02.04-2.14-.1-3.33-.03-.22-.05-.45-.07-.69-.08-.82-.15-1.68-.58-2.46-.01-.02-.01-.07-.01-.1 0-.07-.01-.16-.03-.25-.03-.1-.05-.2-.08-.3-.07-.29-.14-.6-.32-.87-.42-.62-.91-1.25-1.5-1.91-.41-.47-.88-.95-1.41-1.31-.93-.61-2.02-.76-3.44-.46-1.77.36-3.58.92-4.85 2.52-.12.16-.25.3-.37.45-.15.19-.31.37-.46.57-.32.41-.63.82-.93 1.25-.29.42-.62.92-.94 1.45-.3.52-.61 1.09-1 1.85-.2.38-.38.77-.56 1.17l-.1.22-.18.39c-.17.34-.34.69-.45 1.06-.4 1.33-.81 2.77-1.24 4.42l-.09.33c-.16.56-.32 1.14-.31 1.72 0 .65-.05 1.31-.1 1.95-.1 1.23-.2 2.51.09 3.79.08.32.13.65.18.97.02.17.05.33.07.49l.03.12c.01.03.02.07.02.09.01.13.01.26.01.4 0 .3.01.61.08.92.15.68.37 1.34.59 1.99l.2.61c.18.59.37 1.19.66 1.75.29.59.68 1.13 1.05 1.66.12.16.23.32.35.49 1 1.45 1.98 2.38 3.1 2.94 1.53.77 3.18 1.5 5.09 1.29 1.87-.21 3.36-.67 4.69-1.44.28-.17.58-.31.88-.43.06-.03.13-.05.2-.07.29-.08.67-.2.84-.65.49-.03.77-.35 1-.6.05-.05.09-.11.14-.16l.62-.63c.28-.3.57-.6.86-.89 1.55-1.56 2.63-2.87 3.5-4.25.17-.27.35-.54.53-.81.32-.47.64-.96.92-1.46.41-.76.78-1.54 1.14-2.3l.52-1.11c.23-.46.46-.94.63-1.44.11-.3.17-.61.23-.91.04-.22.08-.44.15-.66.14-.47.29-.94.44-1.41.21-.66.41-1.32.6-1.98.11-.43.17-.86.22-1.28.03-.2.05-.4.09-.6.02-.13.04-.27.08-.38.05-.11.09-.21.14-.31.11-.22.22-.44.26-.7.04-.27.05-.54.05-.8.01-.27.01-.52.06-.75.04-.28.13-.55.22-.83.08-.27.17-.55.22-.82.1-.52.15-1.04.19-1.55l.02-.17c.02-.33.04-.67.07-1 .03-.49.06-.99.12-1.48.03-.26.09-.51.15-.77.07-.28.14-.57.17-.87.08-.74.11-1.49.15-2.21l.01-.38c.01-.16-.01-.32-.02-.49-.01-.11-.02-.22-.02-.33v-.74c.01-.43.02-.86 0-1.29-.05-.91-.15-1.83-.24-2.78-.02-.21-.05-.42-.07-.63.43.12.86.23 1.29.33l.12.03c.3.08.64.17.93.04.38-.17.78-.13 1.19-.09.17.02.34.04.51.04.53.02 1.05.03 1.58.05 1.12.04 2.27.09 3.41.07.85-.01 1.71-.09 2.55-.17.39-.04.79-.08 1.18-.11.18-.02.6-.05.7.03.09.09.12.51.14.74.08 1.4.2 2.93.36 4.79.06.7.14 1.4.23 2.09l.09.74c.02.21.05.41.1.61l.18.77c.18.8.36 1.59.57 2.38l.51 2.09c.45 1.84.92 3.75 1.49 5.6.12.39.23.79.35 1.19.56 1.91 1.14 3.89 2.23 5.66.09.15.16.34.23.54l.04.12c.37.99.84 1.91 1.2 2.6.85 1.6 1.95 2.99 3 4.29 2.4 2.96 4.66 5 7.1 6.4.77.44 1.63.87 2.62 1.32.51.23 1.06.39 1.58.46.39.05.78.06 1.15.07.33.01.67.01 1 .05.1.01.23.08.35.15.18.08.36.18.56.19.06.01.11.01.17 0 .62-.1 1.24-.11 1.9-.12.9-.02 1.83-.04 2.76-.29l.5-.13c.96-.25 1.95-.5 2.86-1.02.18-.1.34-.22.51-.35.24-.19.48-.37.69-.4.59-.09.95-.42 1.27-.72.08-.07.16-.15.25-.22.15-.12.28-.27.41-.41.14-.15.27-.3.41-.4 1.34-1.01 2.4-1.98 3.34-3.06 1.12-1.29 2.07-2.59 2.89-3.98.18-.29.32-.6.45-.9.12-.26.24-.52.39-.77.16-.29.35-.57.53-.84.48-.69.97-1.41 1.1-2.33.02-.1.11-.23.2-.36.07-.1.14-.21.19-.32l.08-.14c.15-.3.31-.62.43-.96.15-.45.3-.92.44-1.38.16-.5.32-.99.48-1.48.12-.35.26-.69.4-1.03.24-.6.49-1.21.64-1.85.17-.74.35-1.48.53-2.22.57-2.32 1.15-4.73 1.36-7.18.08-.93.21-1.88.34-2.79.15-1.09.3-2.21.37-3.33.13-1.98.17-4.12.13-6.46.34-.16.67-.31 1-.47.38-.19.73-.47 1.11-.67.33-.17.69-.24 1-.45.59-.42 1.26-.56 1.79-1.13.15-.15.39-.19.59-.3.29-.17.58-.35.87-.51.27-.14.53-.26.8-.39.09-.04.18-.06.26-.12.54-.38 1.07-.77 1.61-1.14.59-.41 1.16-.8 1.78-1.16.73-.42 1.4-1.08 2.1-1.62.24-.19.49-.37.75-.5.71-.37 1.26-.96 1.86-1.51.56-.52 1.22-.92 1.83-1.39.43-.34.84-.7 1.26-1.05.26-.22.53-.42.78-.64.5-.47.99-.96 1.5-1.42.2-.18.45-.28.65-.46.26-.23.5-.51.75-.76 1.71-1.67 3.42-3.33 5.1-5.04 1.01-1.02 1.85-2.22 2.96-3.12.12-.1.21-.25.32-.37.37-.4.77-.78 1.11-1.2.59-.72 1.15-1.47 1.72-2.21.38-.49.76-.99 1.11-1.5.52-.78 1.18-1.43 1.77-2.15.56-.68.99-1.46 1.51-2.17.38-.53.81-1.02 1.22-1.53.1-.13.23-.27.27-.4.21-.71.79-1.24 1.13-1.87.19-.36.4-.72.62-1.06.15-.25.36-.47.52-.71.51-.78.99-1.57 1.52-2.34.2-.29.32-.53.4-.85.06-.26.4-.52.58-.8.2-.32.35-.66.52-.99.49-.94.97-1.88 1.45-2.82.05-.09.12-.17.15-.26.27-.72.53-1.43.79-2.15.07-.18.13-.37.16-.55.08-.65.36-1.24.8-1.81.17-.22.23-.51.32-.77.13-.34.33-.7.35-1.01.01-.39.31-.69.41-1.02.16-.58.14-1.16.35-1.73.27-.75.26-1.42.28-2.11.01-.34.16-.72.17-1.06.03-1.05.01-2.09.02-3.13.01-.33.12-.71.07-1a25 25 0 0 0-.53-2.31c-.11-.38 0-.73.28-1.09.18-.24.39-.46.58-.69.07-.08.17-.16.19-.24.24-.78.97-1.19 1.43-1.79.17-.23.39-.41.57-.63 1.13-1.44 2.21-2.94 3.42-4.31 1.27-1.43 2.33-2.96 3.35-4.53.62-.95 1.23-1.91 1.84-2.87.05-.09.11-.18.14-.27.4-1.1 1.09-2.08 1.72-3.09.27-.44.5-.89.7-1.35.45-1.01.85-2.03 1.29-3.05.3-.69.69-1.37.93-2.06.27-.75.4-1.52.6-2.28.18-.68.44-1.36.38-2.02-.01-.09.03-.21.07-.31.37-.87.49-1.71.48-2.54-.02-.72.04-1.47-.03-2.17zm-52.47 36.14c-.16.84-.36 1.72-.78 2.38-.16.24-.42.54-.77.55-.31.01-.62-.2-.89-.57-.42-.59-.89-1.29-1.17-2.04-1.85-4.97-2.54-9.93-2.04-14.75.15-1.5.24-1.63 1.49-2.75.99.63 1.66 1.57 2.1 2.93 1.47 4.55 2.98 9.25 2.06 14.25zM184.1 37.82c.4-.73.77-1.5 1.21-2.18.76-1.16 1.56-2.28 2.38-3.37.13-.18.47-.16.72-.23-.04.28 0 .61-.12.82-.23.41-.55.75-.83 1.11-1.1 1.4-2.19 2.8-3.29 4.2l-.11-.11c.02-.08.01-.18.04-.24zM154.99 96.9c-.1.25-.44.53-.67.55-1.29.11-2.57.1-3.86.24-1.32.14-2.47-.46-3.69-.81-2.04-.58-3.74-1.95-5.51-3.16-.32-.21-.62-.5-.85-.83-.94-1.35-1.94-2.65-2.65-4.22-.38-.83-.83-1.62-1.16-2.49-.32-.84-.55-1.74-.77-2.63-.02-.08-.03-.18-.03-.28l-.17-.41c-.21-.46-.31-.95-.31-1.46-.07-.49-.03-.98.1-1.45.07-.31.19-.59.32-.84-.01-.8-.01-1.59-.01-2.38-.03 0-.05.01-.08.02.12-.93.18-1.77.36-2.58.18-.84.53-1.65.72-2.5.33-1.5.81-2.9 1.63-4.15.64-.99 1.2-2.08 1.95-2.93.91-1.03 1.96-1.89 3-2.76 1.24-1.03 2.62-1.58 4.1-1.77.74-.09 1.51-.42 2.23-.33 1.44.19 2.75.72 3.79 1.76.22.1.43.22.61.4 1.38 1.29 2 2.55 2.5 4.6.02.07.02.13.04.19 0 0 .01 0 .02-.01.29 1.37.62 2.63.83 3.93.24 1.41.42 2.85.54 4.3.09 1.15.09 2.33.06 3.5-.02 1.03-.13 2.05-.2 3.08-.09 1.15-.16 2.3-.28 3.45-.08.78-.24 1.56-.36 2.34-.2 1.27-.39 2.55-.62 3.82-.14.75-.43 1.48-.51 2.23-.13 1.29-.61 2.43-1.07 3.58zm19.89-23.11c-.67-1.19-1.25-2.4-1.65-3.61-.79-2.45-1.15-5.09-1.05-7.82.04-1.02.08-2.18.29-3.26.45-2.29.86-4.18 1.81-5.98.25-.47.47-.95.69-1.42.32-.69.65-1.4 1.05-2.04.55-.91 1.21-1.78 1.84-2.63.25-.33.5-.66.74-.99l.15-.21c.19-.27.37-.53.59-.72.19-.15.38-.3.56-.45-.05.22-.07.48-.12.7.06-.01.13 0 .21.02-.07.29-.13.55-.19.83 0 .75-.16 1.4-.43 1.95-.15.64-.29 1.29-.41 1.94-.12.67-.16 1.35-.25 2.03-.11.76-.25 1.51-.34 2.27-.12 1.04-.18 2.09-.3 3.13-.17 1.4-.36 2.78-.55 4.17-.11.85-.23 1.7-.38 2.55-.12.74-.29 1.49-.42 2.23-.15.82-.25 1.64-.43 2.44-.23.99-.52 1.97-.79 2.95-.18.65-.42 1.28-.62 1.92zm48.15-1.35c-.08-.15-.14-.28-.17-.41-.31-1.09-.61-2.18-.89-3.28-.08-.31-.13-.63-.19-.95l-.12-.66c-.12-.57-.25-1.13-.37-1.69-.26-1.15-.53-2.35-.72-3.53-.24-1.41-.4-2.85-.55-4.25l-.14-1.28c-.05-.46-.11-.92-.17-1.38-.16-1.26-.32-2.55-.37-3.83-.1-2.61-.13-5.46-.1-8.7.02-1.91.13-3.62.34-5.23l.05-.45c.3-2.33.6-4.73 1.33-6.99.76-2.38 1.62-4.78 2.44-7.02.17-.48.42-.93.68-1.41.11-.22.23-.44.34-.66.13-.26.25-.52.38-.78.27-.57.55-1.17.89-1.7.63-1.01 1.34-2 2.03-2.95l.39-.55c.22-.31.46-.61.71-.91.16-.2.33-.41.49-.62.66-.87 1.56-1.61 2.75-2.28 1.56-.88 3.01-1.26 4.38-1.15.8.06 1.58.29 2.34.7.91.48 1.52 1.33 2.05 2.18.74 1.21 1.24 2.48 1.51 3.88l.03.15c.34 1.7.68 3.45.63 5.21-.01.7.01 1.41.04 2.09.03.95.06 1.92-.02 2.86-.04.41-.07.81-.1 1.22-.15 1.89-.3 3.84-.85 5.69-.21.7-.34 1.43-.46 2.13-.05.32-.11.64-.17.96a.59.59 0 0 0-.02.14c-.01.04-.01.08-.02.12-.2.73-.38 1.47-.56 2.2-.41 1.64-.83 3.34-1.36 4.97-.79 2.41-1.73 4.89-2.89 7.56-.88 2.05-1.96 4.03-2.9 5.72-1.07 1.93-2.24 3.98-3.54 5.93-2.41 3.6-4.45 6.22-6.61 8.49-.14.15-.31.29-.5.45l-.01.01zM40.54 215.88c-.04.32-.08.65-.13.97l-.18 1.28c-.11.7-.21 1.4-.3 2.11-.09.74-.16 1.49-.24 2.24-.04.46-.09.91-.14 1.36-.02.28-.06.5-.12.7-.25.79-.26 1.59-.27 2.36 0 .21 0 .42-.01.63-.02.74-.08 1.49-.14 2.22-.05.6-.1 1.2-.13 1.79-.02.42-.01.84 0 1.26.01.35.02.7.01 1.04-.01.43-.04.87-.07 1.3-.04.62-.09 1.26-.08 1.89.02 1.99.08 4.12.18 6.72.02.49.08.98.14 1.45.04.38.09.76.11 1.14.02.28-.01.45-.08.53-.08.08-.25.11-.51.11l-.71-.02c-1.56-.03-3.17-.06-4.75-.21-.5-.05-.98-.23-1.5-.42-.28-.11-.56-.21-.84-.29-.21-.07-.43-.11-.64-.16a5.31 5.31 0 0 1-.83-.22c-.38-.15-.75-.34-1.11-.52-.3-.15-.59-.3-.89-.43a4.42 4.42 0 0 0-.55-.17c-.18-.04-.36-.09-.5-.16-.68-.36-1.35-.75-2.02-1.14l-.92-.53c-.43-.24-.88-.49-1.29-.77-.17-.11-.32-.28-.48-.45-.07-.07-.14-.15-.21-.22-.06-.05-.11-.11-.16-.17l-.35-.39c-.26-.29-.53-.58-.79-.86-.12-.12-.27-.27-.46-.35-.91-.37-1.48-1.12-2.13-1.97-.21-.29-.45-.54-.69-.79-.19-.21-.38-.41-.56-.63l-.45-.54c-.53-.62-1.02-1.21-1.34-1.94-.25-.57-.58-1.09-.9-1.59-.22-.35-.44-.69-.63-1.05-.24-.45-.44-.93-.63-1.41l-.24-.57-.03-.07c-.12-.29-.25-.57-.35-.86-.1-.31-.2-.61-.3-.92-.07-.23-.14-.46-.22-.68-.03-.11-.06-.21-.08-.32-.08-.33-.16-.71-.52-1.03-.05-.04-.09-.27-.11-.39-.01-.09-.02-.18-.04-.26-.33-1.49-.57-3.1-.74-5.09-.12-1.45-.11-2.85.04-4.28.05-.42.05-.86.04-1.27 0-.31 0-.61.02-.91.02-.43.09-.88.19-1.33.3-1.34.57-2.44.85-3.48.03-.11.06-.23.08-.34.11-.44.21-.89.45-1.16.4-.47.56-1.01.73-1.53.13-.44.26-.86.53-1.21.28-.38.51-.78.73-1.18.17-.32.35-.64.55-.93.59-.86 1.22-1.76 1.93-2.59 1.39-1.62 2.65-3.07 4.02-4.45 1.03-1.02 2.17-1.92 3.39-2.66.33-.2.64-.42.96-.64.47-.34.92-.67 1.42-.9 1.14-.53 2.28-1.05 3.43-1.56l.74-.34c.23-.1.45-.21.68-.32.55-.27 1.07-.52 1.62-.67.37-.1.74-.22 1.11-.33.9-.27 1.83-.56 2.8-.65.43-.05.86-.13 1.28-.21.64-.13 1.24-.25 1.85-.23.63.02 1.26.06 1.88.1.51.03 1.02.06 1.52.08.07.01.14.01.2.01 1.02.08 1.96.44 2.95.82.25.09.5.19.76.28.18.07.35.2.54.35.09.07.19.14.29.21l.01.01c.41.25.4.48.17 1.11-.3.81-.57 1.64-.84 2.47-.18.54-.36 1.08-.55 1.62-.09.27-.2.53-.31.79-.14.32-.28.66-.39.99-.34 1.1-.65 2.21-.92 3.19-.13.49-.27.98-.4 1.46a87.86 87.86 0 0 0-1.08 4.1c-.43 1.88-.82 3.8-1.19 5.65l-.4 1.98c-.19.94-.39 1.91-.55 2.89-.09.51-.15 1.03-.21 1.55zm33.16 84.24c-.58-.11-1.15-.22-1.72-.36-.51-.12-1.03-.3-1.53-.47l-.56-.19c-.25-.08-.5-.16-.73-.27-.35-.18-.71-.37-1.06-.55-.59-.31-1.2-.62-1.82-.9-.97-.44-1.78-1.08-2.64-1.75-.57-.45-1.16-.91-1.79-1.3a14.73 14.73 0 0 1-2.52-1.98c-.74-.73-1.43-1.53-2.11-2.3-.28-.33-.57-.66-.85-.98l-.14-.15c-.55-.62-1.11-1.24-1.66-1.87-.13-.15-.26-.33-.39-.54-.73-1.14-1.46-2.28-2.18-3.42a.756.756 0 0 1-.08-.2c-.03-.09-.07-.17-.11-.25l-.74-1.38c-.52-.97-1.04-1.94-1.54-2.92l-.05-.09c-.24-.46-.47-.9-.59-1.4-.11-.44-.33-.82-.55-1.19a5.8 5.8 0 0 1-.39-.73l-.27-.62c-.49-1.18-1.01-2.4-1.4-3.62-.89-2.81-1.72-5.7-2.53-8.48l-.22-.76c-.71-2.46-1.13-4.93-1.45-7.03-.11-.72-.25-1.44-.39-2.16-.11-.57-.22-1.15-.32-1.72-.1-.63-.16-1.27-.17-1.88 0-.13-.01-.25.47-.3l.2-.02c.61-.05 1.24-.11 1.85-.26.94-.23 1.89-.52 2.8-.79l1.04-.32c.81-.24 1.65-.49 2.47-.8.41-.15.8-.35 1.19-.55.25-.13.5-.26.76-.37.34-.15.69-.29 1.04-.43.45-.18.91-.37 1.35-.58.66-.31 1.32-.65 1.98-.99l.33-.17c.03.22.17.4.26.51.04.06.08.11.11.17.05.08.06.11.06.11-.05 1.24.28 2.4.6 3.56.04.12.09.31.06.4-.17.67 0 1.27.17 1.84.04.14.09.29.12.44l.06.24c.13.49.25 1.01.42 1.51.32.96.66 1.93 1.01 2.86.3.78.65 1.69 1.07 2.58.29.63.61 1.25.93 1.85l.33.62c.07.13.16.24.28.39l.34.42c.29.36.58.72.89 1.06.28.3.58.58.88.87l.36.34c.15.15.32.3.48.46.36.33.72.67 1.05 1.03.44.5 1 .76 1.53 1.01l.21.09c.18.09.36.19.54.29.37.19.74.4 1.16.52.7.22 1.46.35 2.2.39.93.04 1.81.01 2.61-.11 1.33-.19 2.44-.59 3.4-1.22.21-.14.44-.26.66-.37.2-.1.4-.2.59-.32.3-.19.61-.41.95-.69.28-.23.54-.47.81-.72l1.22-1.09c.77-.68 1.54-1.36 2.3-2.06.2-.19.36-.41.52-.62l.16-.23c.21-.27.43-.54.64-.82.52-.66 1.05-1.34 1.52-2.05.29-.45.54-.93.77-1.4.04.05.08.09.12.13.32.31.66.52 1 .61.7.19 1.45-.07 2.17-.78.14-.14.26-.29.35-.45.04.61.07 1.24.09 1.85l.08 2.15.09 2.33c.01.26.07.51.13.73.24.92.16 1.59-.28 2.25-.35.52-.6 1.1-.85 1.66-.11.26-.22.51-.34.76l-.39.79c-.27.55-.54 1.1-.79 1.66-.12.26-.22.54-.31.81-.08.24-.17.49-.27.73-.3.68-.62 1.36-.93 2.04-.21.45-.42.9-.62 1.35a42.3 42.3 0 0 0-.68 1.54l-.36.82c-.17.36-.32.73-.47 1.1-.35.84-.71 1.72-1.17 2.49-.3.49-.49 1.01-.67 1.51-.13.37-.26.72-.43 1.06-.09.19-.19.38-.29.56-.17.32-.34.64-.48.97-.23.52-.45 1.05-.66 1.57-.2.51-.41 1.02-.63 1.52-.18.41-.37.82-.56 1.23-.22.45-.43.91-.63 1.38-.28.65-.52 1.31-.77 1.97l-.3.79c-.03.07-.05.15-.07.22-.03.09-.06.18-.09.26-.15.3-.29.61-.44.91-.23.49-.47.98-.7 1.49-.11.26-.21.53-.3.81-.06.18-.13.37-.2.55-.13.35-.28.7-.42 1.06-.19.45-.37.91-.55 1.36-.17.47-.33.96-.46 1.45-.06.26-.17.38-.53.29-.55-.13-1.09-.24-1.64-.35zm24.13-126.64c.04.93.08 1.89-.03 2.84-.12.88-.18 1.78-.25 2.65-.06.84-.13 1.7-.23 2.54-.07.54-.22 1.07-.39 1.64-.08.27-.16.54-.23.82l-.32 1.31c-.2.79-.39 1.59-.61 2.39l-.15.59c-.29 1.08-.58 2.19-.94 3.26-.44 1.3-.93 2.61-1.42 3.88l-.76 2.04c-.32.89-.66 1.8-1.05 2.67-.46 1.03-.98 2.06-1.48 3.05l-.66 1.32-.05.11c-.04.07-.08.15-.11.22-.15.34-.3.68-.44 1.02-.32.75-.65 1.51-1.01 2.24-.18.36-.41.7-.66 1.06-.19.27-.38.55-.54.84-.16.28-.29.57-.42.86-.09.21-.18.42-.29.63-.06.12-.16.24-.27.37-.07.08-.13.17-.19.25-.2.27-.36.55-.52.84-.25.43-.48.84-.82 1.19-.31.32-.5.73-.69 1.13-.1.22-.21.45-.34.65-.21.34-.44.67-.68.99-.14.2-.29.4-.43.61-.1.14-.19.29-.28.43-.1.18-.21.35-.33.51-.34.46-.66.95-.96 1.42-.57.86-1.16 1.76-1.92 2.51-.67.66-1.23 1.45-1.77 2.21-.29.41-.58.82-.88 1.2-.15.18-.33.34-.52.51-.14.13-.29.26-.43.4-.23.25-.46.5-.68.75-.33.37-.66.73-1.01 1.07-.53.53-1.09 1.04-1.65 1.55l-.72.66c-.18.16-.36.33-.53.5-.4.37-.79.74-1.2 1.08-.82.7-1.65 1.37-2.48 2.04l-.78.63c-.7.57-1.41 1.14-2.12 1.69-.42.32-.87.62-1.34.92v-.03c-.03-.36-.04-.72-.06-1.07-.05-1.08-.1-2.2-.28-3.28-.07-.47-.03-.93.01-1.41.03-.34.06-.69.04-1.05-.01-.32-.05-.64-.08-.95-.05-.38-.09-.73-.09-1.09 0-.63.04-1.28.09-1.91.01-.27.03-.53.04-.79l.16-2.81c.04-.72.07-1.45.13-2.17.08-1.09.21-2.15.32-3.04.03-.19.09-.39.15-.6.03-.09.06-.18.09-.28l.03-.09c.03-.07.06-.15.07-.26.03-.24.05-.48.07-.72.03-.43.07-.85.13-1.27.07-.53.17-1.07.27-1.6l.37-2.03c.25-1.41.52-2.87.81-4.3.31-1.5.65-3 .98-4.5.21-.93.42-1.87.62-2.8.06-.25.09-.51.12-.77.05-.45.1-.88.28-1.21.31-.57.4-1.16.5-1.73.07-.43.14-.84.29-1.23.29-.71.49-1.45.68-2.17.13-.49.26-.97.42-1.44.56-1.73 1.18-3.58 1.85-5.38.59-1.59 1.24-3.14 1.91-4.71.12-.29.28-.57.45-.86.16-.26.31-.52.44-.79.25-.55.54-1.09.82-1.61.27-.5.54-1.01.78-1.52.41-.85.98-1.64 1.53-2.41.25-.35.5-.69.73-1.04l.28-.42c.33-.49.66-.97 1-1.45.11-.16.25-.31.39-.46l.01-.01.05.04.19-.24c.23-.28.45-.57.67-.86.48-.63.97-1.28 1.51-1.86.94-1.01 1.84-1.83 2.73-2.52 1.17-.9 2.74-2.02 4.54-2.72.51-.2 1.15-.21 1.71-.2.89.03 1.57.11 2.16.28.5.14.98.49 1.41.8.83.61 1.76 1.38 2.32 2.49.09.19.24.33.37.46l.09.09c.36.38.46.88.56 1.41.06.26.11.53.19.78.28.83.44 1.74.61 2.61l.12.67c.02.11.01.24-.01.39-.02.13-.04.26-.03.39 0 .38.02.77.04 1.16zm-8.1 77.83.63-1.5c.16-.41.33-.81.5-1.21.05-.13.07-.26.08-.37.01-.08.02-.15.04-.2.05-.15.11-.29.16-.43.03.44.05.89.07 1.33.03.75.07 1.5.11 2.24.02.27.04.55.07.82-.02-.03-.04-.05-.06-.07-.37-.39-.94-.61-1.56-.61h-.04zm4.15 51.8c-.02.26-.05.52-.07.78-.05.37-.09.75-.1 1.13-.01.24.01.48.03.72.02.2.04.39.04.59a32.3 32.3 0 0 1-.12 2.41c-.12 1.46-.29 3.39-.5 5.36-.05.54-.14 1.07-.22 1.61-.07.49-.14.98-.2 1.47-.05.42-.08.85-.11 1.27-.03.47-.06.94-.12 1.41-.06.49-.17.99-.28 1.47l-.12.53c-.05.25-.11.51-.16.76-.09.4-.18.8-.25 1.2-.08.4-.15.8-.21 1.2-.11.63-.22 1.29-.37 1.93-.17.75-.39 1.5-.61 2.22l-.19.63c-.2.69-.42 1.37-.63 2.05l-.34 1.06c-.26.83-.52 1.67-.8 2.5-.11.33-.25.65-.38.97-.08.18-.15.35-.22.53-.06.13-.1.26-.15.4-.08.21-.16.42-.26.63l-.2.46c-.37.86-.72 1.67-1.25 2.41-.33.46-.62.95-.89 1.43-.2.33-.39.66-.6.99-.4.62-.85 1.23-1.25 1.75-.47.62-.96 1.24-1.44 1.85l-.01.01-.11-.1-.21.22-.54.57c-.41.44-.83.88-1.27 1.28-.58.53-1.17 1-1.75 1.37-.91.59-1.91 1.15-3.05 1.28-.18.02-.35.02-.53.02h-.2c-.24 0-.48.01-.72.02-.55.02-1.12.05-1.66-.01-.62-.06-1.07-.54-1.52-1.07a8.17 8.17 0 0 1-1.07-1.61c-.18-.36-.29-.77-.4-1.2-.05-.17-.09-.33-.14-.49l-.13-.44c-.14-.43-.27-.84-.34-1.27l-.05-.22c-.17-.98-.36-1.99-.42-2.99-.09-1.38-.1-2.76-.08-4.4 0-.46.07-.9.13-1.38.04-.21.07-.43.09-.65.01-.07.02-.15.04-.23.03-.19.06-.39.04-.6-.09-1.09.1-2.18.29-3.24l.12-.7c.12-.73.29-1.46.45-2.17.12-.5.24-1 .34-1.51.06-.31.1-.63.13-.95.04-.38.08-.73.16-1.08.61-2.46 1.1-4.34 1.61-6.11.24-.86.53-1.73.81-2.57.19-.58.38-1.15.56-1.73.14-.45.27-.9.39-1.36.13-.49.27-.97.42-1.45.38-1.17.81-2.53 1.3-3.85.52-1.39 1.08-2.78 1.62-4.14l.31-.77c.13-.33.28-.64.42-.95l.1-.21c.98.2 2.02.18 3.26-.07.26-.05.51-.07.77-.09.13-.02.26-.03.39-.04l.95-.1c.78-.09 1.56-.17 2.34-.28.3-.05.58-.15.86-.26.15-.05.29-.11.44-.15.37-.11.74-.22 1.11-.32.69-.2 1.39-.4 2.07-.63.33-.1.63-.26.92-.41.22-.12.44-.24.68-.33.23-.09.48-.17.73-.24.3-.09.61-.18.91-.31.23-.1.4-.26.57-.41.09-.08.17-.16.26-.22.09-.07.2-.13.31-.2 0 .2.06.38.11.52.03.09.06.17.07.24.08.84.1 1.71.12 2.56l.01.43c.01.36 0 .75-.04 1.27zm-.14-7.4c0 .09-.09.22-.18.37-.04.07-.09.14-.14.22l-2.48 1.18c-.2.09-.41.19-.61.28-.08.04-.15.08-.22.12-.06.04-.11.07-.18.1l-.3.14c-.56.26-1.13.51-1.7.75-.15.06-.32.1-.5.13-.1.02-.2.04-.3.07-.39.09-.78.2-1.16.3-.93.23-1.88.48-2.82.68-.3.06-.62.06-.96.06-.25 0-.5 0-.75.02-.58.06-1.15.13-1.72.2-.51.07-1.02.13-1.53.18-.19.02-.31.01-.37 0 0-.07.02-.19.06-.35l.09-.31c.24-.81.49-1.65.79-2.46.12-.32.27-.63.44-.96.15-.29.3-.58.42-.89.17-.42.32-.85.47-1.28.18-.51.37-1.05.58-1.56.38-.87.78-1.73 1.19-2.59.34-.73.68-1.46 1-2.2.23-.5.42-1 .62-1.51.18-.47.36-.94.56-1.4.26-.6.54-1.19.83-1.77.21-.45.42-.89.62-1.33.2-.43.37-.86.55-1.29.1-.24.2-.47.3-.71l.26-.61c.41-.97.82-1.93 1.24-2.88.61-1.39 1.16-2.64 1.74-3.88.09-.2.22-.39.35-.59.15-.21.3-.44.41-.69.24-.52.45-1.05.67-1.58.17-.42.34-.84.53-1.26.11-.26.24-.51.38-.77.14-.28.28-.56.41-.85.09-.2.14-.41.19-.62.03.42.05.85.07 1.27.04 1 .09 2.03.17 3.05.06.7.18 1.41.29 2.09.07.45.14.9.2 1.35.03.23.02.47.02.73 0 .18 0 .36.01.53.03.59.06 1.17.1 1.75.03.62.07 1.23.1 1.85l.05.87c.07 1.27.14 2.54.17 3.82.03.98.05 1.96.06 2.95.01.76.02 1.52.04 2.28.01.52.03 1.04.06 1.56.03.77.06 1.53.06 2.3 0 1.06-.08 2.14-.18 3.14zm3.04-43.36c-.13.29-.26.51-.46.67.02-.31.05-.62.02-.93-.04-.37-.11-.74-.18-1.1-.05-.31-.11-.63-.15-.94-.05-.45-.08-.91-.11-1.36-.03-.33-.05-.66-.08-.99-.03-.34-.07-.68-.11-1.02-.05-.44-.1-.87-.14-1.31-.04-.55-.07-1.1-.1-1.66-.03-.57-.07-1.14-.11-1.72-.05-.57-.1-1.15-.16-1.72-.06-.58-.12-1.17-.17-1.75-.02-.26 0-.52.01-.8.01-.14.02-.28.02-.42.01-.21.01-.42.01-.64 0-.44-.01-.86.04-1.27l.07-.57c.16-1.45.33-2.96.83-4.38.26-.72.33-1.49.4-2.24.02-.18.03-.37.05-.56.16-1.4.3-2.77.37-4.15.05-.91-.03-1.81-.11-2.56-.08-.8-.24-1.61-.39-2.38l-.02-.1c-.08-.39-.24-.89-.83-1.32-.8-.57-1-.61-1.77.08-.46.41-.92.82-1.36 1.25-.17.18-.24.43-.28.61-.04.19-.07.39-.1.58-.03.2-.05.39-.1.59-.14.63-.28 1.27-.43 1.91-.27 1.2-.54 2.4-.79 3.61-.12.62-.14 1.25-.16 1.87v.1c-.01.54-.01 1.07-.01 1.61 0 .56-.01 1.11-.02 1.66-.01.51-.04 1.02-.07 1.52-.04.65-.07 1.3-.08 1.95 0 .44.05.88.1 1.31.02.23.05.45.07.68.01.12.01.25.01.37-.01.13-.01.27 0 .4.04.46.09.91.13 1.37.09.96.19 1.95.21 2.92.02.66-.09 1.36-.21 2.02-.03.2-.06.4-.09.59-.08.54-.2 1.05-.34 1.51-.12.35-.25.7-.39 1.04l-.27.66c-.11.32-.23.64-.34.96-.17.49-.35.97-.53 1.45-.07.17-.18.34-.28.52-.09.14-.17.29-.25.44-.11.22-.21.45-.31.68-.16.35-.3.69-.48 1.01-.69 1.24-1.52 2.7-2.41 4.16-.21.36-.5.67-.8 1l-.78.88c-.52.59-1.05 1.2-1.62 1.75-1.12 1.08-2.06 1.9-2.96 2.58-.3.23-.71.36-1.14.5-.18.05-.36.11-.54.18-1.38.5-2.7.5-3.82-.02l-.25-.12c-1.14-.52-2.32-1.06-2.94-2.28-.17-.36-.45-.64-.71-.92-.22-.24-.43-.46-.58-.71-.15-.28-.36-.51-.55-.74-.34-.38-.63-.71-.67-1.2-.02-.24-.17-.4-.31-.55-.07-.08-.14-.16-.16-.22l-.28-.63c-.49-1.11-.99-2.26-1.42-3.41-.18-.48-.3-.98-.42-1.51-.07-.31-.14-.63-.23-.94-.06-.23-.14-.45-.23-.68-.08-.22-.16-.45-.22-.68l-.08-.27c-.36-1.38-.73-2.81-1.05-4.22-.12-.53-.19-1.1-.25-1.64-.02-.22-.05-.43-.07-.64-.09-.71-.18-1.41-.25-2.12-.01-.08 0-.14-.01-.14.34-.35.7-.67 1.06-.96.58-.48 1.18-.94 1.78-1.39.23-.18.47-.36.7-.53.41-.3.81-.6 1.2-.92.52-.42 1.02-.87 1.52-1.32.31-.27.61-.54.92-.8.22-.19.44-.37.66-.55.28-.24.57-.48.85-.72.23-.2.46-.4.7-.59.62-.52 1.26-1.05 1.74-1.7.25-.33.56-.59.89-.87.56-.46 1.13-.94 1.38-1.71.01-.02.05-.06.08-.08.05-.05.1-.09.14-.15l3.86-4.6c.23-.28.47-.56.69-.85l.38-.49c.41-.52.83-1.07 1.22-1.63.62-.93 1.23-1.86 1.83-2.8l.9-1.38c.13-.2.27-.39.4-.59.21-.3.42-.6.61-.92.63-1.02 1.28-2.08 1.9-3.17.17-.32.33-.63.49-.95.31-.62.61-1.21 1.02-1.75.32-.42.51-.93.7-1.42.09-.26.19-.52.31-.77.13-.27.28-.54.43-.81.18-.32.35-.63.5-.96.18-.41.35-.82.51-1.24.16-.39.31-.78.49-1.16.16-.37.34-.73.53-1.09.21-.42.42-.84.61-1.27.15-.35.27-.71.39-1.07.1-.3.21-.61.33-.91.25-.61.52-1.21.78-1.81.22-.48.43-.96.64-1.45.07-.17.12-.35.16-.54.03-.1.05-.2.08-.3.25-.77.49-1.54.74-2.3.03-.09.08-.17.13-.25.06-.12.13-.26.18-.41.25-.85.43-1.54.58-2.17.3-1.23.58-2.45.84-3.67.08-.38.15-.75.22-1.13.11-.54.21-1.1.35-1.64.09-.37.23-.75.35-1.12.2-.56.4-1.13.5-1.73.06-.41.16-.82.26-1.22.19-.79.39-1.6.34-2.46-.04-.73-.03-1.48-.02-2.2v-.97c0-.21.01-.42.01-.63.01-.46.02-.93-.01-1.4-.01-.13-.01-.27-.02-.4-.02-.59-.04-1.19-.31-1.7-.14-.26-.19-.53-.23-.8-.03-.17-.06-.33-.11-.49-.2-.72-.46-1.43-.71-2.12l-.19-.51c-.08-.22-.21-.42-.37-.55l-.74-.67c-.81-.73-1.64-1.48-2.51-2.15-.51-.4-1.22-.56-1.72-.64l-.13-.03c-.86-.14-1.75-.3-2.63-.21-.85.08-1.69.29-2.51.5l-.84.21c-.99.23-1.79.78-2.57 1.31-.19.13-.38.26-.57.38-1.09.71-2.07 1.58-2.98 2.42-.89.82-1.72 1.72-2.57 2.64-.69.75-1.48 1.64-2.17 2.56-.39.54-.75 1.11-1.1 1.66-.23.37-.46.75-.71 1.11l-.2.29c-.35.53-.72 1.08-1.16 1.52-.65.66-1.03 1.43-1.38 2.23-.68 1.51-1.39 2.8-2.18 3.95-.27.39-.46.83-.64 1.26-.08.18-.16.36-.24.53l-.47.99c-.41.85-.83 1.72-1.21 2.59-.23.52-.42 1.04-.62 1.57-.15.42-.31.85-.49 1.27-.14.35-.31.69-.48 1.03-.19.41-.4.83-.57 1.26-.44 1.14-.96 2.48-1.39 3.84-.35 1.09-.66 2.21-.97 3.28-.14.53-.29 1.05-.44 1.57l-.33 1.12c-.15.51-.31 1.03-.45 1.55-.12.41-.22.82-.32 1.24-.2.79-.4 1.61-.69 2.36-.36.93-.52 1.9-.68 2.84-.13.71-.25 1.46-.46 2.16-.39 1.29-.65 2.59-.93 4.04-.26 1.4-.49 2.84-.71 4.22l-.11.74c-.24 1.5-.47 3.1-.46 4.75 0 .65-.1 1.33-.2 1.98-.05.31-.09.63-.13.97-.03.19-.05.39-.05.58l-.01 2.4c0 1.59-.01 3.19-.03 4.79-.01.52-.04 1.04-.08 1.56-.03.51-.07 1.02-.08 1.53 0 .34.05.68.09 1 .03.18.06.37.08.55.04.48-.11.73-.56.94-.72.33-1.42.74-2.1 1.13-.25.14-.5.29-.75.43-.25.13-.5.28-.74.42-.42.24-.84.48-1.26.7-.15.08-.33.13-.52.18-.12.03-.23.05-.35.09l-1.07.36c-1.85.62-3.76 1.26-5.71 1.63-.54.1-1.07.21-1.6.33-.3.07-.61.14-.91.2l-.32-1.32c.29-.6.15-1.18.03-1.68-.07-.29-.13-.55-.13-.81.01-.51-.02-1.02-.05-1.51-.02-.31-.04-.61-.04-.92-.01-.17.01-.34.02-.51.01-.17.03-.35.02-.52 0-.45-.01-.89-.02-1.34-.02-.72-.03-1.45-.02-2.17.01-.83.07-1.68.12-2.5l.05-.72c.03-.54.07-1.07.11-1.61l.12-1.91c.03-.52.05-1.04.07-1.56.03-.65.06-1.3.1-1.96.1-1.56.23-3.12.35-4.69l.02-.24c.05-.63.11-1.26.19-1.89.03-.26.08-.53.19-.72.26-.45.27-.92.28-1.34 0-.15 0-.3.02-.46.13-1.26.28-2.31.46-3.28.17-.89.36-1.78.55-2.66.16-.77.32-1.53.47-2.3.12-.61.22-1.23.32-1.84.1-.6.2-1.2.31-1.8.03-.15.11-.32.2-.49.08-.17.16-.34.21-.52.39-1.37.77-2.75 1.14-4.13l.4-1.44c.11-.4.21-.8.31-1.21.22-.87.45-1.78.78-2.63.22-.57.38-1.17.54-1.75.3-1.08.58-2.11 1.18-3.02l.4.34c.43.36.87.73 1.26 1.14.27.29.5.62.74.98.14.2.28.41.43.6.01.02.28.35.59.33l-.29.08.37.58c.13.21.25.41.41.59.09.09.21.13.32.14.18.01.34-.03.35-.04l.22-.06.03-.2c.05-.28.08-.58.03-.88-.07-.37-.66-.4-.73-.4-.15 0-.28.04-.42.09-.04.02-.09.04-.15.05.22-.1.39-.35.41-.62.03-.27.08-.81-.51-1 0-.01 0-.01-.01-.02-.02-.05-.05-.09-.08-.13l-.41-.5c-.32-.41-.65-.82-1.02-1.2-.2-.21-.43-.36-.65-.5-.19-.12-.37-.24-.51-.37-.43-.4-.48-.77-.2-1.32.35-.7.6-1.46.85-2.19.12-.38.25-.75.39-1.13.06-.17.15-.33.24-.49.1-.18.2-.35.27-.54.16-.38.3-.77.44-1.16.17-.48.35-.96.55-1.43.3-.74.63-1.46.96-2.19.2-.45.39-.89.59-1.33.06-.15.12-.31.17-.46.06-.17.12-.34.19-.5.15-.31.32-.63.48-.94.17-.33.33-.65.49-.99.08-.16.14-.33.19-.5.06-.16.11-.33.19-.47.14-.29.32-.55.5-.83.34-.5.69-1.02.85-1.67.2-.81.66-1.5 1.15-2.22.12-.19.25-.37.37-.56.17-.27.28-.57.38-.85.09-.23.16-.44.27-.63.19-.36.42-.69.66-1.05.11-.16.22-.32.35-.52.07-.12.15-.24.23-.37.23-.41.46-.83.68-1.24.5-.92 1.02-1.87 1.59-2.75.51-.78 1.1-1.53 1.66-2.25.33-.42.65-.83.96-1.26.44-.58.85-1.17 1.27-1.76.25-.35.49-.7.74-1.04.19-.27.39-.52.59-.77.23-.28.45-.56.67-.85.52-.65 1.05-1.33 1.61-1.96.81-.88 1.66-1.74 2.48-2.58.36-.37.72-.73 1.07-1.1.27-.28.54-.57.81-.85.59-.62 1.2-1.27 1.84-1.87.57-.53 1.19-1.03 1.79-1.51.34-.28.69-.55 1.02-.83.21-.18.41-.36.6-.54.23-.21.45-.41.69-.61.46-.37.93-.74 1.4-1.1.3-.24.61-.47.91-.71.17-.14.34-.29.51-.44.31-.28.6-.55.94-.72.61-.33 1.14-.76 1.66-1.17.59-.48 1.15-.94 1.83-1.24.53-.25 1.02-.58 1.5-.9.33-.22.67-.45 1.02-.65 1.47-.82 3.19-1.76 4.92-2.61 1.39-.69 3.24-1.58 5.17-2.36.89-.36 1.85-.64 2.77-.9.36-.11.72-.21 1.14-.33.72-.22 1.46-.45 2.2-.62.72-.16 1.47-.28 2.21-.4.32-.05.63-.1.95-.16.79-.15 1.61-.3 2.39-.3.41.01.83-.02 1.24-.04.88-.06 1.71-.11 2.55.1.37.09.74.05 1.1 0 .24-.02.46-.05.67-.04.63.04 1.29.12 1.95.26.83.17 1.66.38 2.43.62.05.04.12.2.11.27-.04.61-.08 1.24-.25 1.82-.53 1.8-.68 3.66-.82 5.45-.04.45-.07.9-.12 1.35-.03.41-.11.81-.18 1.22-.05.32-.11.64-.15.96l-.12.9c-.17 1.17-.34 2.39-.28 3.63.04.89-.06 1.82-.15 2.71-.04.42-.08.83-.11 1.24-.01.07-.01.14-.01.2l-.05 1.32c-.04.99-.08 1.99-.1 2.98-.01.22.02.43.04.64.02.15.03.3.04.44.02.68.04 1.36.03 2.03 0 .34-.02.67-.03 1-.02.41-.05.82-.04 1.24 0 .51.02 1.02.04 1.53.01.41.03.82.04 1.23 0 .27-.01.54-.02.81-.01.3-.02.6-.02.9.02.82.07 1.64.12 2.46.02.36.05.72.08 1.08.04.52.08 1.03.1 1.54.09 2.56.17 5.12.26 7.69l.05 1.83c.02.45.04.93.01 1.38-.02.49.07.94.16 1.38.06.26.12.52.14.79.09.96-.01 2-.31 3.16-.1.39-.19.78-.28 1.18-.14.59-.29 1.18-.45 1.76-.16.56-.34 1.11-.52 1.66-.18.54-.35 1.08-.51 1.63-.11.36-.18.72-.25 1.09-.08.36-.15.72-.25 1.07-.26.88-.54 1.75-.81 2.61-.18.56-.35 1.11-.53 1.66-.07.25-.14.51-.2.77-.11.47-.22.91-.41 1.3a4.68 4.68 0 0 0-.48 2.18c0 .07-.01.11-.01.11-.62.76-.85 1.65-1.07 2.51-.08.33-.17.66-.28.99-.18.54-.3 1.1-.42 1.65-.09.45-.19.92-.32 1.36-.2.65-.42 1.29-.64 1.94-.24.67-.48 1.36-.69 2.06-.19.64-.34 1.31-.48 1.95-.11.47-.21.94-.33 1.4-.05.19-.14.39-.23.59-.1.21-.19.42-.25.63-.11.36-.19.72-.27 1.08-.08.35-.16.69-.26 1.03-.18.62-.37 1.23-.57 1.84l-.63 1.99c-.3.96-.61 1.92-.9 2.88-.12.42-.23.46-.24.47-.01 0-.11.02-.37-.18-.79-.62-1.45-1.2-1.53-2.09-.03-.38-.11-.76-.2-1.12-.14-.63-.28-1.22-.14-1.83.06-.25.02-.49-.01-.71-.02-.09-.03-.17-.04-.26l-.02-.28h-.29c-.86.01-1.12.28-1.13 1.19 0 .29-.01.58-.02.87-.03.62-.05 1.27.02 1.91l.02.28c.17 1.64.34 3.33 1.28 4.85.12.2.23.41.35.62.15.27.3.54.47.8.19.29.18.57-.02 1.04-.15.33-.3.65-.46.98-.22.47-.45.95-.64 1.45-.31.77-.59 1.56-.87 2.34-.21.59-.42 1.18-.64 1.76-.63 1.67-1.26 3.33-1.92 4.98-.42 1.06-.87 2.11-1.32 3.16l-.06.14c-.07.17-.17.33-.26.5l-.41.81.18-.03-.12.33c-.22.62-.43 1.25-.68 1.86-.34.83-.7 1.64-1.07 2.46l-.35.78c-.15.34-.31.68-.46 1.03-.25.54-.5 1.08-.73 1.63zm28-20.19c-.04 2.21-.13 4.53-.26 7.09-.02.56-.1 1.12-.17 1.67-.05.35-.1.71-.14 1.06l-.15 1.61c-.05.61-.1 1.23-.17 1.85-.05.43-.11.85-.17 1.27-.12.79-.25 1.6-.25 2.41-.01 1-.23 1.93-.47 2.91-.08.34-.17.68-.24 1.03-.11.5-.19 1.02-.27 1.53-.07.42-.14.84-.22 1.26-.04.17-.1.34-.17.5-.06.17-.12.33-.17.51-.07.28-.13.57-.19.86-.09.42-.17.86-.3 1.27-.36 1.15-.77 2.28-1.12 3.24-.16.42-.34.84-.51 1.26-.19.45-.37.9-.54 1.35-.12.34-.2.69-.28 1.02-.04.17-.08.34-.12.5-.01.03-.03.07-.08.17-.16.32-.32.65-.47.97-.35.76-.72 1.54-1.17 2.23-.3.48-.48.98-.65 1.45-.07.2-.14.41-.22.6-.05.14-.15.27-.25.42l-.09.14c-.24.35-.48.69-.73 1.03-.55.78-1.13 1.59-1.58 2.45-.51.98-1.11 1.85-1.69 2.63-.14.19-.24.39-.33.59-.09.17-.17.34-.27.48l-.66.9c-.95 1.33-1.94 2.7-2.97 4-.74.94-1.59 1.78-2.34 2.49-1.24 1.19-2.57 2.45-3.96 3.58-.29.24-.6.46-.9.68-.63.46-1.29.93-1.82 1.56 0-.08.01-.14.01-.22.03-.53.06-1.06.06-1.6.01-.2-.04-.4-.08-.59-.03-.17-.06-.33-.06-.47.01-.47.04-.93.07-1.4.03-.48.07-.97.08-1.46.01-.33-.05-.65-.11-.97-.01-.1-.03-.21-.05-.32-.11-.71-.18-1.41.09-2.09.09-.23.05-.47.02-.69l-.02-.16c-.03-.37-.08-.74-.12-1.11-.08-.72-.16-1.46-.2-2.18-.04-.61-.04-1.23-.04-1.84-.01-.64-.01-1.3-.05-1.95-.08-1.48-.2-2.96-.32-4.44l-.23-3.21c-.07-1.01-.13-2.02-.21-3.02-.03-.31-.07-.63-.12-.94-.06-.49-.13-.95-.12-1.41.01-1.48-.16-2.87-.39-4.53-.12-.91.02-1.81.43-2.69.3-.64.56-1.28.83-1.93l.22-.53c.17-.4.33-.81.5-1.21.25-.62.5-1.25.77-1.86l.3-.72c.32-.77.65-1.56 1.06-2.27.34-.59.52-1.22.69-1.82.12-.44.23-.85.41-1.25.13-.32.31-.62.49-.93.16-.29.32-.57.46-.87.12-.25.2-.52.28-.77.06-.2.12-.4.2-.59.14-.33.28-.65.43-.97.2-.45.41-.89.58-1.34.16-.44.29-.89.41-1.33.07-.25.14-.5.22-.75.05-.17.13-.34.2-.51l.06-.12c.09-.21.18-.41.28-.62.18-.39.37-.8.52-1.22.37-1 .72-2 1.07-2.99.24-.68.49-1.37.73-2.04.01-.02.02-.04.04-.07l.19.24c.29.37.57.72.85 1.07.89 1.06 1.46 2.28 1.97 3.44.23.52.28 1.02.16 1.51-.19.8.49 1.04.77 1.14.24.08.4.03.5-.03.23-.13.28-.39.32-.58.01-.05.02-.1.03-.13.06-.19.1-.39.14-.58.04-.16.07-.33.12-.48.02-.07.06-.15.11-.24s.11-.19.14-.29c.07-.16.11-.34.12-.55l.06-.43c.05-.39.1-.79.03-1.18-.05-.3-.06-.59-.07-.91-.02-.57-.05-1.16-.32-1.78-.42-.91-.93-1.8-1.67-2.87-.4-.58-.87-1.01-1.32-1.43l-.23-.21c-.2-.2-.24-.27-.11-.58.44-1.15.84-2.33 1.22-3.47l.76-2.17c.27-.76.55-1.54.78-2.33.1-.3.13-.61.17-.91.04-.28.07-.55.15-.8.27-.9.57-1.79.87-2.67l.47-1.41c.09-.27.19-.55.26-.83.25-.87.49-1.74.74-2.62l.56-2.02c.11-.38.22-.76.33-1.13l.54-1.85c.3-1.02.6-2.04.89-3.06.17-.61.33-1.22.49-1.83.12-.47.25-.94.37-1.41l.04-.15c.09-.33.18-.64.31-.93.71-1.51 1.07-3.11 1.42-4.75.24-1.17.57-2.27.89-3.29.1-.3.13-.6.16-.9.01-.09.01-.18.03-.27.22.33.31.74.28 1.29-.03.7.05 1.41.12 2.1l.05.49.06.76c.07.78.13 1.59.33 2.37.28 1.15.36 2.34.44 3.49l.41 5.69c.06.98.13 1.96.23 2.94.07.77.17 1.53.27 2.3.07.54.14 1.08.2 1.61.13 1.18.27 2.4.37 3.61.09 1.1.15 2.19.21 3.29l.05.88c0 .05-.01.12-.02.19-.02.16-.05.35.03.54.21.43.16.89.11 1.38-.03.29-.05.6-.03.91.02.35.06.7.09 1.06.05.49.09.98.12 1.48.01.14-.05.34-.14.51-.24.45-.22.88.08 1.32.08.12.13.28.14.41.03 1.01.05 2.03.06 3.05l.01 1.29c.01 1.35.02 2.76-.01 4.14zm4.96-99.91c-.05.33-.1.67-.14 1.01-.06.43-.08.78-.06 1.12.03.91-.04 1.68-.23 2.41-.14.55-.19 1.12-.23 1.68-.03.31-.05.63-.1.95-.07.57-.17 1.13-.26 1.7-.08.5-.17 1-.24 1.51-.08.56-.16 1.13-.23 1.69-.1.75-.2 1.49-.31 2.23-.11.66-.23 1.32-.36 1.98-.08.43-.17.86-.25 1.3-.04.27-.08.54-.11.8l-.09.68-.08.49c-.12.69-.23 1.41-.39 2.11-.08.36-.18.72-.29 1.07-.1.32-.19.65-.27.97-.09.37-.15.75-.22 1.12-.04.26-.08.51-.13.76-.19.94-.39 1.88-.59 2.82-.31 1.46-.63 2.91-.95 4.36-.06-.51-.11-1.01-.15-1.52a14.2 14.2 0 0 1-.06-.92c-.01-.21-.02-.41-.04-.62l-.05-.71c-.04-.69-.09-1.38-.15-2.08-.04-.55-.1-1.1-.16-1.65-.1-.98-.21-1.99-.26-2.98-.04-.94-.04-1.92-.03-2.86V150c-.01-.24-.05-.47-.1-.7l-.05-.25c-.01-.06-.03-.12-.05-.18a.346.346 0 0 1-.03-.12l-.05-.99c-.04-.86-.08-1.75-.08-2.61s.04-1.71.08-2.56l.06-1.65c0-.18-.02-.35-.04-.53-.02-.15-.05-.3-.04-.45.02-.49.05-.97.09-1.46.03-.54.07-1.09.09-1.63.01-.34 0-.67-.02-1.01-.01-.22-.02-.44-.02-.66 0-.29.02-.6.06-.97.03-.32.07-.64.12-.96.09-.66.19-1.33.18-2.01-.01-.98.19-1.9.4-2.87.05-.27.11-.53.16-.8.02-.1.09-.17.2-.22a.78.78 0 0 1 .45-.07c.15.01.31.05.47.13l.26.13c.89.44 1.78.89 2.67 1.35l.3.15c.43.22.88.44 1.25.73.16.12.31.43.29.62-.04.61-.13 1.23-.22 1.84zm.89-8.83c-.05.42-.1.84-.13 1.26-.02.23-.02.48.02.8.02.14-.01.2-.01.21-.01 0-.05.01-.12-.01-.38-.08-.74-.22-1.12-.36l-.39-.15c-.18-.06-.34-.12-.51-.19-.25-.09-.49-.19-.74-.27-.37-.12-.76-.19-1.13-.26-.61-.12-1.19-.23-1.7-.54a.379.379 0 0 0-.13-.06l.03-.13c.06-.3.12-.56.19-.82.12-.43.24-.85.35-1.28.19-.67.38-1.34.55-2.01.46-1.84 1.11-3.6 1.92-5.23.21-.42.59-.82.96-1.02.22-.13.43-.15.63-.08.24.09.44.34.57.7.15.43.27.88.38 1.33.08.34.17.68.27 1.02.17.55.15 1.11.13 1.7-.02.49-.04.99.05 1.48.24 1.31.09 2.58-.07 3.91zm10.28 50.33c-.15.55-.36 1.27-.63 1.98l-.33.9c-.55 1.48-1.11 3-1.73 4.46-.29.68-.66 1.33-1.02 1.97-.19.34-.39.69-.57 1.04-.15.28-.29.57-.43.86-.25.5-.5 1.01-.79 1.49-.25.41-.64.78-.99 1.09-.05.05-.22.2-.63-.24-.5-.57-.5-1.22-.34-2.04l.1-.48c.27-1.44.56-2.92 1.26-4.23l.23-.42c.57-1.07 1.17-2.18 1.8-3.24.27-.44.61-.85.97-1.27.11-.14.23-.28.34-.42.16-.19.33-.38.49-.57.23-.26.46-.52.67-.79.49-.65 1.18-1.03 1.91-1.43l.03-.01c-.11.45-.22.9-.34 1.35zm102.54-23.45c.05-.28.17-.56.26-.84.09-.25.17-.51.26-.77.05-.14.12-.27.2-.44.03.08.05.11.1.21.03-.17.04-.22.05-.27.15-.5.21-1.04.48-1.49.35-.58.83-1.09 1.03-1.73.02-.05.06-.11.1-.15.49-.5.85-1.06 1.14-1.69.17-.37.46-.7.71-1.05.21-.3.46-.59.65-.9.47-.77.9-1.56 1.51-2.27.85-.99 1.64-2.03 2.49-3.04.77-.93 1.58-1.84 2.38-2.74.82-.93 1.61-1.88 2.59-2.64.43-.33.82-.77 1.18-1.19.5-.58 1.07-1.01 1.68-1.39.28-.17.53-.45.76-.72.18-.21.28-.45.62-.49.19-.03.45-.28.65-.47.48-.45.95-.93 1.42-1.4.05-.04.12-.08.18-.12.31-.19.62-.38.93-.59.23-.16.43-.39.67-.54.45-.29.93-.53 1.38-.82 1.76-1.17 3.55-2.18 5.39-3.02.89-.4 1.78-.78 2.67-.99.87-.19 1.74-.29 2.61-.48 1.24-.27 2.29-.03 3.24.43.69.33 1.34.73 1.99 1.12.64.38 1.11.93 1.41 1.67-.23.21-.45.39-.65.58-1.55 1.46-3.15 2.86-4.83 4.12-1.32.99-2.64 1.97-3.96 2.95l-1.57 1.18c-.47.37-.93.75-1.41 1.1-.5.37-1.01.73-1.52 1.08-.25.18-.53.33-.79.51-.22.14-.44.3-.66.45-.14.11-.27.24-.41.33-.49.32-1 .61-1.48.94-.34.23-.64.52-.98.74-.78.53-1.58 1.04-2.37 1.56-.9.59-1.8 1.17-2.7 1.75-1.21.78-2.42 1.53-3.62 2.32-.76.51-1.49 1.09-2.25 1.59-.75.49-1.51.93-2.27 1.38-.23.14-.49.21-.71.37-.97.72-1.92 1.48-2.91 2.17-.77.55-1.64.88-2.29 1.67-.05.05-.13.08-.19.12-.93.67-1.87 1.34-2.81 2.02-.25.18-.4.15-.35-.12zm-78.38 36.29c-1.51-.64-3-1.55-4.82-2.96-.19-.15-.38-.27-.58-.4-.13-.09-.27-.18-.4-.27-1.33-.96-2.58-2.19-4.03-4l-.55-.67c-.65-.79-1.32-1.61-1.88-2.47-1.1-1.7-1.9-3.55-2.49-5.54.5.12.99.3 1.51.51.56.23 1.11.48 1.66.73l.71.33c.16.07.31.14.44.22.25.18.49.36.73.55.15.12.3.24.46.35l1.15.86c.55.4 1.09.8 1.63 1.21.06.04.11.12.21.25l.74 1.01c.35.48.71.96 1.07 1.45.08.11.18.22.28.32l.15.15c.26.3.42.67.59 1.06.19.44.4.9.77 1.29.26.29.45.69.63 1.08l.1.21c.09.18.15.37.21.55.1.34.22.68.44.97.68.89 1.06 1.9 1.47 3.03.03.1.07.2.1.3l-.3-.12zm21.48-19.61c-.12.77-.23 1.55-.31 2.33-.25 2.28-.44 4.32-.57 6.25-.09 1.27-.13 2.56-.18 3.81-.02.66-.04 1.32-.07 1.97l-.11 2.4c-.06 1.25-.11 2.51-.16 3.76-.02.45 0 .9.01 1.36 0 .13.01.26.01.39-1.69.39-3.33.4-4.95.41-.3 0-.59.01-.89.02-.69.01-1.42.03-2.1-.03l-.54-.05c-1.54-.14-3.14-.28-4.66-.62-.19-.04-.4-.09-.6-.14-.04-.32-.07-.63-.11-.94-.06-.58-.14-1.19-.29-1.78l-.04-.14c-.19-.79-.4-1.61-.73-2.37-.21-.48-.33-.87-.32-1.3 0-.3-.09-.59-.18-.83-.11-.28-.23-.57-.35-.85-.18-.43-.36-.85-.5-1.29l-.12-.36c-.37-1.12-.75-2.28-1.85-3.08-.42-.3-.68-.6-.73-.83-.19-.9-.78-1.43-1.35-1.93-.28-.25-.54-.49-.75-.77-.44-.57-1.01-1.04-1.55-1.5-.24-.2-.48-.4-.71-.6-.05-.05-.09-.1-.14-.15-.11-.11-.22-.22-.36-.32-.31-.2-.63-.39-.95-.59l-.43-.25c-.17-.11-.35-.22-.53-.31-1.11-.54-2.3-.89-3.42-1.2-.2-.05-.4-.13-.59-.21-.34-.13-.69-.27-1.07-.3-1.33-.13-2.89-.25-4.49-.23-.1.01-.19.03-.29.04-.06-.43-.15-.85-.19-1.29-.18-1.97-.06-3.98.05-5.91l.04-.57c.02-.48.13-.95.25-1.45.04-.21.09-.42.13-.63l.08-.42c.08-.42.17-.85.28-1.27.57-2.07 1.4-4.2 2.47-6.31.2-.4.46-.8.71-1.18.09-.16.19-.31.29-.46l.14-.23c.98-1.57 1.99-3.2 3.24-4.58l.3-.32c1.13-1.26 2.31-2.55 3.75-3.49.12-.08.25-.19.35-.31 1.23-1.39 2.79-2.39 4.42-3.37 2.25-1.36 5.25-3.05 8.55-4.08 2.48-.77 5.44-1.57 8.63-1.59.56 0 1.13-.05 1.68-.11.51-.05 1.03-.1 1.54-.11 1.23-.01 2.36.02 3.41.1 1 .08 1.95.2 2.86.38.46.09.93.16 1.41.23l.27.04-.77 3.48c-.18.84-.37 1.67-.55 2.51-.14.61-.27 1.23-.4 1.85-.21.98-.42 1.96-.64 2.93-.08.38-.19.76-.3 1.14-.12.41-.23.82-.32 1.23-.3 1.33-.58 2.66-.86 3.99-.21 1-.42 2-.64 2.99-.06.3-.14.59-.22.88-.09.31-.17.61-.24.92-.39 1.79-.77 3.58-1.15 5.38l-.42 2-.02.11c-.01.05-.02.11-.04.17-.4 1.68-.63 3.07-.73 4.38-.09 1.07-.24 2.15-.39 3.2zm.42 21.97c-.03-.19-.05-.31-.05-.44.09-2.8.19-5.61.29-8.42l.04-1.4c.03-1.17.07-2.39.15-3.58.12-1.96.29-4 .51-6.23.2-1.99.45-4.02.69-5.97l.05-.44c.07-.59.18-1.21.33-1.89.32-1.44.64-2.87.97-4.31l.68-3.03c.24-1.06.47-2.11.7-3.16a519.531 519.531 0 0 1 1.59-7.02c.22-.94.45-1.88.66-2.82.3-1.33.58-2.66.86-4l.14-.69c.32-1.52.64-3.04.97-4.62l.18-.88c.17.05.33.09.51.14.62.18 1.26.36 1.88.58 1.85.66 3.65 1.32 5.39 2.04 1.5.63 2.92 1.46 4.21 2.47.59.46 1.29.88 2.07 1.25.96.45 1.79 1.03 2.54 1.78l.13.13c.57.57 1.16 1.15 1.97 1.49.07.03.16.12.29.24.24.23.5.47.75.71.59.54 1.2 1.11 1.74 1.72 1.15 1.29 2.26 2.67 3.34 4l.21.27c.69.85 1.31 1.63 1.85 2.47.51.79.99 1.58 1.48 2.38.49.82.98 1.63 1.5 2.43.4.62.44 1.13.14 1.72l-.36.7c-.42.82-.86 1.66-1.31 2.48l-.17.3c-.79 1.4-1.6 2.85-2.47 4.23-.68 1.09-1.49 2.23-2.46 3.47-.99 1.28-2.07 2.58-3.29 3.98-.5.58-1.06 1.13-1.6 1.67l-.78.78c-.27.29-.54.57-.82.86-.54.57-1.09 1.14-1.66 1.7l-.18.18c-.6.58-1.22 1.19-1.89 1.67-.37.26-.73.53-1.08.81-.88.69-1.72 1.33-2.73 1.76-.38.16-.71.43-1.02.68-.15.13-.3.25-.46.36-.66.46-1.32.92-1.99 1.37-.08.06-.17.1-.26.14-.14.07-.31.15-.45.27-1.28 1.13-2.8 1.75-4.41 2.41-.34.14-.67.28-1.01.42-.24.1-.45.23-.67.36-.2.13-.4.25-.6.34-2.17.88-4.47 1.61-6.84 2.16-.08.01-.16.04-.24.07 0-.03-.01-.06-.01-.09zm47.28 5.67-.06.85c-.1 1.41-.24 2.84-.38 4.23l-.12 1.22c-.38 3.91-1.26 7.82-2.62 11.64-.87 2.44-2 4.94-3.58 7.88-1.25 2.34-3.04 4.58-5.47 6.85-1.11 1.04-2.46 2.22-4.05 3.08-1.48.8-3.17 1.33-5.17 1.63-1.31.2-2.64.02-3.93-.16l-.45-.06c-.8-.1-1.56-.44-2.36-.8-.34-.15-.69-.31-1.03-.44l-.12-.05c-.28-.1-.56-.21-.78-.37l-.48-.34c-.67-.47-1.37-.96-1.97-1.53l-.32-.3c-1.23-1.15-2.49-2.34-3.54-3.66-1.03-1.27-1.91-2.72-2.76-4.11l-.4-.66c-.55-.89-1.06-1.88-1.56-3-.61-1.37-1.13-2.72-1.74-4.33-.15-.37-.26-.75-.38-1.13-.13-.43-.27-.87-.44-1.3-.88-2.21-1.48-4.25-1.82-6.22-.13-.76-.31-1.53-.48-2.26-.22-.95-.44-1.93-.57-2.9-.26-1.97-.41-4-.55-5.95l-.07-.96c-.01-.13-.03-.48.01-.54.03-.04.25-.09.44-.15l.18-.04c.58-.17 1.15-.36 1.72-.55.82-.28 1.67-.56 2.52-.73.85-.18 1.61-.54 2.33-.9.53-.25 1.02-.49 1.55-.66.95-.32 1.86-.8 2.73-1.26.36-.19.71-.38 1.07-.56 1.62-.8 5.61-3.42 6.87-4.53.46-.39.97-.74 1.47-1.08.38-.26.77-.52 1.13-.8 1.02-.79 1.94-1.52 2.8-2.33 1.37-1.3 2.96-2.82 4.44-4.41.93-1.01 1.78-2.1 2.62-3.16l.62-.79c.92-1.16 1.82-2.33 2.68-3.5.3-.42.58-.87.86-1.3.14-.22.28-.45.42-.67.24-.36.47-.71.71-1.06l.43-.64c.06-.09.15-.2.19-.35.23-.94.72-1.73 1.24-2.57.36-.58.73-1.18 1.01-1.83.05.11.11.22.16.33.21.44.43.9.6 1.35.27.7.53 1.4.8 2.1.19.48.37.97.55 1.46.1.12.21.22.28.39.1.22.17.44.25.67-.56.56-1.14 1.1-1.68 1.61.02.03.03.06.04.09-.36.45-.7.9-1.05 1.35a62.669 62.669 0 0 0-3.73 5.21c-1.02 1.6-1.91 3.26-2.68 4.97-.6 1.32-.84 2.64-1.37 3.94-.12.31-.31.61-.38.91-.15.6-.29 1.21-.34 1.79-.11 1.23-.07 2.43.16 3.54.39 1.79 1 3.42 2.54 4.25.58.32 1.28.5 1.95.68.46.13.95.23 1.45.2.92-.06 1.86-.21 2.79-.35.48-.07.97-.16 1.45-.28.58-.14 1.17-.32 1.75-.49.33-.09.67-.18 1-.29.32-.1.63-.23.94-.33.23-.08.47-.16.7-.23 0 .08 0 .16.01.24.03-.02.05-.03.08-.05.03-.01.04-.03.06-.04s.05-.02.07-.02c.34-.18.68-.35 1.01-.54 0 1.7-.13 3.43-.25 5.1zm.2-6.52v.05c-.4.22-.83.4-1.27.46v.06c-.85.25-1.71.69-2.56.97-.66.22-1.32.29-1.98.45-.79.18-1.58.45-2.35.44-.71 0-1.44.03-2.14-.02-.83-.07-1.58-.32-2.32-.61-.98-.38-1.52-1.15-1.91-2.09-.45-1.1-.56-2.34-.23-3.74.21-.84.4-1.69.7-2.52.44-1.22 1.15-2.36 1.89-3.48.45-.69.84-1.42 1.3-2.1.24-.36.57-.66.7-1.08.01-.06.12-.11.19-.17.11-.11.25-.2.34-.32.3-.4.57-.82.89-1.21 1.15-1.4 2.29-2.82 3.47-4.19.07-.08.15-.15.22-.24.01.03.01.05.02.07.41-.65.9-1.26 1.42-1.85.01.01.01.02.01.03.12.4.25.81.37 1.21.5 1.61 1.02 3.28 1.22 4.99.12 1.02.34 2.04.55 3.02.15.71.31 1.44.42 2.17.32 1.94.56 3.74.74 5.5.07.73.13 1.41.19 2.09-.01 0-.01.01-.02.01.06.19.15.37.11.61 0 .03-.01.07-.01.1-.01.05-.03.08-.04.13.03.1.05.21.08.31.11.36.08.67 0 .95zm50.24-57.08c-.06.59-.09 1.19-.26 1.78-.34 1.14-.74 2.28-1.18 3.41-.47 1.22-1 2.44-1.55 3.65-.42.92-.88 1.83-1.37 2.73-.61 1.11-1.28 2.21-1.92 3.31-.15.26-.24.53-.39.78-.55.88-1.1 1.76-1.66 2.64-.4.65-.79 1.31-1.23 1.94-.57.81-1.19 1.59-1.78 2.39-1.23 1.65-2.35 3.36-3.63 4.97-.89 1.12-1.75 2.27-2.69 3.34-1.54 1.76-3.13 3.47-4.69 5.21-.23.25-.43.53-.67.77-.77.79-1.55 1.56-2.32 2.34-.36.36-.68.75-1.05 1.08-.95.82-1.92 1.6-2.86 2.42-.57.49-1.09 1.05-1.65 1.53-.74.63-1.5 1.21-2.24 1.82-.71.58-1.41 1.19-2.13 1.75-.88.68-1.79 1.33-2.68 1.99-.71.51-1.43 1.02-2.14 1.54-.45.32-.88.67-1.33.96-1.61 1.03-3.21 2.09-4.87 2.92-.53.26-1.05.59-1.58.81-.21.09-.42.2-.63.29-.01-.29-.02-.58-.04-.87.04-.02.08-.04.12-.05-.07-.4-.13-.8-.12-1.2-.02.01-.04.02-.05.03-.07-1.26-.16-2.5-.25-3.73l-.01-.22c-.09-1.19-.26-2.38-.42-3.54l-.04-.27c-.14-1.06-.31-2.11-.47-3.16l-.24-1.58v-.08c0-.06.01-.14-.01-.23-.09-.44-.17-.89-.26-1.33-.19-1.04-.39-2.11-.67-3.15-.25-.97-.56-1.93-.86-2.88.05-.04.1-.1.16-.14 1.3-1.22 2.6-2.43 3.9-3.65.11-.11.17-.27.27-.39.11-.13.22-.27.35-.35.32-.2.71-.31.97-.58.82-.83 1.61-1.7 2.54-2.37.24-.18.51-.3.76-.45.24.57.47 1.15.72 1.71.61 1.32 1.56 2.28 2.79 2.94.13.07.26.13.4.16.7.13 1.38.31 2.11.34.64.03 1.34-.03 2.03-.21.89-.24 1.8-.67 2.7-.96.97-.31 1.82-.94 2.67-1.59.45-.34.87-.77 1.33-1.02.71-.39 1.27-.97 1.87-1.51.78-.71 1.52-1.47 2.28-2.21.97-.94 1.98-1.84 2.73-2.99.24-.36.53-.7.78-1.05.15-.2.26-.43.4-.63.4-.59.82-1.16 1.21-1.76.32-.49.6-.99.89-1.5.15-.27.26-.56.41-.84.25-.46.51-.91.75-1.36.11-.2.18-.4.3-.59.51-.75.45-1.43.36-2.11 0-.02-.05-.02-.14-.06-.39.58-.8 1.16-1.17 1.75-.65 1.05-1.27 2.11-1.92 3.17-.55.88-1.05 1.81-1.68 2.64-.89 1.19-1.84 2.34-2.83 3.46-.86.98-1.77 1.94-2.71 2.84-1.41 1.35-2.94 2.48-4.51 3.56-.95.65-1.91.87-2.85 1.28-.74.31-1.53.39-2.26.44-.65.05-1.32.03-1.86-.18-.77-.31-1.48-.76-2.13-1.25-.94-.71-1.5-1.73-1.42-3.18.02-.27.1-.46.33-.65.72-.62 1.43-1.27 2.16-1.87.42-.35.88-.63 1.32-.97.54-.41 1.07-.84 1.6-1.27.4-.33.79-.69 1.2-1.02.54-.43 1.09-.84 1.63-1.27.18-.14.35-.32.54-.43.36-.21.75-.33 1.09-.57.6-.41 1.18-.89 1.77-1.33.19-.14.4-.22.56-.38.74-.69 1.46-1.39 2.37-1.69.09-.02.17-.15.25-.23.1-.09.19-.18.3-.25.44-.32.9-.6 1.34-.94.53-.4.94-.93 1.59-1.23.86-.4 1.68-1.09 2.5-1.67.28-.2.54-.44.81-.65.15-.12.32-.21.48-.31.18-.12.38-.22.56-.35.22-.15.43-.33.64-.5.08-.06.16-.13.23-.19.22-.18.44-.36.66-.53.09-.07.19-.13.28-.2.39-.29.78-.59 1.17-.88.57-.44 1.15-.88 1.72-1.32.58-.45 1.14-.91 1.71-1.36.37-.29.78-.52 1.1-.85.64-.66 1.4-1.13 2-1.86.33-.39.81-.67 1.21-1 .29-.23.61-.43.85-.7.32-.35.6-.67.95-.66.22-.25.37-.48.56-.65.3-.27.65-.48.93-.76.56-.55 1.12-1.07 1.72-1.55.61-.49 1.13-1.14 1.67-1.72.51-.55 1.16-.97 1.42-1.71.01-.02.05-.03.13-.08.07.09.21.17.24.31.17.84.47 1.66.45 2.56-.04 1.73-.26 3.5-.42 5.26zM77.66 77.33c1.1-.56 1.42-1.35 1.38-3.23-.05-2.17-1.63-3.57-3.55-3.68-2.3-.16-4.95-.04-7.25-.04h-.57c.14.11.48.42.64.52.65.4.79.81.79.94 0 1.09-.05 2.67-.03 3.75.03 1.58.12 3.19.16 4.77.05.9.03 1.9.03 2.93-.39.39-.91.66-1.61 1.41.81-.1 1.69-.05 2.37-.07 1.99.02 4.18.11 6.1-.05 2.12-.16 3.73-1.4 3.7-4.24-.02-1.83-.92-2.58-2.16-3.01zm-6.6-5.78c.5-.04 1.4-.09 1.85-.09.5 0 .93.02 1.4.09 1.63.25 2.29.72 2.42 2.37.05.36.32 2.37-1.29 2.62-.83.13-2.86.53-4.28.27l-.1-4.79c0-.13-.04-.29 0-.47zm4.05 11.88c-.5.07-.98.05-1.47.05-.39 0-1.7-.05-2.35-.07l-.11-5.46c.86.06 3.42-.09 3.83.02 1.02.24 2.62.4 2.6 2.5 0 1.67-.9 2.71-2.5 2.96zM97.67 70.47c-.23.16-1.27.77-1.47.86-.45.56-.86 1.06-1.4 1.87-.74 1.04-2.24 3.41-2.33 3.5-.29.43-.54.84-.81 1.22 0 .05.02.11.02.16v5.13c0 .13.29.52.88 1.04.16.11.54.34.54.36h-4.72c.04-.02.16-.09.29-.2l.5-.43c.3-.25.48-.54.48-.59 0-1.56-.07-3.52-.14-5.08 0-.16-.02-.32-.02-.47l-1.06-1.67c-.65-1.02-1.38-1.99-2.1-2.96-.54-.72-1.38-1.74-1.38-1.74-.81-.47-1.51-.99-1.54-1.04h5.04l-1.4 1.06s.84 1.08 1.4 1.92c.93 1.31 1.56 2.21 2.35 3.46.9-1.36 1.81-2.62 2.73-3.98.34-.5.97-1.54.95-1.6 0-.02-.5-.57-.79-.81h3.98z" class="st5"/>
  </g>
</svg>
