<svg xmlns="http://www.w3.org/2000/svg" id="Card-Vertical" viewBox="0 0 304.06 527.26" preserveAspectRatio="preserve">
  <g>
    <path d="M186.76 526.34v-.02c8.66 0 13.83 0 14.19-.01 1.79-.03 3.57-.21 5.36-.19 2.94.02 5.88-.12 8.83-.05.78.02 1.57.03 2.35.02 1.6-.02 3.2-.05 4.8-.09 1.5-.04 3-.13 4.5-.15.97-.01 6.09-.66 7.06-.66 1.66 0 3.33-.05 4.99-.11.28-.01.62-.13.8-.27.53-.42 1-.86 1.47-1.31.82-.77 1.62-1.55 2.44-2.32.99-.92 2.04-1.81 2.98-2.76 1.32-1.31 2.56-2.65 3.84-3.98.1-.11.22-.21.33-.31 1.31-1.23 2.64-2.45 3.93-3.7.95-.91 18.81-17.2 19.75-18.11.57-.55 1.2-1.08 1.77-1.63 1.42-1.36 2.81-2.74 4.22-4.1 1.27-1.23 2.56-2.45 3.84-3.67.52-.5 1.03-1 1.56-1.5.42-.39.88-.77 1.3-1.16.63-.58 1.24-1.16 1.86-1.75.56-.53 1.12-1.07 1.7-1.59.96-.88 1.92-1.76 2.9-2.64.43-.39.92-.75 1.34-1.14 1.24-1.14 2.44-2.29 3.68-3.43 1.21-1.1 2.49-2.17 3.68-3.28 1.33-1.25 2.08-1.83 1.71-3.91-.02-.1-.02-.21-.02-.32-.02-1.02-.04-2.04-.05-3.05h.03c.02-1.31-2.52-390.39-2.5-391.7 0-.11 0-.21.02-.32.37-2.08-2.13-4.81-3.47-6.06-1.18-1.12-2.47-2.18-3.68-3.28-1.24-1.13-2.45-2.29-3.68-3.43-.42-.39-.91-.75-1.34-1.14-.98-.88-1.94-1.76-2.9-2.64-.57-.53-1.13-1.06-1.7-1.59-.62-.58-1.23-1.17-1.86-1.75-.42-.39-.88-.76-1.3-1.16-.53-.49-1.04-1-1.56-1.5-1.28-1.22-19.43-19.56-20.7-20.79-1.41-1.36-2.81-2.74-4.22-4.1-.57-.55-1.2-1.07-1.77-1.63-.94-.92-1.81-1.86-2.76-2.77-1.29-1.24-2.62-2.47-3.93-3.7-.11-.1-.23-.2-.33-.31-1.28-1.33-2.52-2.67-3.84-3.98-.94-.94-1.99-1.83-2.98-2.75-.82-.77-1.62-1.55-2.44-2.32-.47-.45-.95-.89-1.47-1.31-.18-.14-.52-.26-.8-.27-1.66-.06-3.33-.11-4.99-.11-.97 0-1.94.11-2.91.1-1.5-.02-3-.11-4.5-.15-1.6-.04-3.2-.07-4.8-.09-.78-.01-1.57 0-2.35.02-2.94.08-5.88-.07-8.83-.05-1.78.01-3.57-.16-5.36-.19-.32 0-4.44 0-11.39-.01V.14c-19.09.01-28.01.01-79.76.01L94.11 0c-2.94-.02-5.88.12-8.83.05-.78-.02-1.57-.03-2.35-.02-1.6.02-3.2.05-4.8.09-1.5.04-3 .13-4.5.15-.97.01-1.94-.11-2.91-.1-1.66 0-3.33.05-4.99.11-.28 0-.62.13-.8.27-.53.42-1 .86-1.47 1.31-.82.77-1.3.53-2.13 1.3-.99.92-2.04 1.81-2.98 2.75-1.32 1.31-2.56 2.65-3.84 3.98-.1.11-.22.21-.33.31-1.31 1.23-2.64 2.45-3.93 3.7-.95.91-1.83 1.86-2.76 2.77-.57.55-1.2 1.08-1.77 1.63-1.42 1.36-16.54 17.73-17.95 19.1-1.27 1.23-2.56 2.44-3.84 3.67-.52.5-1.03 1-1.56 1.5-.42.39-.88.77-1.3 1.16-.63.58-1.24 1.16-1.86 1.75-.56.53-1.12 1.07-1.7 1.59-.96.88-1.92 1.76-2.9 2.64-.43.39-.92.75-1.35 1.14-1.24 1.14-2.44 2.29-3.68 3.43-1.21 1.1-2.49 2.17-3.68 3.28-1.33 1.25-1.71 3.91-3.72 4.29-.1.02-.8 2.3-.8 2.4C1.4 65.56.14 463.5.16 464.8h.03c-.02 1.02-.04 2.04-.05 3.05 0 .11 0 .21-.02.32-.37 2.08.38 2.65 1.71 3.91 1.18 1.11 2.47 2.18 3.68 3.28 1.24 1.13 2.45 2.29 3.68 3.43.42.39.91.75 1.35 1.14.98.87 1.94 1.76 2.9 2.64.57.53 1.13 1.06 1.7 1.59.62.58 1.23 1.17 1.86 1.75.42.39.88.76 1.3 1.16.53.49 1.04 1 1.56 1.5 1.28 1.22 2.57 2.44 3.84 3.67 1.41 1.36 2.81 2.74 4.22 4.1.57.55 1.21 1.07 1.77 1.63.93.92 1.81 1.86 2.76 2.77 1.29 1.24 2.62 2.47 3.93 3.7.11.1.23.2.33.31 1.28 1.33 2.52 2.67 3.84 3.98.94.94 1.99 1.83 2.98 2.76.82.77 14.69 13.19 15.51 13.96.47.44.95.89 1.47 1.31.18.14.52.26.8.27 1.66.06 3.33.11 4.99.11.97 0 1.94-.11 2.91-.1 1.5.02 3 .11 4.5.15 1.6.04 3.2.07 4.8.09.78 0 1.57 0 2.35-.02 2.94-.08 5.88.07 8.83.05 0 0 76.45-.93 97.08-.93Z" style="fill:#fff8ed"/>

    <path d="M70.6 514.69c-.38 0-.79-.15-1.12-.41-.47-.36-.91-.78-1.33-1.19l-.08-.08c-.71-.69-1.79-1.45-2.84-2.19-.97-.68-1.98-1.39-2.69-2.04l-2.16-1.99c-1.69-1.56-3.39-3.13-5.08-4.68-.6-.54-1.2-1.07-1.81-1.6-.48-.42-.96-.84-1.44-1.27-1.82-1.63-3.63-3.27-5.44-4.92-.85-.77-1.68-1.57-2.52-2.37l-.41-.39c-.24-.23-.48-.47-.72-.71-.34-.34-.67-.67-1.02-.99-.72-.67-1.45-1.32-2.18-1.98-.81-.73-1.61-1.46-2.42-2.2-.61-.56-1.21-1.13-1.8-1.7-.57-.54-1.14-1.08-1.72-1.62-.29-.27-.59-.52-.9-.77-.31-.26-.62-.51-.92-.79-.83-.77-1.66-1.54-2.49-2.32l-1.86-1.74c-.7-.65-1.39-1.29-2.09-1.93-.85-.79-1.71-1.57-2.56-2.37-.24-.22-.47-.47-.7-.72-.14-.15-.28-.31-.43-.45l-.87-.87-.71-.71c-.07-.07-.14-.15-.21-.23-.07-.08-.14-.17-.22-.23-.42-.36-.83-.71-1.25-1.06-.4-.34-.81-.68-1.21-1.03l-.18-.16c-.5-.43-1-.87-1.49-1.33-.46-.45-.93-.9-1.39-1.36-.79-.77-1.57-1.55-2.37-2.28-.55-.5-.76-1.02-.73-1.8l.02-.39c.07-1.79.14-3.64.15-5.45v-6.43c.14-63.67.17-96.78.09-98.43-.05-.99 0-1.99.03-2.96.02-.6.05-1.19.05-1.79.02-2.43.03-35.35.04-67.19.01-32.55.02-66.21.04-68.68.01-2.01.03-4.03.05-6.04.03-2.99.06-5.99.07-8.98 0-.86.04-1.73.08-2.59.07-1.64.15-3.34-.04-4.99v-.28l.06-1.08c.04-.73.08-1.45.1-2.18.03-2 .05-20.61.08-40.3.03-22.3.06-45.37.1-47.62.06-2.87.14-5.74.22-8.62l.1-3.46-.06-.46v-.12c.17-4.62.33-9.24.49-13.85.02-.63.25-1.11.72-1.5.67-.57 1.27-1.11 1.83-1.65.66-.63 1.32-1.27 1.97-1.92.75-.74 1.5-1.47 2.26-2.19.45-.43.92-.85 1.38-1.27.5-.45 1-.91 1.49-1.38.48-.46.94-.94 1.41-1.42.52-.54 1.05-1.08 1.58-1.59.91-.87 1.84-1.71 2.77-2.55l1.72-1.57c.47-.43.94-.86 1.4-1.3.76-.73 1.51-1.46 2.27-2.19.86-.83 1.72-1.67 2.58-2.5.76-.73 1.53-1.45 2.3-2.17.71-.66 1.41-1.33 2.11-2 2.05-1.96 4.09-3.93 6.14-5.9.62-.6 1.24-1.21 1.86-1.82.61-.6 1.21-1.2 1.82-1.79.66-.64 1.33-1.28 1.99-1.91 1.09-1.04 2.18-2.08 3.26-3.15 1.3-1.29 2.58-2.62 3.86-3.95l.81-.84 3.09-3.21c1.07-1.11 2.13-2.22 3.21-3.33.24-.25.49-.48.74-.72.43-.4.84-.78 1.2-1.24.62-.8 1.34-1.11 2.36-1.02 1.6.15 3.24.25 4.77.33l.43.03.27.02h.1l.3-.04c4.36-.03 29.04-.07 57.62-.11 43.36-.06 97.31-.13 98.48-.24 1.01-.1 1.74.22 2.36 1.02.36.45.76.83 1.19 1.23.25.24.5.47.75.72 1.11 1.15 2.22 2.3 3.32 3.45l2.97 3.09.85.88c1.27 1.32 2.54 2.63 3.83 3.91 1.07 1.06 2.16 2.1 3.24 3.14.67.64 1.34 1.28 2.01 1.93.61.59 1.22 1.19 1.82 1.79.62.61 1.24 1.22 1.86 1.82 2.04 1.97 4.09 3.94 6.14 5.9.7.66 1.39 1.32 2.09 1.98.77.73 1.55 1.46 2.32 2.19.87.83 1.74 1.68 2.61 2.52.75.72 1.49 1.45 2.24 2.17.46.44.93.87 1.4 1.29l1.75 1.59c.92.83 1.84 1.67 2.75 2.53.54.51 1.06 1.05 1.59 1.59.46.48.93.96 1.41 1.41.49.47.99.93 1.49 1.38.46.42.92.83 1.38 1.27.75.72 1.5 1.45 2.25 2.18.66.65 1.32 1.29 1.99 1.93.55.53 1.15 1.07 1.83 1.65.47.4.7.87.72 1.5l.51 14.43h-.08l.1 3.46c.08 2.87.17 5.74.22 8.62.04 2.25.07 25.32.1 47.62.02 19.7.05 38.3.08 40.3.01.74.05 1.48.1 2.22l.06 1.02v.3c-.19 1.65-.12 3.35-.04 4.99.04.86.08 1.73.08 2.59 0 2.99.04 5.99.07 8.98.02 2.01.04 4.03.05 6.04.02 2.43.03 35.35.04 67.19.01 32.55.02 66.21.04 68.68 0 .59.03 1.19.05 1.79.04.97.08 1.97.03 2.96-.08 1.65-.05 34.76.08 98.43v6.43c.01 1.82.09 3.67.16 5.45l.02.38c.03.78-.18 1.3-.73 1.8-.8.73-1.59 1.51-2.37 2.28-.46.46-.92.91-1.39 1.36-.49.47-1 .91-1.51 1.35l-.17.14c-.41.35-.82.7-1.23 1.04-.41.35-.82.69-1.23 1.04-.08.07-.15.15-.22.23-.07.08-.14.16-.21.23l-.73.73c-.28.28-.57.56-.85.84-.14.15-.29.3-.43.45-.23.25-.46.49-.7.72-.85.79-1.7 1.58-2.56 2.37-.7.64-1.39 1.28-2.09 1.93l-1.86 1.74c-.83.78-1.66 1.55-2.49 2.32-.3.28-.61.53-.92.79-.3.25-.6.5-.9.77-.58.53-1.15 1.07-1.72 1.62-.6.57-1.2 1.14-1.8 1.7-.79.73-1.59 1.45-2.39 2.18-.74.67-1.47 1.33-2.2 2-.34.32-.68.65-1.01.98-.24.24-.48.48-.73.71l-.44.42c-.83.79-1.65 1.58-2.49 2.34-1.81 1.65-3.62 3.29-5.44 4.92-.48.43-.96.85-1.44 1.27-.6.53-1.21 1.05-1.81 1.6-1.69 1.55-3.38 3.11-5.07 4.66l-3.15 2.91a485.52 485.52 0 0 1-3.34 3.07c-.49.45-.95.87-1.44 1.22-.35.25-.74.39-1.13.37-.93-.04-28.93.04-61.34.13-43.65.12-93.12.25-94.4.16l-.77-.06h-.09c-.28.02-.55.03-.83.04-2.21.08-4.45.08-6.62.08ZM13.34 81.93l.06.44-.11 3.91c-.08 2.87-.17 5.74-.22 8.61-.04 2.25-.07 25.31-.1 47.61-.02 19.7-.05 38.31-.08 40.32-.01.74-.05 1.48-.1 2.22l-.06 1.04v.16c.2 1.72.12 3.46.05 5.13-.04.85-.07 1.7-.08 2.55 0 3-.04 5.99-.07 8.99-.02 2.01-.04 4.02-.05 6.04-.02 2.47-.03 36.13-.04 68.68 0 31.84-.02 64.76-.04 67.19 0 .61-.03 1.21-.05 1.82-.04.95-.08 1.93-.03 2.88.12 2.5-.03 74.74-.08 98.47v6.43c-.01 1.83-.09 3.69-.16 5.49l-.02.39c-.02.57.13.81.43 1.09.81.74 1.61 1.52 2.4 2.31l1.38 1.35c.47.45.96.88 1.45 1.3l.19.16 1.2 1.02c.42.35.84.71 1.25 1.07.11.1.21.21.32.33.05.06.11.12.16.18l.71.7c.29.29.59.58.88.88.15.15.3.31.45.47.21.23.43.46.66.67.85.79 1.7 1.58 2.55 2.36.7.64 1.4 1.29 2.09 1.93l1.86 1.74c.83.77 1.65 1.55 2.48 2.31.29.26.58.51.88.75.31.26.63.52.93.8.58.54 1.15 1.08 1.73 1.63.6.57 1.19 1.13 1.79 1.69.8.74 1.6 1.46 2.41 2.19.73.66 1.46 1.32 2.18 1.99.36.33.7.67 1.05 1.02.23.23.47.47.71.69l.41.39c.83.79 1.66 1.59 2.5 2.36 1.81 1.65 3.62 3.28 5.43 4.91.47.42.95.84 1.43 1.26.61.53 1.22 1.07 1.83 1.62 1.7 1.55 3.39 3.12 5.09 4.68l2.16 1.99c.66.61 1.64 1.3 2.59 1.97 1.08.76 2.19 1.54 2.95 2.28l.08.08c.4.39.82.8 1.25 1.12.18.14.39.22.57.22 2.16 0 4.4 0 6.59-.08.13 0 .25 0 .38-.02v-.06l.5.03c.3.03.6.05.9.08 1.24.09 52.86-.05 94.33-.16 32.42-.09 60.42-.17 61.37-.13.16 0 .39-.07.56-.2.44-.32.88-.72 1.3-1.11 1.17-1.07 2.28-2.09 3.39-3.12l3.15-2.91c1.69-1.56 3.38-3.12 5.07-4.67.6-.55 1.21-1.08 1.82-1.61.48-.42.96-.83 1.43-1.26 1.82-1.63 3.63-3.26 5.43-4.91.83-.76 1.65-1.55 2.47-2.33l.44-.42c.24-.23.48-.46.71-.7.34-.34.69-.68 1.04-1.01.73-.67 1.47-1.34 2.21-2.01.8-.72 1.59-1.44 2.38-2.17.6-.55 1.2-1.12 1.79-1.69.57-.54 1.15-1.09 1.73-1.63.31-.28.62-.54.93-.8.3-.25.59-.49.88-.76.83-.76 1.66-1.54 2.48-2.31l1.86-1.74c.7-.65 1.39-1.29 2.09-1.93.85-.79 1.7-1.57 2.55-2.36.23-.21.44-.44.66-.67.15-.16.3-.32.45-.47.28-.29.57-.57.86-.85l.73-.72c.06-.06.11-.12.17-.18.1-.12.2-.23.31-.33l1.23-1.05c.41-.34.81-.69 1.22-1.04l.17-.14c.5-.43.99-.85 1.47-1.31.46-.44.92-.9 1.38-1.35.79-.78 1.59-1.57 2.4-2.31.3-.28.45-.52.43-1.09l-.02-.38c-.07-1.8-.15-3.66-.15-5.49v-6.43c-.06-23.74-.21-95.97-.09-98.47.05-.95 0-1.93-.03-2.88-.02-.61-.05-1.21-.05-1.82-.02-2.47-.03-36.13-.04-68.68 0-31.84-.02-64.76-.04-67.19-.01-2.01-.03-4.02-.05-6.04-.03-3-.06-5.99-.07-8.99 0-.85-.04-1.7-.08-2.56-.07-1.68-.15-3.41.05-5.13v-.12l-.06-1.04c-.04-.75-.09-1.5-.1-2.25-.03-2.01-.05-20.62-.08-40.32-.03-22.3-.05-45.36-.1-47.61-.06-2.87-.14-5.74-.22-8.61l-.12-4.37h.07l-.48-13.52c-.01-.43-.17-.64-.39-.83-.69-.59-1.31-1.14-1.88-1.69-.67-.64-1.33-1.29-1.99-1.94-.75-.73-1.49-1.46-2.24-2.17-.45-.43-.9-.84-1.36-1.25-.51-.46-1.02-.92-1.52-1.4-.48-.46-.95-.95-1.42-1.43-.52-.53-1.04-1.06-1.57-1.57-.9-.86-1.82-1.69-2.73-2.52l-1.75-1.59c-.47-.43-.95-.86-1.41-1.31-.75-.72-1.5-1.45-2.24-2.17-.87-.84-1.73-1.68-2.61-2.52-.77-.74-1.54-1.46-2.31-2.19l-2.1-1.98c-2.05-1.96-4.1-3.93-6.14-5.91-.62-.6-1.25-1.22-1.87-1.83-.61-.6-1.21-1.19-1.82-1.78-.67-.64-1.33-1.28-2-1.92-1.09-1.04-2.18-2.08-3.25-3.15-1.29-1.28-2.57-2.6-3.84-3.92l-.85-.88-2.97-3.09c-1.11-1.15-2.21-2.3-3.32-3.45-.23-.24-.47-.46-.71-.69-.44-.41-.89-.83-1.29-1.34-.49-.63-.96-.72-1.55-.67-1.15.11-52.9.18-98.56.24-27.71.04-51.75.07-57.16.1v.03l-.48.04c-.15 0-.3-.02-.45-.03-.13 0-.25-.02-.38-.03l-.74.03v-.07c-1.41-.08-2.9-.17-4.37-.31-.59-.05-1.06.04-1.56.67-.4.51-.85.94-1.29 1.34-.24.22-.48.45-.71.68-1.07 1.1-2.14 2.21-3.2 3.33l-3.09 3.21-.81.84c-1.29 1.33-2.57 2.67-3.88 3.96-1.08 1.07-2.17 2.12-3.27 3.16-.66.63-1.33 1.27-1.99 1.91-.61.59-1.21 1.19-1.82 1.78-.62.61-1.24 1.22-1.87 1.83-2.04 1.98-4.09 3.95-6.14 5.91-.7.67-1.41 1.34-2.12 2-.77.72-1.53 1.44-2.29 2.17L34.3 48.5c-.76.73-1.51 1.47-2.27 2.2-.47.45-.94.88-1.42 1.32l-1.72 1.57c-.92.84-1.84 1.67-2.75 2.54-.53.5-1.04 1.03-1.56 1.56-.47.49-.95.97-1.43 1.44-.5.48-1.01.94-1.52 1.4-.46.41-.91.82-1.36 1.25-.75.72-1.5 1.45-2.25 2.19-.66.64-1.32 1.29-1.98 1.92-.58.55-1.19 1.1-1.88 1.68-.22.19-.38.41-.39.83l-.48 13.54Z" style="fill:#231f20"/>

    <path d="M295.64 462.39c-.05-.9-.13-1.8-.13-2.7 0-1.72.07-3.45.08-5.17 0-1.09-.09-2.18-.1-3.27-.01-1.8.02-99.82 0-101.62-.05-3.46-.13-6.92-.17-10.37-.01-.79.07-1.58.06-2.36 0-1.43-.04-2.85-.06-4.28-.01-1.12 0-123.43-.02-124.55-.02-1.57-.06-3.15-.08-4.72 0-.71.05-1.43.03-2.14-.08-3.27-.2-6.54-.25-9.81-.05-3.12-.01-6.25-.06-9.37-.04-2.15-.28-4.29-.26-6.42.03-3.53-.16-82.21-.06-85.74.03-.94.04-1.88.03-2.82-.03-1.92-.06-3.84-.12-5.76-.05-1.8-.17-3.6-.19-5.4-.01-1.16.14-2.32.13-3.49 0-1.99-.07-3.99-.14-5.98-.02-.33-.17-.74-.36-.96-.54-.63-1.13-1.2-1.71-1.76-1.01-.99-2.03-1.94-3.03-2.93-1.21-1.18-2.37-2.44-3.6-3.57-1.71-1.58-3.47-3.07-5.2-4.6-.14-.12-.27-.26-.4-.39-1.61-1.57-3.21-3.17-4.83-4.72-1.19-1.13-2.43-2.18-3.63-3.3-.72-.68-1.4-1.44-2.12-2.13-1.78-1.69-3.58-3.36-5.36-5.06-1.61-1.52-3.2-3.07-4.79-4.6-.65-.63-1.31-1.24-1.96-1.88-.51-.5-1-1.05-1.51-1.56-.75-.75-1.52-1.48-2.28-2.22-.69-.68-1.39-1.35-2.08-2.04-1.15-1.15-2.3-2.3-3.44-3.47-.51-.52-.98-1.1-1.49-1.61-1.48-1.48-2.99-2.92-4.47-4.41-1.44-1.46-2.83-2.99-4.29-4.41-1.64-1.59-2.38-2.49-5.1-2.05-.14.02-.28.03-.42.03-1.7.03-154.76 0-156.47.06l-3.99-.06c-.14 0-.27-.01-.41-.03-2.72-.44-3.47.46-5.1 2.05-1.46 1.42-2.85 2.95-4.29 4.41-1.48 1.49-2.99 2.93-4.48 4.41-.51.51-.98 1.09-1.48 1.61-1.15 1.17-2.3 2.32-3.45 3.47-.69.69-1.38 1.36-2.08 2.04-.76.74-1.52 1.47-2.28 2.22-.51.51-1 1.06-1.51 1.56-.64.64-1.3 1.25-1.95 1.88-1.6 1.53-3.19 3.08-4.79 4.6-1.78 1.7-3.58 3.37-5.36 5.06-.72.69-1.41 1.45-2.13 2.13-1.2 1.12-2.43 2.17-3.62 3.3-1.63 1.55-3.22 3.15-4.83 4.72-.14.13-.27.27-.4.39-1.74 1.53-3.49 3.02-5.2 4.6-1.23 1.13-2.4 2.39-3.6 3.57-1.01.99-2.03 1.94-3.04 2.93-.58.56-1.16 1.13-1.71 1.76-.18.22-.34.63-.35.96-.08 1.99-.14 3.99-.15 5.98-.01 1.17.15 2.33.14 3.49-.03 1.8-.14 3.6-.2 5.4-.05 1.92-.09 3.84-.11 5.76-.02.94 0 1.88.02 2.82.1 3.53-.09 82.21-.06 85.74.02 2.13-.21 4.27-.25 6.42-.06 3.12-.01 6.25-.06 9.37-.06 3.27-.18 6.54-.26 9.81-.01.71.04 1.43.03 2.14-.02 1.57-.06 3.15-.08 4.72-.01 1.12 0 123.43-.01 124.55-.02 1.43-.06 2.85-.07 4.28 0 .78.08 1.57.07 2.36-.05 3.45-.13 6.91-.17 10.37-.03 1.8.01 99.82-.01 101.62-.01 1.09-.1 2.18-.09 3.27 0 1.72.07 3.45.08 5.17 0 .9-.08 1.8-.14 2.7-.06.97.11 1.68.8 2.23.58.45 1 1.27 1.55 1.82 1.16 1.14 2.34 2.25 3.55 3.29 1.3 1.11 2.66 2.12 3.98 3.19.28.23.51.57.78.82.5.46 1.03.87 1.52 1.34.94.91 1.84 1.88 2.79 2.77 1.02.96 2.06 1.86 3.1 2.79.82.74 1.64 1.48 2.46 2.23 1.3 1.18 2.59 2.36 3.88 3.55 1.27 1.19 2.53 2.39 3.8 3.58.43.4.88.76 1.31 1.17.99.93 1.96 1.91 2.96 2.82 1.65 1.5 3.32 2.96 4.98 4.44l6.72 6.12c1.19.92 2.29 2.02 3.42 3.07 1.41 1.3 2.83 2.58 4.25 3.86 1.42 1.29 4.04 2.67 5.42 4.03.47.46.88 1.02 1.32 1.52.67.76 1.45 1.21 2.32 1.29.5.04.99-.01 1.49-.01 2.2-.01 4.4.06 6.59-.05.21-.01.42-.02.63-.04l.61.06c2.2.19 153.51-.42 155.71-.33.49.02.99.09 1.48.06.88-.04 1.66-.46 2.35-1.2.45-.48.87-1.03 1.35-1.46 1.41-1.31 2.84-2.58 4.26-3.87 1.41-1.28 2.84-2.56 4.25-3.86 1.13-1.05 2.23-2.15 3.42-3.07.28-.22.49-.59.76-.84 1.98-1.77 3.97-3.52 5.95-5.28 1.67-1.48 3.33-2.94 4.98-4.44 1-.91 1.97-1.89 2.97-2.82.43-.41.88-.77 1.31-1.17 1.27-1.19 2.53-2.39 3.8-3.58 1.28-1.19 2.58-2.37 3.87-3.55.82-.75 1.65-1.49 2.47-2.23 1.03-.93 2.08-1.83 3.1-2.79.94-.89 1.85-1.86 2.79-2.77.49-.47 1.01-.88 1.51-1.34.27-.25.5-.59.78-.82 1.33-1.07 2.68-2.08 3.99-3.19 1.21-1.04 2.38-2.15 3.54-3.29.55-.55.97-1.37 1.56-1.82.69-.55.86-1.26.79-2.23Zm-1.53.17c-.01.97-.91 1.56-1.61 1.97-.94.55-1.77 1.45-2.6 2.2-1.82 1.62-3.64 3.24-5.44 4.88-2.18 1.97-4.32 4-6.49 5.99-1.18 1.09-2.4 2.12-3.58 3.22-1.49 1.4-2.96 2.85-4.46 4.25-.95.88-1.93 1.71-2.89 2.58-.48.44-.94.91-1.42 1.35-.98.9-1.98 1.76-2.96 2.67-.93.87-1.83 1.78-2.76 2.65-.77.72-1.56 1.4-2.33 2.12-2.16 2-4.31 4.03-6.48 6-1.97 1.8-3.96 3.54-5.94 5.31-.55.5-1.08 1.04-1.62 1.55-1.21 1.12-2.41 2.23-3.63 3.34-.48.44-.97.84-1.46 1.27-.69.62-1.39 1.22-2.05 1.89-.46.47-.95.5-1.48.38-.43-.11-.87-.23-1.3-.27-1.16-.1-151.43.45-152.58.38-.47-.02-.94.04-1.4 0-.53-.05-1.07-.1-1.55-.14l-.03 1.39c.01-.61.01-1.39-.02-1.39l-1.55.09c-.46.02-.93-.06-1.4-.05-1.15.02-2.31.05-3.47.11-.43.02-.87.13-1.3.22-.54.1-1.02.06-1.48-.43-.65-.7-1.34-1.33-2.01-1.97-.48-.45-2.18-1.04-2.66-1.48-1.21-1.11-2.42-2.22-3.62-3.34-.55-.51-1.08-1.05-1.63-1.55-1.98-1.77-3.97-3.51-5.94-5.31-2.17-1.97-4.31-4-6.47-6-.77-.72-1.57-1.4-2.34-2.12-.92-.87-1.82-1.78-2.75-2.65-.98-.91-1.98-1.77-2.96-2.67-.48-.44-.94-.91-1.42-1.35-.96-.87-1.94-1.7-2.9-2.58-1.49-1.4-2.96-2.85-4.46-4.25-1.18-1.1-2.39-2.13-3.58-3.22-2.16-1.99-4.31-4.02-6.48-5.99-1.6-1.46-3.22-2.9-4.83-4.34-.88-.78-1.67-1.68-2.54-2.46-.69-.62-2.28-1.18-2.28-2.25 0-1.54-.07-3.09.05-4.62.18-2.25.22-4.49.2-6.75 0-2.34.13-101.03.22-103.42.08-2.17-.2-4.33-.15-6.54.02-1.04.28-2.1.19-3.12-.11-1.39-.17-2.76-.06-4.14v-.12c-.04-.82-.11-1.64-.12-2.47 0-1.54.05-124.26.06-125.8.01-1.34-.03-2.68 0-4.01.05-2.14.15-4.28.2-6.42.04-1.69.03-3.38.07-5.07.07-3.01.25-6.02.21-9.02-.03-2.49.03-4.94.22-7.41.16-1.96.07-79.11.09-81.09.03-3.71.07-7.42.11-11.14 0-.11.01-.22.02-.33.05-.9.12-1.79.16-2.69.05-.9.1-1.8.11-2.7.01-1.31-.01-2.62-.02-3.93 0-.1 0-.28-.04-.31-.29-.2-.15-.5-.12-.79.02-.29.04-.59.03-.89-.02-.59-.04-1.19-.09-1.78-.11-1.31.93-1.79 1.68-2.57.79-.82 1.47-1.75 2.3-2.53 1.45-1.35 2.93-2.65 4.38-4 1.68-1.57 3.34-3.18 5.01-4.76 1.83-1.74 3.67-3.46 5.51-5.18.75-.7 1.52-1.35 2.26-2.07 1.89-1.82 3.76-3.68 5.64-5.52 1.2-1.17 2.43-2.31 3.63-3.48 1.37-1.32 2.73-2.65 4.1-3.98 1.9-1.86 3.79-3.73 5.7-5.58 1.59-1.54 3.21-3.03 4.8-4.58 1.39-1.35 2.75-2.76 4.12-4.14 1.57-1.58 3.15-3.16 4.71-4.76 1.17-1.19 2.39-2.27 3.4-3.74.18-.25.54-.37.82-.38 1.08-.06 2.15-.07 3.23-.05 1.44.04 2.89.1 4.33.09 10.97-.04 153.19-.05 154.56-.09 1.07-.02 2.15-.01 3.22.05.28.01.64.13.82.38 1.01 1.47 2.24 2.55 3.4 3.74 1.57 1.6 3.14 3.18 4.72 4.76 1.37 1.38 2.73 2.79 4.12 4.14 1.59 1.55 3.21 3.04 4.8 4.58 1.91 1.85 3.8 3.72 5.7 5.58 1.36 1.33 2.72 2.66 4.09 3.98 1.21 1.17 2.43 2.31 3.64 3.48 1.88 1.84 3.75 3.7 5.63 5.52.74.72 1.52 1.37 2.27 2.07 1.84 1.72 3.67 3.44 5.5 5.18 1.68 1.58 3.33 3.19 5.02 4.76 1.25 1.16 2.52 2.29 3.77 3.45 1.06.96 2.25 1.81 3.2 2.91.31.37.61.79.88 1.18.34.46.56.89.51 1.56-.05.59-.08 1.19-.1 1.78 0 .3.01.6.04.89.02.29.17.59-.12.79-.05.03-.04.21-.05.31 0 1.31-.02 2.62-.01 3.93.01.9.06 1.8.1 2.7.05.9.11 1.79.16 2.69.01.11.02.22.02.33l.12 11.14c.02 1.98-.08 79.13.08 81.09.2 2.47.25 4.92.22 7.41-.03 3 .15 6.01.22 9.02.03 1.69.02 3.38.06 5.07.06 2.14.16 4.28.21 6.42.03 1.33-.02 2.67-.01 4.01.01 1.54.06 124.26.06 125.8 0 .83-.07 1.65-.11 2.47 0 .04-.01.08-.01.12.12 1.38.06 2.75-.06 4.14-.08 1.02.17 2.08.2 3.12.07 3.14-.03 6.24.02 9.36.03 1.47.05 99.13.04 100.6-.01 2.26.02 4.5.2 6.75.13 1.53.06 3.08.06 4.62Z" style="fill:#231f20"/>
  </g>
</svg>
