<svg xmlns="http://www.w3.org/2000/svg" id="b" viewBox="0 0 966.68 613.79">
  <defs>
    <style>
      .e{fill:#231f20}
    </style>
  </defs>
  <g id="c">
    <path d="M966.5 515.47c-.03-1.54-.05-3.08-.08-4.62h.04c.04-1.98-3.81-406.91-3.77-408.89 0-.16 0-.32.04-.48.56-3.15-3.23-7.27-5.24-9.16-1.79-1.69-3.73-3.3-5.56-4.96-1.88-1.71-3.7-3.46-5.57-5.18-.64-.59-1.38-1.13-2.03-1.72-1.47-1.32-2.93-2.65-4.38-3.99-.87-.8-1.71-1.6-2.57-2.41-.94-.88-1.86-1.77-2.81-2.64-.64-.59-1.33-1.16-1.97-1.75-.81-.75-1.58-1.51-2.36-2.26-1.94-1.85-29.36-29.57-31.29-31.43-2.14-2.06-4.24-4.14-6.38-6.2-.87-.83-1.82-1.62-2.68-2.46-1.41-1.39-2.74-2.81-4.17-4.19-1.95-1.88-3.96-3.73-5.95-5.59-.17-.15-.34-.31-.5-.47-1.93-2.01-3.81-4.04-5.8-6.02-1.43-1.42-3.01-2.77-4.5-4.16-1.25-1.16-2.45-2.35-3.69-3.51-.71-.67-1.43-1.35-2.22-1.98-.27-.22-.79-.39-1.21-.41-2.51-.09-5.03-.16-7.54-.17-1.47 0-2.94.17-4.4.16-2.27-.03-4.54-.16-6.81-.22-2.42-.06-4.84-.11-7.26-.14-1.18-.02-2.37 0-3.56.03-4.45.12-8.89-.1-13.34-.07-2.7.02-5.4-.25-8.1-.29-.48 0-6.7-.01-17.21-.02V.23c-28.86.02-42.34.02-120.55.02-78.22 0-155.87 0-184.72-.02v.04c-10.5 0-16.73.01-17.21.02C468.44.35 144.94.02 142.24 0c-4.45-.03-8.89.19-13.34.07-1.18-.03-2.37-.04-3.56-.03-2.42.03-4.84.07-7.26.14-2.27.06-4.54.2-6.81.22-1.47.02-2.94-.16-4.4-.16-2.51.01-5.03.08-7.54.17-.42.01-.94.19-1.21.41-.8.63-1.51 1.3-2.23 1.98-1.24 1.17-1.97.8-3.21 1.96-1.49 1.39-3.08 2.74-4.51 4.16-1.99 1.98-3.87 4.01-5.8 6.02-.15.16-.33.31-.5.47-1.99 1.86-4 3.71-5.95 5.59-1.43 1.38-2.76 2.81-4.17 4.19-.86.84-1.81 1.63-2.68 2.46-2.14 2.06-25 26.8-27.13 28.86-1.92 1.85-3.87 3.7-5.81 5.54-.79.75-1.56 1.51-2.36 2.26-.64.59-1.33 1.16-1.97 1.75-.95.87-1.87 1.76-2.81 2.64-.85.8-1.7 1.61-2.57 2.41a868.8 868.8 0 0 1-4.38 3.99c-.65.59-1.39 1.13-2.03 1.72-1.87 1.72-3.68 3.46-5.57 5.18-1.83 1.67-3.77 3.28-5.56 4.96-2.01 1.89-2.58 5.91-5.62 6.48-.16.03-1.21 3.47-1.21 3.63C2.09 99.04.17 517.37.2 519.34h.04c-.03 1.54-.05 3.08-.08 4.62 0 .16 0 .32-.04.48-.56 3.15.57 4.01 2.58 5.91 1.79 1.68 3.73 3.3 5.56 4.96 1.88 1.71 3.7 3.46 5.57 5.18.64.59 1.38 1.13 2.03 1.72 1.47 1.32 2.93 2.65 4.38 3.99.87.8 1.71 1.6 2.57 2.41.94.88 1.86 1.77 2.81 2.64.64.59 1.33 1.15 1.97 1.75.8.74 1.57 1.51 2.36 2.26 1.94 1.85 3.89 3.69 5.81 5.54 2.14 2.06 4.24 4.14 6.38 6.2.87.83 1.82 1.62 2.68 2.46 1.41 1.39 2.74 2.82 4.17 4.19 1.95 1.88 3.96 3.73 5.95 5.59.17.16.34.31.5.47 1.93 2.01 3.81 4.04 5.8 6.02 1.43 1.42 3.01 2.77 4.51 4.16 1.25 1.16 22.2 19.94 23.44 21.11.71.67 1.43 1.35 2.23 1.98.27.22.79.39 1.21.41 2.51.09 5.03.16 7.54.17 1.47 0 2.94-.17 4.4-.16 2.27.02 4.54.16 6.81.22 2.42.06 4.84.11 7.26.14 1.18.01 2.37 0 3.56-.03 4.45-.12 8.89.11 13.34.07 2.7-.02 332.89-1.5 335.59-1.45.54 0 8.36.02 21.45.02v.03c31.19-.01 103.5-.01 176.95-.02h7.05c73.45 0 81.6 0 112.79.02v-.03c13.09 0 20.9-.01 21.45-.02 2.7-.04 5.4-.31 8.1-.29 4.45.03 8.89-.19 13.34-.07 1.18.03 2.37.05 3.56.03 2.42-.03 4.84-.07 7.26-.14 2.27-.06 4.54-.2 6.81-.22 1.46-.02 9.21-.99 10.67-1 2.51-.01 5.03-.08 7.54-.17.42-.02.94-.19 1.21-.41.8-.63 1.51-1.31 2.22-1.98 1.24-1.17 2.44-2.35 3.69-3.51 1.49-1.39 3.08-2.74 4.5-4.16 1.99-1.98 3.87-4.01 5.8-6.02.15-.16.33-.31.5-.47 1.99-1.86 4-3.71 5.95-5.59 1.43-1.38 28.43-25.99 29.85-27.38.86-.84 1.81-1.63 2.68-2.46 2.14-2.06 4.24-4.14 6.38-6.2 1.92-1.85 3.87-3.7 5.81-5.54.79-.75 1.56-1.52 2.36-2.26.64-.59 1.33-1.16 1.97-1.75.95-.87 1.87-1.76 2.81-2.64.85-.8 1.7-1.61 2.57-2.41 1.45-1.33 2.91-2.67 4.38-3.99.65-.59 1.39-1.13 2.03-1.72 1.87-1.72 3.69-3.46 5.57-5.18 1.83-1.67 3.77-3.28 5.56-4.96 2.01-1.89 3.14-2.76 2.58-5.91-.03-.16-.03-.32-.04-.48Z" style="fill:#fff8ed"/>
    <path d="M106.71 594.8c-.57 0-1.19-.23-1.7-.62-.71-.54-1.38-1.19-2.02-1.81l-.12-.12c-1.08-1.05-2.72-2.2-4.3-3.31-1.47-1.03-2.98-2.1-4.05-3.08l-3.04-2.81c-2.63-2.43-5.26-4.86-7.9-7.27-.9-.83-1.82-1.63-2.74-2.43-.73-.63-1.45-1.26-2.17-1.91-2.75-2.46-5.49-4.94-8.22-7.43-1.28-1.17-2.54-2.38-3.81-3.58l-.61-.59c-.37-.35-.73-.72-1.1-1.08-.51-.5-1.01-1.01-1.53-1.48-1.09-1-2.18-1.99-3.27-2.97-1.23-1.11-2.46-2.22-3.68-3.34-.91-.84-1.82-1.7-2.72-2.56-.86-.82-1.73-1.64-2.6-2.45-.44-.41-.9-.79-1.36-1.17-.47-.39-.93-.77-1.38-1.19-1.28-1.17-2.55-2.37-3.82-3.55-.92-.86-1.83-1.72-2.76-2.58-1.04-.97-2.09-1.94-3.14-2.9-1.3-1.19-2.59-2.39-3.89-3.59-.36-.34-.71-.71-1.06-1.08-.22-.23-.43-.46-.65-.69-.44-.44-.88-.88-1.32-1.31-.36-.35-.72-.71-1.07-1.07-.11-.11-.21-.23-.32-.35-.11-.12-.21-.25-.33-.35-.62-.54-1.25-1.06-1.87-1.59-.61-.52-1.23-1.04-1.84-1.56l-.27-.24c-.75-.64-1.52-1.31-2.26-2.02-.71-.68-1.4-1.37-2.1-2.05-1.17-1.15-2.37-2.34-3.58-3.44-.83-.75-1.15-1.54-1.1-2.72l.03-.64c.11-2.69.22-5.46.22-8.19 0-.66 0-4.59.02-10.81.07-35.61.29-143.98.11-147.69-.07-1.49-.01-3 .05-4.47.04-.9.07-1.81.08-2.71.03-3.75.04-7.49.06-11.24.02-3.66.03-7.31.06-10.97.02-3.03.05-6.06.08-9.08.05-4.54.09-9.08.1-13.62 0-1.31.06-2.63.12-3.92.11-2.48.22-5.05-.07-7.54-.01-.13-.01-.27 0-.41.03-.58.06-1.11.09-1.64.06-1.08.13-2.2.14-3.29.05-3.03.08-31.22.12-61.06.04-33.64.08-68.43.15-71.84.09-4.41.21-8.81.34-13.22l.14-5.04-.09-.69.23-6.37c.17-4.92.35-9.84.52-14.76.03-.95.38-1.67 1.08-2.27 1.02-.87 1.93-1.68 2.77-2.49 1-.96 1.98-1.92 2.97-2.89 1.14-1.11 2.28-2.23 3.42-3.32.69-.66 1.39-1.29 2.09-1.92.76-.68 1.51-1.37 2.26-2.08.72-.69 1.42-1.42 2.13-2.14.79-.81 1.59-1.63 2.4-2.4 1.37-1.3 2.75-2.55 4.14-3.81.63-.57 1.26-1.14 1.89-1.72l.78-.71c.71-.64 1.41-1.28 2.1-1.95 1.14-1.1 2.28-2.2 3.42-3.31 1.3-1.26 2.6-2.53 3.91-3.78 1.15-1.1 2.3-2.18 3.45-3.26 1.07-1.01 2.15-2.02 3.22-3.04 3.1-2.96 6.19-5.93 9.28-8.92.94-.91 1.88-1.84 2.82-2.76.92-.9 1.83-1.81 2.75-2.7 1.01-.98 2.03-1.95 3.05-2.93 1.64-1.56 3.27-3.12 4.89-4.73 1.96-1.94 3.93-3.98 5.83-5.96l1.24-1.29c1.53-1.58 3.05-3.17 4.58-4.76 1.64-1.71 3.29-3.42 4.94-5.12.37-.38.75-.73 1.12-1.09.65-.61 1.27-1.18 1.8-1.87.94-1.21 2.03-1.68 3.57-1.54 2.27.21 4.52.35 7.2.5l.66.04c.15 0 .28.02.41.03.05 0 .1 0 .16.01l.45-.07c6.84-.05 131.78-.11 276.45-.17 206.73-.09 464.01-.2 466.6-.35 1.52-.14 2.62.33 3.56 1.54.54.69 1.15 1.26 1.8 1.87.38.35.76.71 1.12 1.09 1.65 1.7 3.29 3.41 4.94 5.12l4.58 4.76 1.24 1.29c1.9 1.97 3.87 4.01 5.83 5.96 1.62 1.6 3.25 3.16 4.89 4.73 1.02.97 2.04 1.94 3.05 2.93.92.89 1.83 1.79 2.75 2.7.94.92 1.88 1.85 2.82 2.76 3.09 2.99 6.18 5.96 9.28 8.92 1.06 1.01 2.13 2.02 3.19 3.02 1.16 1.09 2.32 2.18 3.47 3.29 1.31 1.25 2.61 2.51 3.91 3.78 1.14 1.11 2.28 2.21 3.42 3.31.69.67 1.4 1.31 2.1 1.95l.78.71 1.92 1.74c1.38 1.25 2.75 2.5 4.11 3.79.81.77 1.6 1.58 2.39 2.39.71.73 1.42 1.45 2.14 2.15.74.72 1.5 1.4 2.26 2.09.7.63 1.4 1.26 2.08 1.91 1.15 1.09 2.28 2.21 3.42 3.32.99.97 1.98 1.94 2.98 2.9.85.81 1.76 1.63 2.77 2.49.71.6 1.05 1.32 1.08 2.27.19 5.46.38 10.92.58 16.38l.19 5.44h-.12l.15 5.2c.12 4.35.25 8.7.34 13.05.07 3.4.11 38.19.15 71.84.04 29.84.07 58.03.12 61.06.02 1.1.08 2.23.15 3.33.03.52.06 1.04.08 1.56 0 .18.01.32 0 .45-.29 2.5-.17 5.06-.07 7.54.06 1.28.11 2.61.12 3.92.01 4.52.06 9.04.11 13.56.03 3.05.06 6.09.08 9.14.03 3.7.04 7.4.06 11.1.02 3.7.03 7.4.06 11.1 0 .9.04 1.8.08 2.7.06 1.47.12 2.98.05 4.48-.12 2.49-.08 52.53.11 148.74.01 5.61.02 9.13.02 9.75 0 2.71.11 5.46.21 8.13l.03.7c.05 1.18-.27 1.97-1.1 2.72-1.21 1.1-2.41 2.29-3.57 3.43-.7.69-1.4 1.38-2.11 2.06-.75.72-1.52 1.38-2.27 2.03l-.26.22c-.62.53-1.24 1.06-1.86 1.58-.62.52-1.24 1.04-1.85 1.57-.12.1-.22.22-.33.35-.1.12-.21.24-.32.35-.37.37-.73.73-1.1 1.09-.43.43-.86.85-1.29 1.29-.22.22-.44.46-.66.69-.35.37-.69.74-1.05 1.08-1.28 1.19-2.56 2.37-3.84 3.55-1.06.98-2.13 1.96-3.19 2.95-.92.85-1.83 1.71-2.75 2.57-1.27 1.19-2.54 2.38-3.83 3.56-.45.42-.92.8-1.39 1.19-.46.38-.91.75-1.35 1.16-.87.81-1.74 1.63-2.6 2.45-.9.86-1.81 1.72-2.72 2.56-1.22 1.13-2.45 2.24-3.68 3.35-1.09.99-2.18 1.97-3.27 2.97-.52.47-1.02.97-1.52 1.47-.37.37-.74.73-1.11 1.09l-.65.62c-1.25 1.2-2.5 2.39-3.77 3.55-2.73 2.5-5.48 4.97-8.22 7.43-.72.65-1.45 1.28-2.17 1.91-.92.8-1.83 1.6-2.74 2.42-2.59 2.37-5.18 4.75-7.76 7.14l-4.9 4.53c-1.6 1.48-3.2 2.95-4.8 4.42l-.09.08c-.67.61-1.35 1.24-2.09 1.77-.52.37-1.17.57-1.72.55-1.51-.06-134.75.06-289.04.19-211.64.18-451.51.39-453.44.25-.39-.03-.78-.06-1.16-.1h-.13c-.42.03-.83.05-1.25.06-3.34.12-6.73.12-10.01.13ZM20.16 123.82h.07l.02.68-.16 5.71c-.13 4.4-.25 8.8-.34 13.21-.07 3.39-.11 38.17-.15 71.81-.04 29.85-.07 58.04-.12 61.08-.02 1.12-.08 2.25-.14 3.35l-.09 1.59c0 .11-.01.17 0 .23.3 2.61.18 5.23.07 7.76-.05 1.27-.11 2.58-.12 3.86-.01 4.54-.06 9.09-.1 13.63-.03 3.03-.06 6.05-.08 9.08-.03 3.65-.04 7.31-.06 10.96-.02 3.75-.03 7.49-.06 11.24 0 .92-.04 1.84-.08 2.75-.06 1.43-.12 2.91-.05 4.34.18 3.74-.04 112.14-.11 147.76-.01 6.22-.02 10.15-.02 10.8 0 2.75-.11 5.54-.22 8.24l-.03.64c-.03.86.19 1.23.65 1.64 1.23 1.12 2.45 2.32 3.62 3.48.69.68 1.39 1.37 2.09 2.04.71.68 1.47 1.34 2.2 1.97l.27.24 1.83 1.56c.63.53 1.25 1.06 1.88 1.6.17.14.32.32.47.5.08.09.16.19.25.27.36.36.71.71 1.07 1.06.44.44.89.88 1.33 1.32.23.23.46.47.68.72.32.35.65.7.99 1.01 1.29 1.2 2.58 2.4 3.88 3.59 1.05.97 2.1 1.93 3.14 2.9l2.76 2.58c1.27 1.19 2.53 2.37 3.81 3.55.43.4.88.77 1.33 1.14.48.39.95.79 1.41 1.21.88.81 1.75 1.64 2.62 2.46.9.85 1.8 1.71 2.71 2.54 1.22 1.12 2.44 2.23 3.67 3.34 1.09.99 2.19 1.98 3.28 2.98.53.49 1.05 1.01 1.57 1.52.36.36.71.71 1.08 1.06l.61.59c1.26 1.2 2.51 2.4 3.78 3.56 2.73 2.5 5.47 4.96 8.21 7.43.71.64 1.43 1.27 2.15 1.9.93.81 1.85 1.61 2.76 2.45 2.64 2.41 5.28 4.84 7.91 7.28l3.04 2.81c1 .92 2.48 1.96 3.91 2.97 1.63 1.14 3.32 2.33 4.47 3.45l.12.12c.61.6 1.25 1.21 1.89 1.71.27.2.59.33.85.33 3.27 0 6.65-.01 9.96-.13.19 0 .38-.01.57-.02v-.1l.75.04c.46.04.91.08 1.37.11 2.48.14 252.47-.08 453.34-.25 154.36-.13 287.66-.24 289.09-.19.26-.01.58-.1.85-.3.67-.48 1.32-1.08 1.96-1.66l.09-.08c1.6-1.47 3.2-2.94 4.8-4.42l4.9-4.53c2.58-2.39 5.17-4.77 7.76-7.14.91-.83 1.84-1.64 2.76-2.45.72-.63 1.44-1.26 2.16-1.9 2.75-2.46 5.48-4.93 8.21-7.43 1.26-1.15 2.5-2.34 3.75-3.53l.65-.62c.37-.35.73-.71 1.09-1.07.52-.51 1.03-1.03 1.56-1.51 1.09-1 2.18-1.99 3.27-2.97 1.23-1.11 2.45-2.22 3.67-3.34.91-.84 1.81-1.69 2.71-2.54.87-.83 1.74-1.65 2.62-2.46.46-.42.93-.82 1.41-1.21.45-.37.9-.74 1.33-1.14 1.28-1.17 2.55-2.36 3.82-3.55.92-.86 1.83-1.72 2.75-2.57 1.06-.99 2.13-1.97 3.19-2.95 1.28-1.18 2.56-2.36 3.83-3.54.34-.32.66-.66.99-1.01.23-.24.45-.49.68-.72.43-.44.87-.87 1.3-1.3.37-.36.73-.72 1.09-1.09.09-.09.17-.18.25-.28.15-.18.3-.35.47-.49.62-.53 1.24-1.06 1.86-1.58.62-.52 1.24-1.04 1.85-1.57l.26-.22c.74-.64 1.5-1.29 2.22-1.98.7-.68 1.4-1.36 2.1-2.05 1.17-1.16 2.38-2.35 3.61-3.47.46-.42.68-.79.65-1.64l-.03-.7c-.11-2.68-.21-5.45-.22-8.18 0-.62 0-4.14-.02-9.75-.07-35.87-.3-145.03-.11-148.81.07-1.43.01-2.92-.05-4.36-.04-.91-.07-1.83-.08-2.74-.03-3.7-.04-7.4-.06-11.1-.01-3.7-.03-7.4-.06-11.1-.02-3.05-.05-6.09-.08-9.14-.05-4.52-.09-9.05-.11-13.57 0-1.28-.06-2.6-.12-3.87-.11-2.53-.22-5.15.07-7.76v-.18c-.03-.56-.06-1.08-.09-1.6-.06-1.11-.13-2.25-.15-3.38-.05-3.04-.08-31.23-.12-61.08-.04-33.64-.08-68.42-.15-71.81-.09-4.35-.21-8.69-.34-13.03-.06-1.96-.11-3.93-.17-5.89l-.02-.68h.11l-.14-4.06c-.19-5.46-.39-10.92-.58-16.38-.02-.65-.25-.97-.59-1.26-1.04-.88-1.97-1.71-2.84-2.55-1-.96-2-1.93-2.99-2.91-1.13-1.11-2.27-2.21-3.41-3.31-.68-.64-1.36-1.27-2.05-1.89-.77-.7-1.54-1.39-2.29-2.12-.73-.71-1.45-1.44-2.17-2.18-.78-.8-1.56-1.6-2.35-2.36-1.35-1.28-2.71-2.52-4.08-3.76-.64-.58-1.28-1.16-1.92-1.75l-.78-.71c-.71-.65-1.43-1.3-2.13-1.98-1.14-1.1-2.29-2.21-3.43-3.32-1.3-1.26-2.6-2.52-3.9-3.77-1.15-1.1-2.31-2.19-3.46-3.28-1.07-1-2.14-2.01-3.2-3.03-3.1-2.96-6.19-5.94-9.28-8.92-.95-.92-1.89-1.84-2.83-2.77-.91-.9-1.82-1.8-2.74-2.69-1.01-.98-2.03-1.95-3.04-2.92-1.64-1.57-3.28-3.14-4.9-4.74-1.97-1.96-3.95-4-5.85-5.98l-1.24-1.28c-1.53-1.58-3.06-3.17-4.58-4.76-1.64-1.71-3.29-3.42-4.93-5.12-.35-.36-.71-.7-1.07-1.04-.66-.62-1.35-1.26-1.95-2.03-.75-.96-1.46-1.09-2.35-1.01-1.7.16-248.75.26-466.71.36-141.22.06-263.64.11-275.75.16v.04l-.72.06c-.23-.01-.46-.03-.69-.05-.19-.02-.38-.03-.57-.04-.18 0-.33 0-.39.01l-.72.03v-.11c-2.41-.14-4.49-.27-6.6-.47-.9-.08-1.61.06-2.35 1.01-.6.77-1.29 1.41-1.95 2.03-.36.34-.72.67-1.07 1.04-1.65 1.7-3.29 3.41-4.93 5.12-1.53 1.59-3.05 3.18-4.58 4.76l-1.24 1.28c-1.91 1.98-3.88 4.02-5.85 5.98-1.62 1.61-3.26 3.17-4.9 4.74-1.02.97-2.03 1.94-3.04 2.92-.92.89-1.83 1.79-2.74 2.69-.94.93-1.88 1.86-2.83 2.77-3.09 2.99-6.18 5.96-9.28 8.92-1.07 1.02-2.15 2.04-3.22 3.05-1.15 1.08-2.3 2.16-3.44 3.26-1.3 1.25-2.6 2.51-3.9 3.77-1.14 1.11-2.28 2.22-3.43 3.32-.7.67-1.42 1.33-2.13 1.98l-.78.71c-.63.58-1.26 1.15-1.89 1.72-1.38 1.25-2.75 2.5-4.11 3.79-.8.76-1.58 1.56-2.36 2.37-.71.73-1.43 1.46-2.16 2.17-.75.73-1.52 1.42-2.29 2.11-.69.62-1.38 1.25-2.06 1.89-1.14 1.09-2.28 2.2-3.41 3.31-.99.97-1.99 1.94-2.98 2.9-.86.83-1.79 1.66-2.84 2.55-.34.29-.57.61-.6 1.26-.17 4.92-.35 9.84-.52 14.76l-.2 5.69Z" class="e"/>
    <path d="M953.95 515.73c-.09-1.36-.21-2.72-.2-4.08 0-2.6.11-5.21.12-7.81 0-1.65-.13-3.3-.15-4.94-.02-2.73.03-150.88-.01-153.61-.06-5.22-.18-10.45-.25-15.67-.02-1.19.1-2.38.1-3.57-.01-2.15-.07-4.31-.1-6.47-.02-1.69 0-3.39-.03-5.09-.03-2.38-.09-4.76-.12-7.14-.01-1.08.07-2.16.05-3.24-.12-4.94-.31-9.88-.39-14.82-.07-4.72 0-9.45-.09-14.17-.06-3.23-.41-6.47-.38-9.7.04-5.34-.25-124.26-.09-129.59.04-1.42.06-2.85.04-4.27-.04-2.9-.1-5.8-.18-8.7-.08-2.72-.26-5.43-.29-8.15-.02-1.76.21-3.52.2-5.28-.01-3.02-.1-6.03-.22-9.04-.02-.5-.26-1.12-.54-1.45-.82-.96-1.7-1.81-2.58-2.67-1.52-1.49-3.07-2.93-4.59-4.42-1.82-1.79-3.58-3.69-5.44-5.4-2.58-2.38-5.23-4.63-7.86-6.95-.21-.18-.4-.4-.6-.59-2.43-2.38-4.85-4.79-7.3-7.13-1.8-1.71-3.67-3.31-5.48-5-1.09-1.02-2.13-2.17-3.21-3.21-2.7-2.56-5.41-5.08-8.11-7.65-2.42-2.3-4.82-4.64-7.24-6.96-.98-.94-1.98-1.87-2.95-2.83-.77-.76-1.51-1.59-2.28-2.36-1.14-1.13-2.3-2.24-3.45-3.36-1.05-1.03-2.1-2.04-3.14-3.08-1.74-1.74-3.48-3.48-5.21-5.25-.76-.78-1.47-1.67-2.25-2.44-2.24-2.23-4.52-4.41-6.76-6.66-2.17-2.2-4.28-4.52-6.48-6.66-2.47-2.41-3.6-3.77-7.71-3.1-.21.03-.42.04-.63.04-2.58.04-741.02.01-743.6.1-2.01-.03-4.02-.06-6.03-.1-.21 0-.42 0-.62-.04-4.11-.67-5.24.69-7.72 3.1-2.2 2.14-4.31 4.46-6.48 6.66-2.24 2.25-4.52 4.43-6.76 6.66-.77.77-1.48 1.66-2.25 2.44-1.73 1.77-3.46 3.51-5.21 5.25-1.04 1.04-2.09 2.05-3.14 3.08-1.15 1.12-2.31 2.23-3.45 3.36-.77.77-1.51 1.6-2.28 2.36-.97.96-1.97 1.89-2.95 2.83-2.41 2.32-4.82 4.66-7.24 6.96-2.7 2.57-5.41 5.09-8.1 7.65-1.09 1.04-2.12 2.19-3.22 3.21-1.81 1.69-3.68 3.29-5.48 5-2.45 2.34-4.86 4.75-7.29 7.13-.21.19-.4.41-.61.59-2.62 2.32-5.27 4.57-7.86 6.95-1.86 1.71-3.62 3.61-5.44 5.4-1.52 1.49-3.06 2.93-4.59 4.42-.88.86-1.76 1.71-2.58 2.67-.28.33-.52.95-.54 1.45-.12 3.01-.21 6.02-.22 9.04-.01 1.76.22 3.52.2 5.28-.03 2.72-.21 5.43-.29 8.15-.08 2.9-.13 5.8-.17 8.7-.02 1.42-.01 2.85.04 4.27.15 5.33-.14 124.25-.1 129.59.03 3.23-.32 6.47-.38 9.7-.08 4.72-.02 9.45-.09 14.17-.08 4.94-.27 9.88-.39 14.82-.02 1.08.06 2.16.05 3.24-.03 2.38-.09 4.76-.12 7.14-.02 1.7-.01 3.4-.03 5.09-.02 2.16-.09 4.32-.1 6.47 0 1.19.12 2.38.11 3.57-.08 5.22-.19 10.45-.26 15.67-.04 2.73.02 150.88-.01 153.61-.01 1.64-.15 3.29-.15 4.94.01 2.6.12 5.21.13 7.81 0 1.36-.12 2.72-.21 4.08-.09 1.46.16 2.54 1.21 3.37.88.69 1.51 1.92 2.35 2.75 1.75 1.72 3.53 3.41 5.35 4.97 1.98 1.69 4.02 3.21 6.02 4.83.43.34.77.85 1.19 1.23.75.7 1.54 1.31 2.29 2.03 1.41 1.38 2.78 2.84 4.21 4.19 1.54 1.45 3.12 2.81 4.69 4.21 1.24 1.12 2.49 2.24 3.73 3.37 1.95 1.79 3.91 3.57 5.85 5.38 1.92 1.78 3.83 3.61 5.75 5.4.65.61 1.33 1.15 1.98 1.76 1.49 1.42 2.96 2.89 4.48 4.27 2.49 2.27 5.01 4.48 7.52 6.71l10.16 9.25c1.79 1.39 3.45 3.06 5.16 4.64 2.13 1.97 4.28 3.9 6.43 5.84 2.14 1.95 6.11 4.03 8.2 6.09.7.69 1.32 1.54 1.99 2.29 1.02 1.16 2.19 1.83 3.51 1.95.74.07 1.5 0 2.24 0 3.33-.01 6.65.09 9.97-.07.32-.02.63-.04.95-.07l.93.09c3.31.29 739.12-.63 742.44-.49.75.03 1.5.13 2.25.09 1.32-.07 2.5-.7 3.54-1.81.69-.73 1.32-1.56 2.04-2.22 2.13-1.98 4.29-3.89 6.43-5.84 2.15-1.94 4.3-3.87 6.43-5.84 1.71-1.58 3.37-3.25 5.17-4.64.42-.33.74-.89 1.16-1.26 2.99-2.67 5.99-5.32 8.99-7.99 2.51-2.23 5.03-4.44 7.52-6.71 1.52-1.38 2.99-2.85 4.49-4.27.64-.61 1.33-1.15 1.98-1.76 1.91-1.79 3.82-3.62 5.74-5.4 1.95-1.81 3.9-3.59 5.85-5.38 1.24-1.13 2.49-2.25 3.74-3.37 1.56-1.4 3.14-2.76 4.68-4.21 1.43-1.35 2.8-2.81 4.21-4.19.75-.72 1.54-1.33 2.3-2.03.41-.38.75-.89 1.18-1.23 2-1.62 4.05-3.14 6.02-4.83 1.83-1.56 3.6-3.25 5.35-4.97.84-.83 1.48-2.06 2.35-2.75 1.05-.83 1.3-1.91 1.21-3.37Zm-2.32.25c-.01 1.47-1.37 2.37-2.43 2.99-1.43.83-2.67 2.19-3.93 3.32-2.75 2.45-5.5 4.9-8.23 7.37-3.28 2.98-6.53 6.05-9.8 9.06-1.79 1.64-3.62 3.21-5.41 4.87-2.26 2.11-4.48 4.3-6.74 6.41-1.44 1.35-2.92 2.6-4.38 3.91-.72.66-1.42 1.38-2.14 2.04-1.49 1.36-3 2.67-4.48 4.04-1.4 1.31-2.77 2.69-4.16 4-1.17 1.1-2.36 2.12-3.53 3.2-3.27 3.03-6.51 6.09-9.79 9.08-2.97 2.71-5.99 5.34-8.97 8.02-.84.75-1.64 1.57-2.46 2.34-1.82 1.69-3.65 3.38-5.48 5.05-.73.66-1.48 1.27-2.21 1.93-1.04.93-2.1 1.84-3.1 2.85-.7.72-1.44.76-2.24.57-.65-.16-1.31-.34-1.97-.4-1.74-.16-735.97.67-737.72.57-.7-.04-1.41.05-2.11 0-.81-.07-1.61-.15-2.34-.22-.78.05-1.63.1-2.42.14-.7.03-1.41-.08-2.11-.07-1.75.03-3.5.08-5.25.17-.66.03-1.31.19-1.97.32-.81.16-1.54.09-2.23-.65-.98-1.05-2.02-2-3.04-2.97-.72-.68-3.29-1.58-4.02-2.24-1.83-1.67-3.66-3.36-5.48-5.05-.82-.77-1.62-1.59-2.45-2.34-2.99-2.68-6.01-5.31-8.98-8.02-3.28-2.99-6.52-6.05-9.79-9.08-1.16-1.08-2.36-2.1-3.52-3.2-1.4-1.31-2.77-2.69-4.17-4-1.48-1.37-2.99-2.68-4.48-4.04-.72-.66-1.42-1.38-2.14-2.04-1.45-1.31-2.94-2.56-4.38-3.91-2.26-2.11-4.48-4.3-6.74-6.41-1.78-1.66-3.62-3.23-5.41-4.87-3.27-3.01-6.52-6.08-9.8-9.06-2.42-2.19-4.86-4.37-7.3-6.55-1.33-1.18-2.51-2.54-3.84-3.72-1.04-.94-3.44-1.79-3.44-3.41 0-2.32-.11-4.67.07-6.97.28-3.41.33-6.8.31-10.21-.02-3.54.19-152.7.32-156.32.13-3.28-.3-6.55-.22-9.88.03-1.58.42-3.18.29-4.72-.17-2.1-.26-4.17-.09-6.26 0-.06-.01-.11-.01-.17-.06-1.25-.17-2.49-.17-3.74 0-2.32.07-4.65.09-6.98.01-2.02-.05-4.05-.01-6.07.07-3.24.23-6.47.31-9.71.06-2.55.05-5.1.1-7.65.11-4.55.38-9.1.33-13.64-.05-3.76.03-7.46.33-11.2.24-2.96.1-119.58.13-122.57.05-5.61.11-11.22.17-16.82 0-.18.02-.34.03-.51.08-1.36.17-2.71.24-4.06.07-1.36.15-2.72.16-4.09.02-1.97-.01-3.95-.02-5.93-.01-.17 0-.43-.07-.48-.44-.31-.22-.76-.18-1.18.04-.45.06-.91.05-1.36-.03-.89-.07-1.79-.14-2.68-.17-1.98 1.4-2.71 2.55-3.89 1.19-1.24 2.21-2.65 3.47-3.82 2.19-2.04 4.43-4.01 6.62-6.05 2.54-2.37 5.05-4.81 7.57-7.2 2.77-2.62 5.55-5.23 8.32-7.83 1.14-1.05 2.31-2.04 3.43-3.12 2.85-2.76 5.67-5.57 8.52-8.34 1.82-1.77 3.67-3.5 5.49-5.26 2.07-2 4.13-4.02 6.19-6.03 2.87-2.81 5.73-5.63 8.61-8.42 2.41-2.33 4.86-4.58 7.26-6.93 2.1-2.04 4.16-4.17 6.23-6.26 2.38-2.39 4.76-4.77 7.12-7.19 1.76-1.8 3.62-3.44 5.14-5.65.27-.39.82-.56 1.25-.58 1.62-.08 3.24-.11 4.87-.07 2.18.06 4.36.14 6.55.13 16.58-.06 738.64-.08 740.71-.13 1.62-.04 3.24-.01 4.87.07.42.02.97.19 1.24.58 1.53 2.21 3.38 3.85 5.14 5.65 2.36 2.42 4.75 4.8 7.12 7.19 2.07 2.09 4.13 4.22 6.23 6.26 2.4 2.35 4.85 4.6 7.26 6.93 2.88 2.79 5.74 5.61 8.61 8.42 2.06 2.01 4.12 4.03 6.19 6.03 1.83 1.76 3.67 3.49 5.49 5.26 2.85 2.77 5.68 5.58 8.53 8.34 1.11 1.08 2.29 2.07 3.42 3.12 2.78 2.6 5.55 5.21 8.32 7.83 2.53 2.39 5.03 4.83 7.58 7.2 1.88 1.75 3.8 3.47 5.7 5.21 1.6 1.46 3.4 2.74 4.84 4.41.46.55.91 1.19 1.33 1.77.51.71.85 1.36.76 2.37-.07.89-.11 1.79-.14 2.68-.01.45.01.91.05 1.36.04.42.26.87-.18 1.18-.06.05-.06.31-.06.48-.02 1.98-.05 3.96-.03 5.93.02 1.37.09 2.73.16 4.09.07 1.35.16 2.7.24 4.06.01.17.03.33.03.51.06 5.6.12 11.21.17 16.82.03 2.99-.11 119.61.13 122.57.3 3.74.38 7.44.34 11.2-.05 4.54.21 9.09.32 13.64.06 2.55.04 5.1.1 7.65.08 3.24.24 6.47.31 9.71.04 2.02-.02 4.05-.01 6.07.02 2.33.09 4.66.09 6.98 0 1.25-.11 2.49-.17 3.74 0 .06-.01.11-.01.17.17 2.09.08 4.16-.09 6.26-.13 1.54.26 3.14.3 4.72.1 4.74-.04 9.43.03 14.15.04 2.21.07 149.83.06 152.05-.02 3.41.03 6.8.31 10.21.18 2.3.08 4.65.08 6.97Z" class="e"/>
  </g>
</svg>
