<svg xmlns="http://www.w3.org/2000/svg" id="Envelope" viewBox="0 0 362.39 243.65">
  <path d="M362.08 22.95c-.12-5.78-.25-11.76-.31-17.64-.01-.36-.01-.73-.01-1.09v-.97c-.01-.14-.14-.23-.27-.22-1.38 0-2.82-.09-4.39-.27a.2.2 0 0 0-.17.06c-.04.03-.06.07-.07.12l-.59-.02c-1.53-.05-3.07-.1-4.6-.13-3.94-.07-7.88-.13-11.83-.19-9.94-.16-20.22-.33-30.32-.55-4.42-.1-8.9-.26-13.24-.42-4.64-.16-9.43-.33-14.15-.43-9.7-.19-20.15-.32-32.91-.39-7.26-.04-14.64-.05-21.77-.06-8.48-.02-17.24-.03-25.86-.09-1.58-.01-3.2-.17-4.76-.33-1.74-.17-3.53-.36-5.32-.33-4.94.07-9.96.23-14.82.38-4.81.15-9.78.3-14.67.37-8.68.13-17.51.17-26.05.21-3.8.01-7.6.03-11.41.06-5.88.03-11.76.07-17.64.12l-8.41.09c-5.78.06-11.75.11-17.64.12-3.71 0-7.49-.06-11.15-.11-4.21-.07-8.57-.13-12.87-.12-3.58.02-7.22.11-10.74.2-4.92.13-10.01.27-15.01.18-6.58-.11-13.27-.38-19.74-.64C9.26.78 7.17.69 5.07.62L5 .55C4.94.5 4.87.49 4.81.5s-.11.05-.14.1L3.68.56 2.03.5c-.12 0-.22.09-.22.21-.07 1.4-.1 2.82-.13 4.2l-.04 1.54c0 .12.09.22.21.22h.22l.01.17c.02 8.17.05 16.61.13 24.91.04 3.84-.1 7.74-.24 11.51-.27 7.45-.55 15.15.54 22.71.04.26.03.53.01.82v.15c-.07 1.54-.15 3.08-.23 4.62-.16 3.26-.34 6.63-.36 9.95-.04 8.04-.04 16.21-.04 24.11 0 10.84 0 22.04-.1 33.06-.13 13.02-.38 26.25-.63 39.04-.11 5.69-.22 11.37-.32 17.06 0 .12.09.22.21.22h.18L0 240.83c-.01.12.08.22.2.23.62.05 1.35.14 1.53.18.03.03.07.05.12.05l1.1.05c6.58.3 13.39.61 20.08.48 4.09-.07 8.26.06 12.29.18 6.6.2 13.41.4 20.14-.26 3.6-.36 7.3-.19 10.88-.02 2.21.1 4.49.2 6.75.19 9.11-.07 18.38-.18 27.35-.29 9.02-.12 18.35-.23 27.52-.3 7.42-.06 14.96-.08 22.25-.1 11.1-.03 22.58-.06 33.87-.22 3.2-.04 6.45.12 9.59.28 6.22.33 12.65.66 18.97-.65.21-.04.43-.03.66 0h.13c1.28.09 2.56.18 3.84.28 2.72.2 5.54.41 8.32.43 6.69.05 13.49.05 20.06.05 9.06 0 18.42 0 27.63.13 5.6.07 13.22.2 20.69.32 6.65.11 13.18.22 18.05.29 5.8.08 7.54.1 8.06 0v.03c12.8.5 25.61 1 38.42 1.49h1.13c.12 0 .21-.09.22-.21l.1-4.67c.05-2.04.09-4.08.12-6.12.06-4.81.11-9.63.16-14.44.14-11.83.27-24.06.46-36.09.08-5.3.21-10.7.34-15.91.14-5.55.28-11.28.36-16.92.16-11.64.27-24.17.33-39.45.03-8.68.04-17.36.05-26.04.01-10.18.03-20.7.08-31.05 0-1.91.14-3.85.27-5.72.15-2.09.3-4.25.27-6.37-.06-5.9-.19-11.9-.31-17.71Zm-5.4 82.72c0 10.82 0 22.01-.1 33.01-.17 17.63-1.2 79.35-1.56 93.4l-.03-.04c-.2-.23-.4-.46-.59-.69-5.27-6.05-22.89-28.13-38.44-47.61-12.34-15.46-23-28.81-25.67-31.9-3.09-3.57-9.96-11.78-17.23-20.47-9.77-11.66-20.82-24.86-25.09-29.67.22-.18.29-.23.36-.28.08-.07.16-.14.53-.43 8.03-6.41 16.21-12.88 24.13-19.14 7.87-6.23 16.02-12.68 24.02-19.06 1.96-1.57 3.92-3.3 5.8-4.97 3.06-2.71 6.23-5.52 9.51-7.69 6.15-4.05 12.02-9.1 17.69-13.97 3.47-2.98 7.06-6.06 10.66-8.88 5.65-4.42 11.26-9.36 16.24-13.77v3.05c.02 4.98.04 10.13.09 15.19.04 3.84-.1 7.75-.24 11.53-.27 7.44-.55 15.13.54 22.69.04.26.03.53.01.82v.15c-.07 1.54-.15 3.08-.23 4.62-.16 3.26-.34 6.63-.36 9.95-.04 8.06-.04 16.24-.04 24.16ZM20.15 7.23c.99 0 1.95 0 2.88-.02 4.1-.08 8.26.05 12.29.17 6.59.2 13.41.41 20.14-.26 3.6-.36 7.3-.18 10.88-.02 2.21.11 4.49.21 6.75.2 9.09-.08 18.33-.19 27.27-.3 9.04-.11 18.4-.23 27.6-.3 7.43-.06 15-.08 22.31-.1 11.08-.03 22.54-.06 33.81-.22 3.2-.04 6.45.12 9.6.29 6.21.32 12.64.66 18.96-.66.21-.04.43-.02.66-.01h.13c1.29.09 2.57.19 3.86.28 2.72.2 5.53.41 8.3.43 6.67.05 13.46.05 20.03.05 9.06 0 18.44.01 27.66.13 10.82.14 21.82.45 32.46.75 4.78.13 9.56.26 14.33.38.06.02.12-.02.16-.06.04-.04.07-.09.07-.15v-.25l32.05 1.23c-1.31 1.15-2.62 2.29-3.92 3.44-5.63 4.92-11.44 10.01-17.22 14.85-4.34 3.63-8.84 7.1-13.19 10.44-3.11 2.4-6.32 4.87-9.45 7.38-3.74 3.01-7.51 6.16-11.16 9.21-3.18 2.65-6.46 5.39-9.72 8.03-5.16 4.19-10.45 8.38-15.55 12.43-2.43 1.93-4.85 3.85-7.27 5.78-5.08 4.05-10.16 8.12-15.24 12.18l-.22.18c-3.31 2.64-10.02 7.74-10.4 7.93-.05.02-.09.05-.11.09-.58.6-15 12.46-22.3 18.2-4.3 3.39-8.71 6.75-12.97 10-1.82 1.39-3.66 2.79-5.52 4.22-2.85-4.74-6.88-8.27-11.95-8.12-7.58.23-12.05 4.35-14.57 9.87-.32-.28-.64-.54-.97-.8-4.33-3.41-8.77-6.8-13.06-10.07-4.27-3.25-8.68-6.61-12.99-10-3.57-2.81-7.18-5.71-10.67-8.51-1.24-1.01-2.49-2.01-3.74-3.01.01-.04.01-.08 0-.12a.225.225 0 0 0-.15-.15l-.26-.06c-3.4-2.72-6.79-5.43-10.19-8.14-2.59-2.08-5.19-4.15-7.79-6.23-5.15-4.13-10.3-8.25-15.46-12.36l-7.44-5.91c-5.05-4.01-10.28-8.15-15.39-12.3-3.25-2.64-6.54-5.39-9.72-8.04-3.64-3.04-7.41-6.19-11.15-9.2-3.14-2.51-6.35-4.99-9.46-7.38-4.35-3.35-8.85-6.81-13.18-10.44-5.84-4.89-11.71-10.03-17.39-15.01l-.08-.07c2.84.09 5.34.13 7.65.13ZM5.44 231.93l-.39.44c-.05-.05-.12-.11-.19-.18-.12-.11-.23-.22-.29-.28.1-8.77.4-17.51.68-25.96.26-7.76.52-15.79.65-23.83.08-5.32.21-10.72.34-15.95.14-5.53.28-11.25.36-16.88.16-11.57.27-24.11.33-39.45.03-8.8.04-17.59.05-26.39.01-10.06.03-20.47.07-30.7.01-1.9.15-3.84.28-5.72.14-2.09.3-4.25.27-6.37-.06-6.03-.18-12.16-.3-18.09-.08-3.83-.16-7.66-.22-11.49 4.24 3.72 8.75 7.64 13.42 11.29 3.61 2.83 7.2 5.91 10.67 8.89 5.67 4.87 11.54 9.91 17.68 13.97 3.29 2.17 6.45 4.97 9.51 7.68 1.89 1.68 3.84 3.41 5.81 4.98 8.06 6.43 16.27 12.93 24.21 19.21 7.85 6.21 15.97 12.63 23.94 18.99 1.33 1.06 2.54 2.02 3.73 2.96 1.67 1.32 3.28 2.6 5.13 4.08-4.05 4.39-8.09 8.76-12.14 13.14-5.2 5.61-10.4 11.23-15.58 16.85-8.9 9.67-16.19 17.67-22.93 25.16-3.25 3.62-6.52 7.35-9.68 10.95-2.98 3.4-6.06 6.91-9.12 10.33-4.43 4.94-12.07 13.63-20.16 22.83-9.6 10.92-19.52 22.21-24.83 28.08-.44.48-.87.97-1.3 1.46Zm347.15 5.5c-.3-.01-.61-.02-.92-.02-4-.07-8.01-.13-12.01-.2-9.88-.16-20.1-.32-30.14-.55-4.43-.09-8.92-.25-13.27-.41-4.63-.16-9.41-.33-14.12-.43-9.65-.2-20.11-.32-32.91-.39-7.29-.04-14.71-.05-21.88-.06-8.44-.02-17.16-.03-25.75-.09-1.58-.01-3.2-.18-4.76-.33-1.63-.16-3.32-.33-4.98-.33h-.34c-4.94.07-9.96.23-14.82.38-4.81.15-9.78.3-14.67.37-8.65.13-17.45.17-25.96.21-3.83.01-7.66.03-11.49.05-5.88.04-11.77.08-17.65.13-2.78.02-5.56.05-8.34.08-5.63.06-11.46.13-17.2.13-3.91-.02-7.88-.06-11.72-.12-4.2-.06-8.54-.13-12.81-.11-3.58.01-7.22.11-10.74.2-4.92.13-10.01.26-15.01.18-6.76-.12-13.64-.39-20.29-.66l-1.7-.07 3.41-3.9c24.8-29.42 66.82-75.14 95.38-105.16l2.05-2.22c1.38-1.48 2.75-2.96 4.12-4.44 1.92-2.1 3.78-4.36 5.58-6.53.86-1.05 1.72-2.09 2.59-3.12l.08-.1c.16-.19.31-.38.48-.51 1.05-.8 2.03-1.68 2.95-2.52l4.52 3.64c10.2 8.22 20.75 16.72 31.17 24.93 2.7 2.13 5.37 4.48 7.95 6.77-.73 4.09-.82 8.33-.59 12.02.67 10.89 14.42 17.98 25.51 10.92 4.15-2.65 6.97-7.09 8.23-11.8.86-3.18.28-8.68-1.56-13.99 9.68-7.64 19.46-15.52 28.92-23.14 4.4-3.55 8.81-7.1 13.22-10.64l.43.55c1.77 2.24 3.6 4.55 5.5 6.7 1.23 1.39 2.46 2.77 3.7 4.15l2.23 2.5c22.17 24.18 56.8 67.18 82.08 98.57 4.25 5.27 8.2 10.18 11.76 14.58l4.02 4.79h-.25Z"/>
</svg>
