<svg xmlns="http://www.w3.org/2000/svg" id="b" viewBox="0 0 1674.03 154.52">
  <g id="c">
    <path d="M223.69 1.97c-18.91-.02-34.51-.02-53.41.03-.38 0-.76.51-1.57 1.09.84.43 1.42 1.01 1.87.92 3.68-.75 6.82 1.08 9.9 2.38 3.47 1.47 6.14 3.88 7.62 7.87 1.72 4.62-18.29 90.72-25.78 120.48-1.44-2.14-2.87-8.54-3.03-9-1.62-4.73-3.28-9.44-4.96-14.15-2.55-7.16-5.19-14.28-7.69-21.45-2.1-6.02-4.02-12.1-6.1-18.13-2.64-7.65-5.43-15.26-8.03-22.93-1.55-4.57-2.82-9.23-4.31-13.81-3.52-10.8-7.09-21.58-10.83-32.94h-4.76c-1.89 5.26-3.76 10.26-5.49 15.31-1.78 5.21-3.36 10.48-5.11 15.69-1.7 5.04-3.6 10.02-5.24 15.08-1.7 5.24-3.1 10.57-4.83 15.8-1.67 5.06-3.64 10.02-5.4 15.06-1.82 5.21-3.5 10.46-5.32 15.67-1.76 5.04-3.69 10.02-5.38 15.08-1.75 5.22-2.79 10.76-5.11 15.7-2.2 4.68-5.21 15.24-5.21 15.24S34.65 19.92 36.76 14.26c1.48-3.99 4.15-6.4 7.62-7.87 3.08-1.31 6.22-3.13 9.9-2.38.45.09 1.03-.49 1.87-.92C55.34 2.51 54.96 2 54.58 2c-18.91-.05-34.51-.06-53.41-.03-.38 0-.76.45-1.14.7.28.41.42.84.66.92 2.6.8 5.31 1.32 7.81 2.36 4.14 1.72 7.34 4.59 8.01 9.27.8 5.64 25.18 93.6 29.07 114.77.61 3.35.66 6.96.14 10.32-.52 3.3-3.16 5.28-6.1 6.44-1.59.62-2.74 4.18 1.43 4.31 4.16.21 8.33.05 12.5.06 6.66.02 13.29.7 19.96.35.91-.05 1.82-.11 2.73-.22.88-.1 2.2-.2 2.93-.69.46-.31.76-.81.97-1.32.95-2.33 1.59-4.85 2.4-7.25.88-2.6 1.75-5.19 2.62-7.79 1.76-5.23 3.52-10.45 5.3-15.68 1.87-5.51 3.75-11.02 5.65-16.53 5.59-16.19 10.24-32.71 16.71-48.73-.11.28.46 1.41.56 1.72.22.68.44 1.35.66 2.03.42 1.3.85 2.6 1.28 3.9a1666.43 1666.43 0 0 0 7.88 23.3c3.58 10.36 7.24 20.7 10.93 31.02 3.73 10.41 7.49 20.81 11.25 31.22.53 1.46.9 3.83 2.46 4.58.46.22.98.23 1.49.24 4.55.04 9.09.05 13.64.16.1 0 .19 0 .28-.01.24 0 .51.01.73.01.48 0 .95-.01 1.43 0v-.09c2.61-.11 4.79-.21 5.99-.22 4.17 0 8.34.15 12.5-.06 4.17-.13 3.02-3.69 1.43-4.31-2.94-1.15-5.58-3.14-6.1-6.44-.53-3.36-.48-6.97.14-10.32 3.89-21.17 28.27-109.13 29.07-114.77.67-4.68 3.87-7.55 8.01-9.27 2.5-1.04 5.21-1.56 7.81-2.36.24-.07.37-.5.66-.92-.39-.25-.77-.7-1.14-.7ZM1002.15 1.97c-18.91-.02-34.51-.02-53.41.03-.38 0-.76.51-1.57 1.09.84.43 1.42 1.01 1.87.92 3.68-.75 6.82 1.08 9.9 2.38 3.47 1.47 6.14 3.88 7.62 7.87 1.72 4.62-18.29 90.72-25.78 120.48-1.44-2.14-2.87-8.54-3.03-9-1.62-4.73-3.28-9.44-4.96-14.15-2.55-7.16-5.19-14.28-7.69-21.45-2.1-6.02-4.02-12.1-6.1-18.13-2.64-7.65-5.43-15.26-8.03-22.93-1.55-4.57-2.82-9.23-4.31-13.81-3.52-10.8-7.09-21.58-10.83-32.94h-4.76c-1.89 5.26-3.76 10.26-5.49 15.31-1.78 5.21-3.36 10.48-5.11 15.69-1.7 5.04-3.6 10.02-5.24 15.08-1.7 5.24-3.1 10.57-4.83 15.8-1.67 5.06-3.64 10.02-5.4 15.06-1.82 5.21-3.5 10.46-5.32 15.67-1.76 5.04-3.69 10.02-5.38 15.08-1.75 5.22-2.79 10.76-5.11 15.7-2.2 4.68-5.21 15.24-5.21 15.24s-30.87-121.04-28.76-126.7c1.48-3.99 4.15-6.4 7.62-7.87 3.08-1.31 6.22-3.13 9.9-2.38.45.09 1.03-.49 1.87-.92-.81-.58-1.19-1.09-1.57-1.09-18.91-.05-34.51-.06-53.41-.03-.38 0-.76.45-1.14.7.28.41.42.84.66.92 2.6.8 5.31 1.32 7.81 2.36 4.14 1.72 7.34 4.59 8.01 9.27.8 5.64 25.18 93.6 29.07 114.77.61 3.35.66 6.96.14 10.32-.52 3.3-3.16 5.28-6.1 6.44-1.59.62-2.74 4.18 1.43 4.31 4.16.21 8.33.05 12.5.06 6.66.02 13.29.7 19.96.35.91-.05 1.82-.11 2.73-.22.88-.1 2.2-.2 2.93-.69.46-.31.76-.81.97-1.32.95-2.33 1.59-4.85 2.4-7.25.88-2.6 1.75-5.19 2.62-7.79 1.76-5.23 3.52-10.45 5.3-15.68 1.87-5.51 3.75-11.02 5.65-16.53 5.59-16.19 10.24-32.71 16.71-48.73-.11.28.46 1.41.56 1.72.22.68.44 1.35.66 2.03.42 1.3.85 2.6 1.28 3.9a1666.43 1666.43 0 0 0 7.88 23.3c3.58 10.36 7.24 20.7 10.93 31.02 3.73 10.41 7.49 20.81 11.25 31.22.53 1.46.9 3.83 2.46 4.58.46.22.98.23 1.49.24 4.55.04 9.09.05 13.64.16.1 0 .19 0 .28-.01.24 0 .51.01.73.01.48 0 .95-.01 1.43 0v-.09c2.61-.11 4.79-.21 5.99-.22 4.17 0 8.34.15 12.5-.06 4.17-.13 3.02-3.69 1.43-4.31-2.94-1.15-5.58-3.14-6.1-6.44-.53-3.36-.48-6.97.14-10.32 3.89-21.17 28.27-109.13 29.07-114.77.67-4.68 3.87-7.55 8.01-9.27 2.5-1.04 5.21-1.56 7.81-2.36.24-.07.37-.5.66-.92-.39-.25-.77-.7-1.14-.7ZM430.42 4.06c4.54-2.51 29.92-2.87 46.23-1.77 4.53 3.15 6.2 8.58 9.14 13.02 5.82 8.81 10.97 18.07 16.74 26.91 9.04 13.87 18.44 27.51 27.53 41.35 3.28 4.99 6 10.35 9.19 15.4 2.21 3.49 4.79 6.75 7.6 10.66 1.34-3.41.88-6.38.8-9.23-.45-17.27-.84-34.55-1.6-51.81-.42-9.35-1.35-18.69-2.42-27.99-.56-4.84-2.65-9.1-6.67-12.33-3.12-2.51-6.4-4.01-10.44-3.81-1.36.07-2.74-.18-4.38-.31.26-1.01.45-1.74.66-2.57 19.61.21 39.01.42 58.41.66.26 0 .51.54 1.19 1.31-1.23.37-2.2.9-3.16.9-9.99-.03-14.72 6.95-16.24 16.58-1.26 8.01.11 15.98.09 23.97-.07 24.13.14 48.27.36 72.4.08 8.23.46 16.46.82 24.69.08 1.76.65 3.5 1.06 5.61-.62 1.1-1.4 2.47-2.37 4.18-4.35-.33-8.69-.67-13.46-1.03-26.52-40.27-51.86-81.53-79.4-121.57v7.69c-.01 17.09-.07 34.18-.02 51.26.03 9.84.2 19.67.37 29.5.1 6.05 1.56 11.89 3.45 17.56 2.51 7.54 8.29 11.48 15.87 13.05 1.07.22 2.13.47 3.55.78-1.21 2.43-3.02 2.55-4.75 2.53-10.43-.13-20.87-.45-31.3-.46-5.81-.01-11.61.41-17.42.69-2.63.13-3.88-.07-6.92-1.48 2.3-2.69 5.56-1.5 8.1-2.21 8.64-4.45 12.67-11.66 12.76-20.99.15-15.49.01-30.98-.03-46.47 0-2.01-.18-4.02-.2-6.03-.16-16.29-.16-32.59-.51-48.88-.13-6.03-1.42-11.87-6.21-16.3-3.4-3.14-7.42-4.59-11.93-5-1.5-.14-2.99-.32-4.48-.48ZM1217.92 83.8c0 7.04.05 13.83-.02 20.61-.04 3.93-.4 7.85-.4 11.77 0 3.8.34 7.59.44 11.39.17 6.94 2.25 13.01 8.12 17.19 1.58 1.13 3.52 1.8 5.34 2.56 2.3.96 4.65 1.8 7.56 2.9-4.27 3.52-7.81-.28-11.46.47-3.67.75-7.61.2-11.43.21l-10.86.03c-3.82 0-7.65-.08-11.47 0-3.76.09-7.52.34-11.36 1.23-1.63-.64-3.27-1.28-6.09-2.39 1.92-.56 2.73-1 3.54-1.01 7.71-.04 13.01-4.05 15.9-10.74 1.45-3.36 1.69-7.43 1.73-11.19.19-16.5.14-33 .09-49.5-.01-5.51.32-11.01.06-16.53-.26-5.62-.07-11.27-.07-16.9 0-5.63 0-11.27-.02-16.9-.01-4.88-.66-9.53-3.43-13.8-3.89-5.98-9.1-9.37-16.31-9.54-.5-.01-1-.4-1.56-.63.87-2.2 2.6-1.67 4.14-1.58 3.39.21 6.78.66 10.17.67 20.92.07 41.84.09 62.76.02 12.08-.04 23.56 2.44 33.77 8.92 6.82 4.33 11.91 10.38 14.67 18.34 1.76 5.07 2.54 10.21 1.98 15.32-1.04 9.56-4.65 17.94-12.36 24.45-10.46 8.84-22.74 11.99-35.93 12.92-1.18.08-2.35.25-4.55.49 2.26 1.85 3.78 3.28 5.48 4.45 11.13 7.64 20.45 17.14 28.83 27.64 5.09 6.39 9.79 13.17 15.49 18.96 6.56 6.67 13.73 12.93 23.78 14.03.8.09 1.49 1.13 2.99 2.35-1.83.38-2.85.76-3.87.77-10.66.06-21.32.02-31.99.12-2.86.03-4.8-.93-6.59-3.28-9.45-12.37-19.01-24.66-28.69-36.85-3.34-4.21-7.22-7.99-10.66-12.13-2.66-3.19-4.95-6.68-7.52-9.95-5.22-6.64-12.06-8.42-20.2-4.93Zm.2-16.54c.93.17 1.51.38 2.09.37 13.78-.03 27.57.56 41.32-1.24 7.6-.99 17.31-7.26 19.57-16.34 1.2-4.81 1.54-9.62.58-14.29-1.77-8.62-6.6-14.94-15.69-16.91-3.7-.8-7.48-1.28-11.25-1.72-4.93-.57-10.04-1.9-14.8-1.17-4.6.71-9.13.36-13.65.89-2.5.29-4.93 1.13-7.42 1.73-4.11 15.22-1.15 30.18-2.01 44.96-.07 1.24.84 2.53 1.26 3.7ZM363.96 44.06c.88 1.7 1.91 2.77 1.89 3.84-.03 3.18-.69 6.36-.71 9.55-.09 12.07-.08 24.15.02 36.22.03 3.18.6 6.36.78 9.55.08 1.35-.22 2.72-.37 4.27-1.03-.05-1.76-.08-2.79-.12-1.04-7.34-4.36-13.32-9.52-18.42-2.75-2.72-6.01-4.12-9.65-4.33-9.97-.58-19.95-1.15-29.93-1.18-4.43-.02-8.87 1.26-12.81 1.87-.42.97-.57 1.15-.57 1.34.04 5.78.08 11.55.17 17.33.09 5.78.12 11.57.4 17.34.11 2.35.72 4.69 1.29 7 .89 3.61 3.16 6.19 6.86 6.72 5.35.76 10.76 1.04 16.14 1.55 6.15.58 12.29 1.44 18.45 1.72 4.57.21 9.23.07 13.75-.59 7.9-1.17 15.99-2.57 22.83-6.73 4.81-2.93 8.57-7.61 12.67-11.65 1.24-1.22 2.07-2.85 4.52-3.02.15 6.74-4.23 11.7-5.82 17.55-1.56 5.75-4.01 11.25-6.15 17.06-1.8.15-3.37.41-4.94.41-28.16-.03-56.33-.18-84.49-.11-9.62.02-19.24.58-28.87.86-2.17.06-4.35 0-6.49 0-.39-2.33.6-2.91 2.15-3.3 2.89-.73 6.15-1.02 8.51-2.61 5.36-3.61 8.21-9.13 9.01-15.52.37-2.97.09-6.03.09-9.05-.01-31.6-.03-63.19-.04-94.79 0-4.46-.52-8.62-3.24-12.54-4.02-5.81-8.96-9.52-16.22-9.63-.56 0-1.12-.33-2.33-.7.93-.99 1.51-2.14 2.31-2.33 1.31-.32 2.78-.09 4.17.05 2.35.24 4.69.87 7.04.88 33.8.05 67.6.02 101.4 0h6.3c1.46 4.09 2.92 7.98 4.25 11.91 1.34 3.97 2.8 7.93 3.77 12 .94 3.94 3.35 7.51 3.43 12.47-1.43-.84-2.43-1.14-2.98-1.8-2.39-2.9-4.64-5.9-6.94-8.86-.25-.32-.48-.67-.79-.91-6.37-4.95-13.33-9.34-21.3-10.23-10.14-1.13-20.45-1.06-30.67-.89-7.35.12-14.7 1.14-22.03 1.97-4.45.5-6.32 2.58-6.44 7.24-.2 7.64-.1 15.29-.12 22.94 0 3.37-.09 6.74.07 10.1.13 2.77.55 5.53.85 8.45 7.72 1.88 15 3 22.64 1.08 3.23-.81 6.83.03 10.21-.34 4.76-.52 9.63-.95 14.16-2.37 8.33-2.59 13.65-8.15 14.32-17.32.06-.78.3-1.55.5-2.32.05-.18.23-.32 1.22-1.59ZM1534.42 22.17c-2.75-5.36-4.59-8.94-6.83-13.31-3.37-2.11-7.42-4.64-11.6-7.26h55.81c-6.25 3.64-12.32 7.17-18.37 10.7-.57 16.96-1.09 32.68-1.66 49.63 1.9.62 4.39 2.11 6.89 2.13 24.38.18 48.76.11 74.09.11.33-3.37.96-6.45.86-9.51-.44-14.13-1.07-28.24-3.78-42.62-5.37-3.15-10.37-6.08-17.56-10.29h56.93c-4.57 2.7-8.74 5.17-12.54 7.42-4.48 8.92-6.05 17.76-5.89 27.31.42 26.02.2 52.06.15 78.09-.02 9.45 2.63 18.19 6.36 27.07 5.07 2.3 10.1 4.58 16.77 7.6-7.49 3.4-13.74.44-19.67 1.15-6.83.82-13.81 1.18-20.67.82-6.18-.33-12.97 3.17-19.3-2.93 5.55-2.66 10.75-5.16 15.72-7.55 5.83-20.18 2.77-40.08 3.58-59.6-9.08-2.63-61.81-3.26-80.42-1.03v10.22c0 11.76.31 23.54-.08 35.29-.33 9.8 3.82 16.26 12.64 20.02 2.06.88 4.1 1.78 6.03 3.57-1.22.22-2.45.4-3.68.56-8.07 1.05-16.1.61-24.19.61-8.37 0-16.74-.04-25.11-.12-.54 0-1.16-.04-1.5-.46-.92-1.1 3.6-2.6 4.3-2.93 2.05-.99 4.1-1.97 6.15-2.96 5.82-5.4 6.64-12.48 6.62-19.97-.07-34.51-.03-69.03-.03-101.75ZM1085.49.09c22.32-1.14 39.88 8.45 54.31 24.44 4.51 4.99 8.5 10.91 11.08 17.09 10.65 25.42 11.51 50.21-2.87 75.34-10.4 18.17-25.26 30.45-44.49 34.44-34.35 7.13-65.44-3.3-82.94-38.79-11.23-22.78-12.26-46.98-.81-70.18 11.67-23.65 29.42-40.18 57.34-42.31 2.78-.21 5.59-.03 8.39-.03Zm-51.69 78.14c.34 5.66-.25 11.58 1.25 16.92 2.36 8.45 4.56 17.66 9.6 24.52 12.97 17.65 31.51 23.16 52.68 18.82 11.74-2.41 21-8.51 28.01-19.07 9.38-14.13 12.4-29.59 12.89-45.83.44-14.55-4.25-28.69-12.42-39.78-19.39-26.34-50.53-24.85-73.83-6.38-3.66 2.9-6.91 6.97-8.92 11.19-5.95 12.44-11.03 25.26-9.26 39.62ZM597.96 33.29c4.88-11.71 6.49-16.02 11.41-27.83 9.05-2.31 121.66-3.03 143.72-.81 4.3 11 4.54 16.36 9.68 29.52-.5 0-2.01-.27-2.41-.86-9.31-13.69-19.24-15.38-36-16.49-3.97-.26-13.03-.22-17-.5-4.34-.3-8.71-.07-13.74-.07-.44 3.17-1.11 5.86-1.15 8.55-.14 10.56.17 21.13-.14 31.69-.63 21-1.65 41.99-2.32 62.99-.26 8.13 2.08 16.86 6.47 26.34 4.25 1.52 9.13 3.28 15.14 5.43-2.36 1.31-4.26 3.33-5.84 3.11-16.16-2.32-32.26-2-48.39.11-1.86.24-3.86-.48-6.5-.86 2.43-6.11 8.59-2.52 11.67-5.44 2.45-2.64 4.9-5.27 8.64-9.29 2.74-39.33 1.5-80.22 1.84-122.44-4.78-.28-8.68-.94-12.52-.65-7.98.6-18.39.33-26.37.77-12.37.68-16.93-.35-25.42 8.64-2.95 3.12-6.17 5.98-9.27 8.96-.5-.29-.99-.59-1.49-.88ZM1495.53 31.13c-4.88-11.71-6.49-16.02-11.41-27.83-9.05-2.31-121.66-3.03-143.72-.81-4.3 11-4.54 16.36-9.68 29.52.5 0 2.01-.27 2.41-.86 9.31-13.69 19.24-15.38 36-16.49 3.97-.26 13.03-.22 17-.5 4.34-.3 8.71-.07 13.74-.07.44 3.17 1.11 5.86 1.15 8.55.14 10.56-.17 21.13.14 31.69.63 21 1.65 41.99 2.32 62.99.26 8.13-2.08 16.86-6.47 26.34-4.25 1.52-9.13 3.28-15.14 5.43 2.36 1.31 4.26 3.33 5.84 3.11 16.16-2.32 32.26-2 48.39.11 1.86.24 3.86-.48 6.5-.86-2.43-6.11-8.59-2.52-11.67-5.44-2.45-2.64-4.9-5.27-8.64-9.29-2.74-39.33-1.5-80.22-1.84-122.44 4.78-.28 8.68-.94 12.52-.65 7.98.6 18.39.33 26.37.77 12.37.68 16.93-.35 25.42 8.64 2.95 3.12 6.17 5.98 9.27 8.96.5-.29.99-.59 1.49-.88Z" class="d"/>
  </g>
</svg>
