<svg xmlns="http://www.w3.org/2000/svg" id="No162" viewBox="0 0 120.55 47.31">
  <g>
    <path d="m17.23 43.24-.45.12c-4.18 1.09-9.08.24-12.59-2.29-1.72-1.24-3.11-2.94-3.73-4.99-.66-2.17-.79-5.36.81-7.09.65-.71 1.45-1.26 2.24-1.8-.9 2.38-1.54 5.63-.54 8.06.63 1.53 1.76 2.82 3.07 3.83 5.06 3.87 12.71 3.22 17.76-.66 4.51-3.47 7.03-8.86 9.45-14 2.1-4.47 4.26-8.92 6.46-13.34 1.66-3.33 2.98-8.77 6.34-10.77 1.16-.69 3.29-.06 4.25.93l.4.44s-1.04 1.85-1.53 2.21c-.38-.59-1.12-1.66-1.7-2.34-2.33 2.43-3.1 6.03-2.8 9.38.3 3.35 1.53 6.54 2.75 9.68 2.67-4.79 5.39-9.66 9.3-13.51.99-.97 2.09-1.9 3.43-2.25 1.34-.35 2.96.02 3.69 1.2l-1.67 2.54c-.22-1.14-1.63-1.73-2.76-1.46-1.13.26-2.03 1.12-2.82 1.97-2.99 3.23-5.39 6.95-7.77 10.65-.43.66-.86 1.34-1.03 2.11-.26 1.18.16 2.4.46 3.57 1.31 5 .72 10.47-1.62 15.08-.47.93-1.17 1.93-2.21 2.03-1.44.13-2.37-1.51-2.66-2.93-.78-3.81.22-7.81 1.97-11.28.62-1.22 1.35-2.45 1.41-3.82.06-1.22-.42-2.38-.82-3.53a28.508 28.508 0 0 1-1.15-14.04c-2.84 4.32-4.8 9.14-6.82 13.89-2.02 4.75-4.15 9.52-7.27 13.65-3.02 4-7.08 7.39-11.89 8.78Zm28.8-16.9c-.21-.04-.42-.07-.62-.11-1.06 2.63-1.66 5.4-2.31 8.16-.46 1.95-.42 3.85.19 5.77.22.69.49 1.19 1.48 1.21.35-.52.8-1.09 1.13-1.72 1.63-3.06 1.27-6.33.86-9.58-.16-1.25-.48-2.49-.72-3.73ZM119.07 23.65c-.37-.42-.83-.78-1.38-1.03-1.21-.56-2.71-.52-3.99-.08s-2.37 1.24-3.28 2.16c-1.67 1.68-2.81 3.77-3.25 5.97-.05.26-.06.59.2.72.21.11.5 0 .65-.18.14-.18.19-.4.23-.62.38-1.82 1.34-3.55 2.74-4.92.7-.69 1.53-1.3 2.5-1.64.97-.34 2.11-.39 3.04.02 1.1.48 1.77 1.52 2.02 2.58s.13 2.16 0 3.24c-.19 1.67-.38 3.35-1.04 4.93-.72 1.7-1.95 3.19-3.2 4.64-1.56 1.8-3.17 3.58-5.12 5.06-.97.73-2.02 1.39-2.87 2.24-.21.21-.43.34-.09.46.24.09.66-.04.89-.12.6-.2 1.12-.6 1.58-.99 3.06-2.56 6.1-5.18 8.38-8.31s3.77-6.82 3.41-10.51c-.12-1.28-.55-2.63-1.42-3.61ZM106.95 12.72c.17.06.32.18.36.35.08.35-.25.64-.55.84-2.67 1.79-5.3 3.69-7.55 5.99a28.335 28.335 0 0 0-7.17 12.88c-.11.43-.2.86-.22 1.3-.03.69.13 1.38.3 2.05.23.97.52 2.01 1.31 2.61.52.39 1.19.54 1.84.56 1.01.03 2.03-.2 2.93-.66 1.43-.72 2.54-1.95 3.39-3.31 1.03-1.65 1.71-3.54 1.86-5.48.07-.89.02-1.81-.31-2.64-.33-.83-.96-1.57-1.8-1.89-1.35-.5-2.87.21-3.9 1.21-1.03 1.01-1.73 2.29-2.7 3.36.06-1.61.94-3.08 2-4.29 1-1.14 2.26-2.17 3.77-2.36.81-.1 2.38-.09 3.06.44.63.5 1.02 1.71 1.27 2.45.33.99.5 2.04.47 3.09-.07 2.46-1.23 4.77-2.65 6.78-1.33 1.88-2.99 3.63-5.15 4.43-1.91.71-4.32.53-5.86-.9-1.76-1.63-2.03-4.56-1.7-6.81 0-.05.01-.1.02-.15.36-2.23 1.33-4.32 2.48-6.26 2.48-4.18 5.83-7.85 9.79-10.68 1.19-.85 2.43-1.63 3.59-2.51.24-.18.48-.37.77-.42.12-.02.24 0 .36.03ZM66.87 35.69c.6-.6 1.19-1.21 1.79-1.81.21.16.42.32.63.49-1.64 2.36-3.87 4.3-6.44 5.59-1.05.53-2.17.95-3.34 1.1-1.03.13-2.67.13-3.48-.62-.86-.8-1.27-2.25-1.4-3.38-.14-1.26.02-2.54.3-3.77-.42.25-.83.49-1.25.74-.31-.47 0-1.1.33-1.56 1.63-2.3 3.72-4.29 6.17-5.67.95-.54 2-.99 3.09-.97.91.02 1.8.37 2.55.9.75.53 1.39 1.26 1.71 2.12.37.99.3 2.1.06 3.13-.24 1.03-.63 2.02-.91 3.04-.07.25-.08.61.18.69Zm-4.63 3.02c.2-.08.39-.19.55-.33.59-.51 1.13-1.06 1.61-1.68.95-1.25 1.62-2.73 1.79-4.29.04-.36.05-.73 0-1.09-.05-.32-.16-.63-.29-.93-.3-.73-.71-1.46-1.37-1.9-1.05-.72-2.45-.56-3.71-.38-.29.04-.58.09-.84.22-.17.09-.31.21-.46.33-1.55 1.31-3.46 3.13-3.45 5.31 0 .61.09 1.22.07 1.84-.01.64-.02 1.22.37 1.76.39.53.95.92 1.57 1.15.75.28 1.57.35 2.36.3.57-.04 1.24-.08 1.8-.3ZM85.48 27c-1.24.83-2.26 1.94-3.31 2.99-.53.52-1.07 1.04-1.65 1.5-.5.39-1.09.93-1.66 1.2-.06.03-.13.05-.2.04-.11-.02-.17-.15-.16-.27s.08-.21.15-.3c.43-.61 1.14-1.11 1.69-1.62.62-.58 1.25-1.15 1.83-1.77 2.17-2.35 4.3-4.74 6.39-7.15.36-.41 1.3-2.24 1.61-2.58.88.71.42 1.32.15 1.88a96.461 96.461 0 0 0-4.67 11.57c-.84 2.55-1.97 5-3.01 7.48-.51 1.21-.64 1.23-2.43.81 1.9-4.54 3.72-9.09 5.28-13.77ZM72.72 37.59c.54 2.62.39 2.94-1.68 3.87-.8-.35-1.01-.91-.73-1.76.45-1.34.77-1.68 2.41-2.11Z" class="d"/>
    <path d="M119.37 45.68c-.08.41-.12.82-.11 1.24-3.83.1-7.67.21-11.5.31-.37 0-1.51.27-1.49-.22.01-.35.91-.73 1.18-.81 1.59-.49 3.72-.21 5.38-.28l6.55-.24Z" class="d"/>
  </g>
</svg>
