<svg xmlns="http://www.w3.org/2000/svg" id="b" viewBox="0 0 460.62 15.83">
  <defs>
    <style>
      .d{fill:#fff8ee}
    </style>
  </defs>
  <g id="c">
    <path d="M13.56 5.14c-.76-.9-1.5-1.48-2.29-2.05-.43-.33-2.17-.72-3.44-.76-.04.68-.16 1.37-.1 2.15.1 1.27-.08 2.64-.1 3.91-.02 1.13-.02 2.46-.02 3.6 0 .61.12 2.03.22 2.23.04.12.96.98 1.43 1.37-1.29.18-2.58-.16-5.22.04.35-.29.63-.63.88-.78.9-.61.94-1.23 1-2.4-.04-.96.1-2.11.06-3.07-.02-.74.04-1.52-.02-2.48-.04-1.37 0-1.93-.02-3.01-.02-.55-.1-1.09-.16-1.58-1.33-.18-2.27.33-3.24.8-.92.45-1.41 1.02-2.54 1.97.41-1.23.82-2.48 1.19-3.46 0-.04.55-.1.94-.1 3.11.02 5.57.02 8.68.02.47 0 .94-.02 1.56-.08.33 1.29 1.27 3.63 1.19 3.69ZM31.42 15.59h-4.73c.57-.47.8-.9 1.52-1.45-.02-1.9.06-4.2.02-6.23l-.04-.9c-.41-.02-.82-.04-1.23-.02-2.13-.12-4.32.02-6.47.04.04 2.07.04 5.14.16 7.09 0 .18.2.39.51.78.12.16.27.23.72.66-1.45-.1-3.32.06-4.59-.02.16-.22.63-.45.82-.66.59-.59.63-.59.63-.72-.1-2.6-.02-8.72-.14-11.33-.08-.35-.37-.45-1.04-1.33h4.18c-.64.47-.88.9-1.29 1.13.02 1.06 0 2.05 0 3.03 1.8 0 3.32.08 5.1 0 .68-.02 1.56.04 2.31.04.08 0 .2-.02.33-.04 0-1.07 0-2.07-.12-2.95 0 0-.84-.68-1.23-1.09.94-.06 3.07-.16 4.71-.02-.33.33-.45.47-.74.7-.55.41-.72.53-.72.53.04 3.3-.04 8.13-.04 11.41 0 0 .27.35.39.43.31.27.59.49.98.92ZM42.87 1.5c.64 0 1.86-.08 2.5-.08.14 0 .74.29 1.05 1.21.06.25.22.78.41 1.33-.7-.59-1.37-.98-1.93-1.21-.43-.18-.9-.29-1.37-.33-1.11-.06-2.23-.06-3.34-.06s-1.02.08-1.02.06c-.02 1.13.04 3.11.06 4.22.86.1 1.43.06 1.9.06.2 0 .68-.51.94-.8.29-.25.57-.63.9-1.15.37 1.06.14 1.43.25 2.27.1.84.02 1.7.02 2.52-.33-.31-.7-.63-.9-.92-.47-.66-.94-.94-1.06-.92-.39.04-.84 0-1.41.02-.66.02-.82 0-.82.1.02 1.95 0 4.48 0 6.49.33.1.61.24.86.24 1.31-.02 2.64.04 3.93-.14.68-.1 1.33-.61 1.95-.98.33-.22.61-.51 1.13-.96-.1 1.29-.43 2.21-.76 3.09-1.04 0-2.03.04-2.99 0-.61-.02-1.11.06-1.8.08-.12 0-.51.04-.76.02-1.37-.2-2.01 0-3.15-.06-.37-.02-.8.04-1.39-.02.31-.37 1.09-.82 1.31-1.07.06-.12.12-1.72.12-1.8-.1-1.33 0-2.37 0-3.71-.02-.7-.04-1.41-.08-2.09-.04-.55.02-2.66-.02-3.91 0-.33-.35-.57-.53-.74-.18-.14-.27-.31-.72-.74h6.7ZM72.04 15.63c-1.62.1-3.42-.04-4.9.04.35-.66.88-.74 1.31-1.27l-1.7-4.2c-.12-.24-.23-.47-.33-.7-.84.02-1.7-.06-2.5-.04-.63.04-1.37.04-2.05.04l-.29.7c-.14.51-1.72 3.69-1.88 4.12-.02.06.98.94.98.96.1.04.16.14.33.29h-4.73c.8-.59 1.15-.78 1.78-1.09.37-.8.57-1.35.94-1.99.59-1.06 1-2.21 1.46-3.32.84-2.05 1.8-4.1 2.64-6.18.25-.63.51-1.17 1-2.21.9 1.43 1.49 2.56 2.21 4.06 1.27 2.66 2.4 5.37 3.65 8.05.72 1.56.8 1.78 2.09 2.74ZM65.77 8.2l-.51-1.05-1.31-2.91-1.58 3.97h3.4ZM87.31 15.77c-.28 0-.55-.07-.79-.21-1.26-.72-1.57-1.44-2.23-2.25-.7-.8-1.64-2.15-3.73-3.87-.29-.23-2.24.14-2.61-.15-.43-.37-.69-1.14-.69-1.14s.25.12.39.18 2.01-.12 2.91.06c.1.02.2.02.27.02 2.6.02 3.97-2.38 3.19-4.48-.18-.53-.45-.8-.98-.96-1.43-.47-4.61-.27-4.69-.23 0 1.74 0 7.62.04 8.17.02.37.14 3.13.08 3.48.02.02.37.18 1.29 1.15l-4.61.04c.68-.7.51-.41 1.45-1.19 0-1.76.02-3.3 0-4.92-.04-1.62-.1-3.26-.16-4.88 0-.18-.02-1.13.02-1.64-.06.06-1.02-.96-1.45-1.41h1.72c1.6-.02 3.2-.04 4.79-.02.57.02 1.13.14 1.7.2 2.62.37 3.6 3.28 2.58 5.55-.33.74-1.04 1.27-2.01 1.66l-1.04.31c.47.47.76.68 1.47 1.5.63.88 1.09 1.37 1.74 2.07.41.45.76.96 1.17 1.41.26.29.54.56.84.81.16.14.33.27.51.4.08.06.48.29.17.33-.45.05-.88.03-1.33.01ZM103.56 5.14c-.76-.9-1.5-1.48-2.29-2.05-.43-.33-2.17-.72-3.44-.76-.04.68-.16 1.37-.1 2.15.1 1.27-.08 2.64-.1 3.91-.02 1.13-.02 2.46-.02 3.6 0 .61.12 2.03.22 2.23.04.12.96.98 1.43 1.37-1.29.18-2.58-.16-5.22.04.35-.29.63-.63.88-.78.9-.61.94-1.23 1-2.4-.04-.96.1-2.11.06-3.07-.02-.74.04-1.52-.02-2.48-.04-1.37 0-1.93-.02-3.01-.02-.55-.1-1.09-.16-1.58-1.33-.18-2.27.33-3.24.8-.92.45-1.41 1.02-2.54 1.97.41-1.23.82-2.48 1.19-3.46 0-.04.55-.1.94-.1 3.11.02 5.57.02 8.68.02.47 0 .94-.02 1.56-.08.33 1.29 1.27 3.63 1.19 3.69ZM123.04 15.65c-.59.12-.9.18-1.76.18-4.65-.14-6.47-4.1-6.68-4.89-.21-.78-.35-1.47-.43-2.29-.25-2.76.8-4.92 3.09-6.41.64-.43 1.58-.82 2.34-.86 1.52-.22 2.11-.1 3.34.12.63.12 1.7.68 2.27 1.07 1.58 1.04 2.4 2.79 2.79 4.59l.18.92c.61 3.42-1.74 6.82-5.14 7.56Zm3.26-7.07c-.08-.24-.06-.51-.14-.74-.35-.98-.57-2.03-1.13-2.87-1.07-1.58-2.79-2.46-4.77-2.27-.39.04-.78.14-1.17.22-1.92.47-2.72 1.84-3.01 3.71-.35 2.15.06 4.16 1.48 5.82.22.27.63.64.86.94.84 1 2.15 1.25 3.24 1.33.35 0 .55.02.72 0 .31-.06.65-.16.98-.23 2.64-.74 3.65-3.44 2.93-5.9ZM137.12 15.59c-1.5-.08-3.24 0-4.77.06-.02-.1.57-.53.86-.8.49-.47.74-.64.74-.64-.04-1.64-.1-4.36-.1-6 0-.21.02-.8.02-1 .02-1.15-.18-2.93-.06-4.05 0-.16-.06-.21-.43-.59l-1.02-1.05h9.93c.39.88.59 1.6.86 2.46.04.1.2.57.2.57-.41-.35-1.05-.94-1.48-1.25-.57-.43-1.04-.72-1.74-.76-1.37-.06-2.76.02-4.32-.08-.22 1.64-.04 2.99-.14 4.53.96.2 2.5.06 2.5.06.61-.45 1.31-1.48 1.86-2.09.23.61.02 1.27.1 1.84.08.59.04 1.23.04 1.84.02.59 0 1.19 0 1.95-.86-.94-1.72-2.48-2.05-2.48h-2.48c-.04 2.17-.02 4.03 0 6.1.53.33 1.49 1.39 1.49 1.39ZM170.47 15.16h-4.73c.57-.47.8-.9 1.52-1.45-.02-1.9.06-4.2.02-6.23l-.04-.9c-.41-.02-.82-.04-1.23-.02-2.13-.12-4.32.02-6.47.04.04 2.07.04 5.14.16 7.09 0 .18.2.39.51.78.12.16.27.23.72.66-1.45-.1-3.32.06-4.59-.02.16-.22.63-.45.82-.66.59-.59.63-.59.63-.72-.1-2.6-.02-8.72-.14-11.33-.08-.35-.37-.45-1.04-1.33h4.18c-.65.47-.88.9-1.29 1.13.02 1.06 0 2.05 0 3.03 1.8 0 3.32.08 5.1 0 .68-.02 1.56.04 2.31.04.08 0 .2-.02.33-.04 0-1.07 0-2.07-.12-2.95 0 0-.84-.68-1.23-1.09.94-.06 3.07-.16 4.71-.02-.33.33-.45.47-.74.7-.55.41-.72.53-.72.53.04 3.3-.04 8.13-.04 11.41 0 0 .27.35.39.43.31.27.59.49.98.92ZM183.72 15.22c-.59.12-.9.18-1.76.18-4.65-.14-6.47-4.1-6.68-4.89-.21-.78-.35-1.47-.43-2.29-.25-2.76.8-4.92 3.09-6.41.64-.43 1.58-.82 2.34-.86 1.52-.22 2.11-.1 3.34.12.63.12 1.7.68 2.27 1.07 1.58 1.04 2.4 2.79 2.79 4.59l.18.92c.61 3.42-1.74 6.82-5.14 7.56Zm3.26-7.07c-.08-.24-.06-.51-.14-.74-.35-.98-.57-2.03-1.13-2.87-1.07-1.58-2.79-2.46-4.77-2.27-.39.04-.78.14-1.17.22-1.92.47-2.72 1.84-3.01 3.71-.35 2.15.06 4.16 1.48 5.82.22.27.63.64.86.94.84 1 2.15 1.25 3.24 1.33.35 0 .55.02.72 0 .31-.06.65-.16.98-.23 2.64-.74 3.65-3.44 2.93-5.9ZM201.77 9.77c-1.29-1.88-2.03-4.05-3.28-6.12-.14.63-.35 1.13-.43 1.47-.66 2.54-1.74 6.06-2.7 8.5.02 0 .2.27.53.66.22.25.39.49.74.9-1.56-.02-3.36 0-4.83-.16.2-.14 1.6-1.29 1.72-1.39.02 0 .14-.16.47-.98.31-.84.59-1.7.86-2.56l1.82-5.98c.02-.08.1-.16.08-.23.31-.88.49-1.47.43-1.52-.24-.47-.41-.78-.7-1.29h2.77c.74 1.6 1.64 3.67 2.5 5.53.31-.45.59-1.19.76-1.52.59-1.21 1.15-2.44 1.8-3.81.96-.1 2.07-.16 3.4-.08-.43.49-.82.9-1.02 1.11.14.66.39 1.13.55 1.72.14.49.29.94.45 1.41.7 1.97 1.39 3.95 2.07 5.92.29.84.72 1.8.82 2.05.06 0 1.27 1.19 1.84 1.72-.33.04-.92.04-1.13.02-.82-.1-1.66-.08-2.48-.12-.57-.04-1.13-.04-1.92.02.57-.45.86-.7 1.25-1.13.29-.23.47-.55.45-.55-.23-.82-.76-2.62-1.09-3.4l-1.35-3.97c-.33-1.06-.57-1.54-1.11-2.66-1.09 2.09-2.23 4.44-3.26 6.43ZM222.7 1.07c.64 0 1.86-.08 2.5-.08.14 0 .74.29 1.05 1.21.06.25.22.78.41 1.33-.7-.59-1.37-.98-1.93-1.21-.43-.18-.9-.29-1.37-.33-1.11-.06-2.23-.06-3.34-.06s-1.02.08-1.02.06c-.02 1.13.04 3.11.06 4.22.86.1 1.43.06 1.9.06.2 0 .68-.51.94-.8.29-.25.57-.63.9-1.15.37 1.06.14 1.43.25 2.27.1.84.02 1.7.02 2.52-.33-.31-.7-.63-.9-.92-.47-.66-.94-.94-1.06-.92-.39.04-.84 0-1.41.02-.66.02-.82 0-.82.1.02 1.95 0 4.48 0 6.49.33.1.61.24.86.24 1.31-.02 2.64.04 3.93-.14.68-.1 1.33-.61 1.95-.98.33-.22.61-.51 1.13-.96-.1 1.29-.43 2.21-.76 3.09-1.04 0-2.03.04-2.99 0-.61-.02-1.11.06-1.8.08-.12 0-.51.04-.76.02-1.37-.2-2.01 0-3.15-.06-.37-.02-.8.04-1.39-.02.31-.37 1.09-.82 1.31-1.07.06-.12.12-1.72.12-1.8-.1-1.33 0-2.37 0-3.71-.02-.7-.04-1.41-.08-2.09-.04-.55.02-2.66-.02-3.91 0-.33-.35-.57-.53-.74-.18-.14-.27-.31-.72-.74h6.7ZM251.87 15.2c-1.62.1-3.42-.04-4.9.04.35-.66.88-.74 1.31-1.27l-1.7-4.2c-.12-.24-.23-.47-.33-.7-.84.02-1.7-.06-2.5-.04-.63.04-1.37.04-2.05.04l-.29.7c-.14.51-1.72 3.69-1.88 4.12-.02.06.98.94.98.96.1.04.16.14.33.29h-4.73c.8-.59 1.15-.78 1.78-1.09.37-.8.57-1.35.94-1.99.59-1.06 1-2.21 1.46-3.32.84-2.05 1.8-4.1 2.64-6.18.25-.63.51-1.17 1-2.21.9 1.43 1.49 2.56 2.21 4.06 1.27 2.66 2.4 5.37 3.65 8.05.72 1.56.8 1.78 2.09 2.74Zm-6.27-7.43-.51-1.05-1.31-2.91-1.58 3.97h3.4ZM258.43 1.27s.94.86 1.35 1.31c1.97 2.09 3.93 4.3 5.88 6.41.68.72.98 1.04 1.8 1.82.18.18.72.68 1.02.86 0-3.22-.06-6.35-.06-9.38-.47-.31-1.48-1.02-1.52-1.21h4.28c.12 0 .45-.02.45-.02-.02.12-1.64 1.21-1.64 1.23-.02 4.05.1 9.28-.02 13.54-.9-.9-1.97-1.92-2.97-2.93-1.7-1.72-3.34-3.42-5.06-5.26-1.21-1.31-2.62-2.89-3.71-4.14 0 0 0 .41.02.55v9.81c.41.39 1.41 1.07 1.37 1.37-.74-.1-1.58.06-2.33 0-.72-.06-1.31.12-2.29-.1.06-.14 1.64-1.25 1.64-1.37.06-2.6.08-6.64.12-9.24.02-.61-.06-1.78-.12-1.84 0-.04-.59-.92-1.06-1.6 1.17.04 1.93-.06 2.85.2ZM277.15 1.07c2.25.02 4.63-.04 6.88.1 1.8.14 3.36.88 4.14 2.68.1.2.24.37.31.57 1.47 3.34 1 7.45-1.86 9.75-1.05.84-2.29.92-3.5 1-1.43.08-2.87-.04-4.32-.06-.39 0-.9.06-1.27.1-.41.04-.94.02-1.35.04-.08-.08 1.09-.66 1.41-1.02.04-.1.14-2.99.1-3.87-.04-.65-.02-1.13-.02-1.93-.08-1.15-.08-4.53-.12-5.94 0-.12-.55-.53-.78-.7-.12-.1-.65-.45-.88-.68.43-.08 1.05-.02 1.25-.02Zm6.53 13.13c2.05-.12 3.73-3.83 3.65-6.06-.02-1.86-.27-3.13-.63-3.99-1.23-2.54-4.77-2.19-6.45-2.25-1 0-1 .04-1 .08 0 1.09.02 3.05.16 4.12.04.29.04.74.04 1.04.04 1.06-.02 2.03.02 3.21.1 1.56 0 2.44.06 3.87 1.48 0 2.75.06 4.14-.02ZM314.86 15.16h-4.73c.57-.47.8-.9 1.52-1.45-.02-1.9.06-4.2.02-6.23l-.04-.9c-.41-.02-.82-.04-1.23-.02-2.13-.12-4.32.02-6.47.04.04 2.07.04 5.14.16 7.09 0 .18.2.39.51.78.12.16.27.23.72.66-1.45-.1-3.32.06-4.59-.02.16-.22.63-.45.82-.66.59-.59.63-.59.63-.72-.1-2.6-.02-8.72-.14-11.33-.08-.35-.37-.45-1.04-1.33h4.18c-.65.47-.88.9-1.29 1.13.02 1.06 0 2.05 0 3.03 1.8 0 3.32.08 5.1 0 .68-.02 1.56.04 2.31.04.08 0 .2-.02.33-.04 0-1.07 0-2.07-.12-2.95 0 0-.84-.68-1.23-1.09.94-.06 3.07-.16 4.71-.02-.33.33-.45.47-.74.7-.55.41-.72.53-.72.53.04 3.3-.04 8.13-.04 11.41 0 0 .27.35.39.43.31.27.59.49.98.92ZM328.11 15.22c-.59.12-.9.18-1.76.18-4.65-.14-6.47-4.1-6.68-4.89-.22-.78-.35-1.47-.43-2.29-.25-2.76.8-4.92 3.09-6.41.65-.43 1.58-.82 2.35-.86 1.52-.22 2.11-.1 3.34.12.63.12 1.7.68 2.27 1.07 1.58 1.04 2.4 2.79 2.79 4.59l.18.92c.61 3.42-1.74 6.82-5.14 7.56Zm3.26-7.07c-.08-.24-.06-.51-.14-.74-.35-.98-.57-2.03-1.13-2.87-1.08-1.58-2.79-2.46-4.77-2.27-.39.04-.78.14-1.17.22-1.92.47-2.72 1.84-3.01 3.71-.35 2.15.06 4.16 1.49 5.82.21.27.63.64.86.94.84 1 2.15 1.25 3.24 1.33.35 0 .55.02.72 0 .31-.06.64-.16.98-.23 2.64-.74 3.65-3.44 2.93-5.9ZM337.16 10.53c.39.45 1.17 1.45 1.68 1.93 1.17 1.33 2.66 1.9 4.3 2.09 1.17.14 2.21-.53 2.91-1.41.86-1.08.18-2.83-1.17-3.46-1.48-.7-3.15-.86-4.55-1.74-2.76-1.72-2.81-3.85-1.54-6 .63-.94 2.31-1.33 3.6-1.07.47.1.96.22 1.41.39.7.25 1.05.23 1.6-.43.1-.2.49-.63.57-.84.31 1.88.63 3.61.72 5.24-.02 0-.68-1.09-1.09-1.54-1.04-1.29-2.11-1.86-3.65-1.7-1.58.18-2.19 1.31-1.84 2.81.39 1.68 1.37 1.78 2.78 2.23.72.2 1.64.49 2.34.74 2.15.78 2.99 2.17 2.62 4.32-.31 1.82-2.09 3.24-4.12 3.26-.7 0-1.45 0-2.09-.25-1.25-.39-2.11-.47-3.21-.08l-1.25-4.5ZM357.63 7.82c2.13.39 2.99-.9 3.09-2.62-.02-.08 0-.31-.02-.45-.14-1.62-.74-2.19-2.33-2.42-.47-.08-.96-.1-1.45-.1-.43 0-1 .04-1.47.08-.06.18-.02.33-.02.47l.2 10.92s.76.78.88.88c.22.2.43.31.63.53-.86 0-1.84-.04-2.56.02-.74.04-1.52-.02-2.38.08.63-.78 1.19-1 1.54-1.37 0-1.02.02-1.68 0-2.56-.04-1.54-.14-3.11-.16-4.65-.02-1.06-.06-3.11-.06-4.14-.02-.02-.16-.27-.7-.74-.16-.1-.51-.47-.65-.57h.29c2.23 0 4.57-.1 6.8.04 1.88.12 3.26 1.92 3.34 3.79.1 2.56-.76 3.54-3.3 3.81-1.09.12-2.33-.22-2.95-1.29.57.14.92.23 1.27.29ZM371.78 1.09c-.63.55-.98 1.04-1.29 1.31.04 1.47-.08 2.74-.04 4.1.06 2.17.12 5.08.24 7.25 0 .04.33.31.64.66.27.22.35.27.74.74-1.54-.12-3.44.08-4.79 0 .18-.22.61-.43.8-.64.61-.63.68-.68.68-.74-.1-2.76-.04-8.56-.14-11.31 0 0-.59-.7-1.21-1.37h4.36ZM389.27 4.71c-.76-.9-1.5-1.48-2.29-2.05-.43-.33-2.17-.72-3.44-.76-.04.68-.16 1.37-.1 2.15.1 1.27-.08 2.64-.1 3.91-.02 1.13-.02 2.46-.02 3.6 0 .61.12 2.03.22 2.23.04.12.96.98 1.43 1.37-1.29.18-2.58-.16-5.22.04.35-.29.63-.63.88-.78.9-.61.94-1.23 1-2.4-.04-.96.1-2.11.06-3.07-.02-.74.04-1.52-.02-2.48-.04-1.37 0-1.93-.02-3.01-.02-.55-.1-1.09-.16-1.58-1.33-.18-2.27.33-3.24.8-.92.45-1.41 1.02-2.54 1.97.41-1.23.82-2.48 1.19-3.46 0-.04.55-.1.94-.1 3.11.02 5.57.02 8.68.02.47 0 .94-.02 1.56-.08.33 1.29 1.27 3.63 1.19 3.69ZM405.84 15.2c-1.62.1-3.42-.04-4.9.04.35-.66.88-.74 1.31-1.27l-1.7-4.2c-.12-.24-.23-.47-.33-.7-.84.02-1.7-.06-2.5-.04-.63.04-1.37.04-2.05.04l-.29.7c-.14.51-1.72 3.69-1.88 4.12-.02.06.98.94.98.96.1.04.16.14.33.29h-4.73c.8-.59 1.15-.78 1.78-1.09.37-.8.57-1.35.94-1.99.59-1.06 1-2.21 1.47-3.32.84-2.05 1.8-4.1 2.64-6.18.25-.63.51-1.17 1-2.21.9 1.43 1.48 2.56 2.21 4.06 1.27 2.66 2.4 5.37 3.65 8.05.72 1.56.8 1.78 2.09 2.74Zm-6.27-7.43-.51-1.05-1.31-2.91-1.58 3.97h3.4ZM412.75 1.06h.33c-.21.18-.49.35-.7.59-.23.23-.66.51-.66.57 0 1.56 0 3.61.06 5.18.1 2.19-.1 4.38.02 6.62h4.42s.33-.23.78-.78c.35-.43 1.07-1.19 1.13-1.21-.37.98-.8 2.03-1.23 3.13h-7.93c.22-.24.45-.47.53-.59.45-.49.55-.65.55-.65-.04-3.03-.1-8.7-.06-11.72 0-.08-.72-.65-1.48-1.11.02-.08 1.11.02 1.48 0 1.19 0 1.56-.02 2.77-.02ZM426.72 1.09c-.63.55-.98 1.04-1.29 1.31.04 1.47-.08 2.74-.04 4.1.06 2.17.12 5.08.23 7.25 0 .04.33.31.65.66.27.22.35.27.74.74-1.54-.12-3.44.08-4.79 0 .18-.22.61-.43.8-.64.61-.63.68-.68.68-.74-.1-2.76-.04-8.56-.14-11.31 0 0-.59-.7-1.21-1.37h4.36ZM444.21 4.71c-.76-.9-1.5-1.48-2.29-2.05-.43-.33-2.17-.72-3.44-.76-.04.68-.16 1.37-.1 2.15.1 1.27-.08 2.64-.1 3.91-.02 1.13-.02 2.46-.02 3.6 0 .61.12 2.03.22 2.23.04.12.96.98 1.43 1.37-1.29.18-2.58-.16-5.22.04.35-.29.63-.63.88-.78.9-.61.94-1.23 1-2.4-.04-.96.1-2.11.06-3.07-.02-.74.04-1.52-.02-2.48-.04-1.37 0-1.93-.02-3.01-.02-.55-.1-1.09-.16-1.58-1.33-.18-2.27.33-3.24.8-.92.45-1.41 1.02-2.54 1.97.41-1.23.82-2.48 1.19-3.46 0-.04.55-.1.94-.1 3.11.02 5.57.02 8.68.02.47 0 .94-.02 1.56-.08.33 1.29 1.27 3.63 1.19 3.69ZM460.62 1.11c0 .1-1.41.84-1.62.92.02.02-.59.84-1.21 1.84-.66 1.07-2.17 3.42-2.27 3.52-.29.41-.49.74-.74 1.13v.16l.04 1.95c0 .12.1 2.05.04 3.2 0 .06.08.22.68.76.22.16.68.51.7.55h-4.34c.1-.12.2-.16.31-.27.21-.18.47-.45.64-.63.23-.25.25-.41.25-.43.02-1.54-.06-3.36-.12-4.92-.02-.16-.02-.31-.02-.47-.33-.49-.72-1.04-1.13-1.66-.64-1-1.41-1.97-2.13-2.93-.53-.7-1.5-1.82-1.5-1.82-.04-.04-1.09-.76-1.27-.92h4.67c-.1.22-1.29.74-1.35.94-.02.04.86 1.06 1.37 1.92.88 1.19 1.6 2.27 2.31 3.4.9-1.33 1.76-2.46 2.66-3.79.27-.39 1.04-1.68 1.02-1.72-.04-.12-.53-.39-.8-.72h3.81Z" class="d"/>
  </g>
</svg>
