<svg xmlns="http://www.w3.org/2000/svg" id="WentworthStreet" viewBox="0 0 105.33 8.55">
  <g id="c">
    <path d="M90.62 5.64c.21.24.62.77.9 1.03.63.7 1.39.9 2.26 1.01.63.07 1.17-.18 1.55-.64.47-.57.17-1.45-.56-1.78-.78-.38-1.74-.53-2.5-1.01-1.48-.92-1.59-2.18-.83-3.21.37-.46 1.23-.71 1.92-.57.26.05.66.12.91.2.37.14.56.13.85-.24.05-.08.26-.33.3-.44.17 1.01.34 1.93.39 2.8-.01 0-.37-.54-.59-.79-.56-.69-1.2-.95-2.03-.87-.84.09-1.2.63-1.02 1.43.21.89.77.95 1.52 1.19.39.11.96.26 1.34.4 1.15.42 1.59 1.16 1.4 2.32-.17.96-1.2 1.73-2.28 1.73-.38 0-.78 0-1.11-.13-.68-.21-1.17-.25-1.75-.04l-.68-2.41ZM105.32 2.62c-.4-.47-.81-.78-1.22-1.09-.24-.17-1.09-.38-1.77-.4-.02.37-.08.65-.06 1.08.06.66-.04 1.41-.05 2.08-.01.6 0 1.29 0 1.88-.01.32.06 1.09.11 1.19.02.06.52.52.77.74-.7.09-1.49-.08-2.9.02.19-.15.33-.33.47-.43.49-.31.51-.65.53-1.28-.02-.51.05-1.13.02-1.64-.01-.39.02-.77-.01-1.28-.01-.74.01-1.03 0-1.61-.01-.28-.06-.5-.08-.77-.71-.09-1.14.18-1.67.43-.49.24-.75.55-1.35 1.07.22-.66.44-1.4.64-1.93 0-.02.29-.06.5-.05 1.66 0 2.93.01 4.59.01.25 0 .51-.01.85-.05.17.69.66 2.02.63 2.04ZM13.1.25c.09.14.17.29.27.43.1.15.12.29.05.46-.11.27-.21.54-.34.8-.75 1.54-1.5 3.07-2.26 4.61-.05.1-.1.2-.17.32-.05-.08-.08-.14-.11-.2-.12-.26-.24-.52-.36-.77-.6-1.31-1.21-2.62-1.81-3.93-.13-.29-.25-.58-.36-.87a1.63 1.63 0 0 1-.07-.28c.21-.19.42-.38.65-.6H5.91c.23.17.46.31.71.44.1.05.18.12.23.21.07.11.13.22.2.34-.02.07-.04.14-.07.2-.41 1.08-.85 2.14-1.32 3.19-.21.48-.41.96-.61 1.44-.06.14-.11.28-.22.42-.13-.25-.27-.46-.37-.69-.2-.44-.37-.89-.59-1.32C3.32 3.37 2.76 2.3 2.2 1.22c-.04-.08-.08-.16-.13-.25.16-.25.33-.5.5-.78C1.7.13.87.23-.02.21c.13.11.21.19.3.26.31.21.55.48.74.81.44.77.9 1.53 1.33 2.31a47.51 47.51 0 0 1 1.64 3.27c.18.39.36.78.62 1.13.07.09.17.17.28.29.09-.19.17-.35.24-.51.46-1.04.94-2.07 1.38-3.11.32-.74.58-1.5.94-2.22.03-.06.06-.12.11-.2.1.2.18.36.26.53.49 1.06.98 2.11 1.47 3.17.27.58.53 1.17.8 1.76.13.28.31.49.66.55.4-.74.82-1.46 1.2-2.21.61-1.19 1.2-2.38 1.78-3.58.23-.47.43-.95.72-1.39.14-.21.29-.39.49-.55.11-.08.21-.17.33-.27-.24-.04-2.01-.04-2.18 0ZM51.16 1.84c-.04.09-.08.17-.12.24-.58 1.14-1.15 2.29-1.73 3.43-.19.38-.4.74-.6 1.11-.05.08-.1.16-.18.28-.06-.12-.11-.21-.15-.29a686 686 0 0 1-1.88-3.87c-.12-.25-.22-.52-.32-.79-.03-.07-.04-.14-.06-.23.19-.17.38-.34.59-.53h-2.55c.19.13.35.25.51.34.25.14.41.36.55.59-.22.71-1.79 4.24-1.99 4.49-.8-1.6-1.59-3.21-2.39-4.82.13-.2.25-.41.4-.64-.79-.05-1.55.03-2.33.06.14.13.27.27.42.39.25.21.44.47.6.75.12.21.24.43.37.64.25.43.52.85.75 1.29.44.85.85 1.72 1.26 2.58.24.5.52.97.82 1.47.06-.09.11-.17.15-.25.33-.68.66-1.37.97-2.06.44-.97.85-1.95 1.28-2.93.03-.07.06-.13.12-.24.93 1.88 1.75 3.77 2.87 5.52.13-.05.2-.15.27-.25.12-.18.24-.36.35-.54.46-.76.86-1.56 1.24-2.36.47-.98.96-1.95 1.43-2.94.11-.24.25-.43.44-.61.04-.04.08-.07.12-.11l.41-.38h-2.11c.18.22.34.43.51.64ZM68.31 8.11c-.35-.45-.71-.89-1.07-1.33-.51-.63-1-1.26-1.64-1.8.14-.05.27-.1.39-.15.3-.11.56-.28.77-.53.5-.59.6-1.54.22-2.23-.22-.41-.56-.68-1-.79-.38-.09-.77-.16-1.16-.16H61.54l.7.73.06 5.65c-.22.24-.51.36-.7.61.42.04 2.1.01 2.3-.04l-.6-.54c-.07-.73-.1-5.49-.04-5.76.03 0 .06-.01.09-.02.45 0 .9-.02 1.36 0 .27 0 .53.06.79.11.28.06.47.24.56.52.07.21.1.43.09.66-.05 1.03-1.03 1.61-1.88 1.46-.25-.04-.49-.11-.74-.17.19.29.46.49.76.65.44.22.82.52 1.15.88.47.52.92 1.05 1.35 1.6.2.24.38.49.58.73h1s-.05-.06-.07-.09ZM29.3 1.73c-.06 1.52.11 3.05 0 4.62-.94-.78-1.7-1.69-2.52-2.53-.83-.85-1.64-1.72-2.46-2.57-.54-.11-1.07-.02-1.64-.06.25.3.46.56.68.83 0 .62.02 1.23.02 1.85 0 .61-.03 1.23-.04 1.84v1.84c-.31.19-.62.37-.96.58h2.6c-.27-.2-.51-.38-.73-.54-.02-1.74-.04-3.46-.07-5.24 1.92 2.15 3.94 4.13 5.96 6.19V1.71c.27-.19.52-.36.82-.56h-2.47c.29.21.54.38.82.58ZM82.74 7.71a.632.632 0 0 1-.22-.5c.02-.8.02-1.6.03-2.39V1.85c.13-.1.24-.18.36-.28.12-.1.23-.2.36-.32-.79-.08-1.54-.05-2.34 0 .22.2.42.38.6.55.08.48.06.95.06 1.45-.1 0-.18.02-.26.01-.31 0-.61 0-.92-.01-.86 0-1.72-.01-2.58-.02a.43.43 0 0 1-.12-.02V1.77c.11-.11.21-.2.3-.29.09-.09.19-.18.3-.29h-2.03c.12.14.21.26.31.36.14.14.21.31.21.51 0 .92.02 1.84.03 2.76 0 .82.01 1.64.02 2.46v.23c-.11.1-.23.2-.33.31-.1.1-.26.15-.34.3h2.25c-.11-.09-.18-.15-.24-.21-.21-.19-.41-.39-.39-.71 0-.08-.02-.17-.02-.25-.02-.94-.04-1.89-.07-2.83v-.16c1.29-.06 2.57-.08 3.87-.01.04 1.17 0 2.33.01 3.47-.27.24-.53.46-.82.71h2.39c-.16-.16-.29-.3-.43-.43ZM59.86 3.05c-.25-.58-.62-1.08-1.16-1.43-.73-.47-1.52-.67-2.38-.62-.13 0-.26.04-.39.04-.42.03-.81.16-1.17.38-1.06.66-1.64 1.61-1.64 2.99.01.12.02.35.06.57.05.37.11.75.28 1.09.78 1.64 2.35 2.47 4.15 2.13 1.18-.22 1.99-.95 2.44-2.06.22-.53.27-1.08.19-1.65-.07-.5-.18-.99-.38-1.46Zm-2.1 4.52c-.14.06-.29.1-.44.11-.49.04-.96-.02-1.42-.22-.2-.09-.38-.2-.53-.36-.29-.3-.59-.58-.8-.94-.29-.48-.49-1.13-.48-1.78 0-.5.06-.99.27-1.46.23-.53.63-.86 1.18-1.02.23-.07.48-.13.72-.15.88-.07 1.61.23 2.19.89.2.23.35.48.45.77.15.44.33.88.39 1.34.13 1.16-.33 2.24-1.52 2.81ZM20.19 7.28c-.2.12-.4.21-.64.23-.62.06-1.24.07-1.86.06-.17 0-.33-.04-.47-.13-.04-.44-.02-2.96.02-3.16.4-.02.8 0 1.18-.01.21.11.33.27.46.42.13.17.27.33.48.47-.01-.8.03-1.58-.1-2.37-.04.03-.06.05-.07.06-.21.24-.43.48-.64.72-.08.09-.17.16-.29.16-.31 0-.62-.01-.96-.03 0-.69-.07-1.36-.04-2.04.06-.01.1-.02.13-.02.65 0 1.3 0 1.96.01.22 0 .44.05.65.12.35.11.68.28.97.51.04.03.08.05.14.1-.07-.26-.12-.47-.19-.68-.04-.13-.11-.25-.19-.36a.551.551 0 0 0-.51-.25c-.49.03-.98.04-1.47.05h-3.06l.45.45c.11.11.18.22.18.38 0 .99-.01 1.98.04 2.97.03.63 0 1.26 0 1.89 0 .34-.1.63-.35.87-.13.13-.23.28-.37.46h1.68c.15 0 .31.02.46.02.17 0 .34.02.51.01.62-.04 1.24-.06 1.86-.04h.48c.05 0 .11 0 .17-.01.18-.51.33-1.01.37-1.59-.05.04-.09.06-.11.09-.26.26-.56.45-.87.64ZM37.85 1.15c-.33.01-.66.04-.99.04h-4.01c-.14 0-.29-.02-.45.05-.19.57-.38 1.15-.57 1.73.19-.12.35-.26.51-.4.42-.4.93-.65 1.46-.84.18-.06.37-.08.56-.1.09 0 .18.02.27.03.02.25.06.48.06.71.01.74.03 1.49.02 2.23 0 .69-.02 1.38-.03 2.07v.23c-.03.37-.15.68-.49.89-.14.09-.27.21-.38.36.04 0 .06.01.09.01.67 0 1.33.02 2 .02.17 0 .34-.02.54-.03-.22-.21-.41-.39-.6-.56a.436.436 0 0 1-.15-.3c-.02-.28-.05-.57-.05-.85 0-1.36.03-2.72.04-4.07 0-.12 0-.23.02-.34.01-.12.03-.24.05-.36.46.03.88.1 1.29.23.14.04.27.1.39.19.33.23.64.5.93.79l.12.12s.02 0 .03-.01c-.19-.6-.38-1.19-.58-1.81h-.09ZM73.15 1.19H69.29c-.08 0-.16.02-.25.03-.2.59-.4 1.17-.56 1.75.18-.14.34-.28.5-.42.45-.41.98-.68 1.55-.86.23-.07.48-.12.73-.03.02.23.06.46.06.69.02.74.03 1.47.03 2.21 0 .71-.02 1.41-.03 2.12v.18c-.02.39-.15.71-.5.93-.14.09-.25.22-.4.36.08 0 .11 0 .15.01.65 0 1.3.02 1.96.02.17 0 .35-.02.56-.03-.08-.08-.14-.13-.19-.18-.14-.13-.28-.27-.42-.39a.389.389 0 0 1-.13-.28c-.02-.3-.05-.6-.05-.89 0-.93-.03-1.86.04-2.78.03-.37 0-.74 0-1.1 0-.28 0-.56.07-.85.4.03.78.09 1.16.19.25.07.48.17.67.34l.81.72c.03.03.06.05.12.11-.21-.66-.4-1.26-.59-1.84-.48 0-.95.02-1.42.02Z" class="d"/>
  </g>
</svg>
